<svg xmlns="http://www.w3.org/2000/svg" width="500" height="355.218" viewBox="0 0 500 355.218">
  <defs>
    <style>
      .cls-1 {
        fill: #e6e6e6;
      }

      .cls-2 {
        fill: #f0f0f0;
      }

      .cls-3 {
        fill: #f5f5f5;
      }

      .cls-4 {
        fill: #ebebeb;
      }

      .cls-5 {
        fill: #fafafa;
      }

      .cls-6 {
        fill: #c4c3c3;
      }

      .cls-7 {
        fill: #036;
      }

      .cls-12, .cls-8, .cls-9 {
        fill: #fff;
      }

      .cls-16, .cls-8 {
        opacity: 0.7;
      }

      .cls-10 {
        fill: #e0e0e0;
      }

      .cls-11 {
        opacity: 0.1;
      }

      .cls-12 {
        opacity: 0.3;
      }

      .cls-13 {
        fill: #e4897b;
      }

      .cls-14 {
        fill: #263238;
      }

      .cls-15 {
        fill: #ce6f64;
      }

      .cls-17 {
        opacity: 0.6;
      }

      .cls-18 {
        fill: #de5753;
      }

      .cls-19 {
        opacity: 0.2;
      }
    </style>
  </defs>
  <g id="BusStop2" transform="translate(0 -73.55)">
    <path id="Caminho_500" data-name="Caminho 500" class="cls-1" d="M500,382.4H0v.25H500Z"/>
    <path id="Caminho_501" data-name="Caminho 501" class="cls-1" d="M381.07,390H363.22v.25h17.85Z"/>
    <path id="Caminho_502" data-name="Caminho 502" class="cls-1" d="M435.46,389.88H391.89v.25h43.57Z"/>
    <path id="Caminho_503" data-name="Caminho 503" class="cls-1" d="M309.67,394.26H244.7v.25h64.97Z"/>
    <path id="Caminho_504" data-name="Caminho 504" class="cls-1" d="M238.94,394.26H227.72v.25h11.22Z"/>
    <path id="Caminho_505" data-name="Caminho 505" class="cls-1" d="M136.78,389.63h-42v.25h42Z"/>
    <path id="Caminho_506" data-name="Caminho 506" class="cls-1" d="M172.15,389.63H142.33v.25h29.82Z"/>
    <path id="Caminho_507" data-name="Caminho 507" class="cls-1" d="M102.5,394.14H66.89v.25H102.5Z"/>
    <path id="Caminho_510" data-name="Caminho 510" class="cls-2" d="M119.2,382.4H98c-11.06-19.32-17.21-71.09-1.66-127.34A254.259,254.259,0,0,1,106,226.75C111.84,305.76,137.2,359,119.2,382.4Z" transform="translate(-19.62 43.914)"/>
    <path id="Caminho_511" data-name="Caminho 511" class="cls-3" d="M80,382.4h21.22c9.85-14.28,12.75-52.54-6.33-94.12a175.483,175.483,0,0,0-11.42-20.93C82.56,325.75,60.55,365.08,80,382.4Z" transform="translate(-19.62 43.914)"/>
    <path id="Caminho_512" data-name="Caminho 512" class="cls-2" d="M347.07,302.88c-21.52-33.37-19.08,64.95-58.63,21.26-48.58-53.67-118.3-71.66-87.83-30.57S213,348.88,136,302.88c-55.78-33.36,47.08,66.65,18.91,62.85S84.2,354.15,120.64,382.4H357S368.6,336.25,347.07,302.88Z" transform="translate(-3.142 27.52)"/>
    <path id="Caminho_513" data-name="Caminho 513" class="cls-4" d="M391.76,382.65h17.75c9.25-14.72,14.39-54.16,1.39-97a182.353,182.353,0,0,0-8.07-21.57C397.91,324.26,376.69,364.79,391.76,382.65Z" transform="translate(32.709 42.47)"/>
    <path id="Caminho_514" data-name="Caminho 514" class="cls-4" d="M424.53,382.65H406.78c-8.24-10.88-10.67-40,5.3-71.7A129.5,129.5,0,0,1,421.63,295C422.4,339.49,440.82,369.45,424.53,382.65Z" transform="translate(32.709 42.47)"/>
    <path id="Caminho_515" data-name="Caminho 515" class="cls-4" d="M379,382.65h14.68c6.81-9,8.82-33.11-4.39-59.31a106.423,106.423,0,0,0-7.9-13.19C380.72,347,365.49,371.73,379,382.65Z" transform="translate(32.709 42.47)"/>
    <path id="Caminho_516" data-name="Caminho 516" class="cls-5" d="M139,382.4s-1-7.2-11.87-10.91a14.286,14.286,0,0,1,3.48,10.91Z" transform="translate(-2.33 27.89)"/>
    <path id="Caminho_517" data-name="Caminho 517" class="cls-1" d="M190.8,382.4s1-7.2,11.87-10.91a14.345,14.345,0,0,0-3.48,10.91Z" transform="translate(-2.33 27.89)"/>
    <path id="Caminho_518" data-name="Caminho 518" class="cls-1" d="M329.69,382.4s.69-14,8.23-21.19a68.86,68.86,0,0,0-2.42,21.19Z" transform="translate(-2.33 27.89)"/>
    <path id="Caminho_519" data-name="Caminho 519" class="cls-1" d="M433.86,382.4s3.51-10.06,19.78-15.24c-7.75,7.29-8.06,15.24-8.06,15.24Z" transform="translate(22.709 44.78)"/>
    <path id="Caminho_520" data-name="Caminho 520" class="cls-4" d="M67.47,382.4S64.71,367.61,84.56,360c-5.66,10.72.13,22.4.13,22.4Z" transform="translate(-19.62 43.914)"/>
    <path id="Caminho_521" data-name="Caminho 521" class="cls-4" d="M78.5,382.4s-5.6-12.08-25.87-18.3c10.33,8.75,11.8,18.3,11.8,18.3Z" transform="translate(-19.62 43.914)"/>
    <path id="Caminho_522" data-name="Caminho 522" class="cls-5" d="M145.2,382.4s-.73-12.1-14-16.48c5.92,6.2,5.58,16.48,5.58,16.48Z" transform="translate(-2.33 27.89)"/>
    <path id="Caminho_523" data-name="Caminho 523" class="cls-5" d="M261.2,382.4s-1.67-12-19.86-18.24a23.918,23.918,0,0,1,5.83,18.24Z"/>
    <path id="Caminho_524" data-name="Caminho 524" class="cls-5" d="M261.72,382.4s1.67-12,19.86-18.24a23.918,23.918,0,0,0-5.83,18.24Z" transform="translate(-2.33 27.89)"/>
    <path id="Caminho_525" data-name="Caminho 525" class="cls-5" d="M271.65,382.4s-1.22-20.22-23.36-27.56c9.9,10.37,9.33,27.56,9.33,27.56Z"/>
    <path id="Caminho_526" data-name="Caminho 526" class="cls-5" d="M396.58,382.4s-.85-5.23,10-8.94c-4.46,5.22-1.64,8.94-1.64,8.94Z" transform="translate(-2.33 27.89)"/>
    <path id="Caminho_527" data-name="Caminho 527" class="cls-5" d="M396.27,382.4s-1-7.2-11.87-10.91a14.286,14.286,0,0,1,3.48,10.91Z" transform="translate(-2.33 27.89)"/>
    <path id="Caminho_528" data-name="Caminho 528" class="cls-5" d="M390.34,382.4s.72-12.1,14-16.48c-5.91,6.2-5.58,16.48-5.58,16.48Z" transform="translate(-2.33 27.89)"/>
    <path id="Caminho_529" data-name="Caminho 529" class="cls-3" d="M435.42,104c-2.61-4.56-7.87-8.09-11.76-7.87a3.809,3.809,0,0,0-3.13,1.64c-7.1-5.68-15.27-9.17-22-8.79a11.549,11.549,0,0,0-7.94,3.27c-7.62-8.57-17.34-14.65-24.39-14.65-4,0-6.49,2-7.38,5.25-7.82-5.76-15.86-9.3-22.34-9.3-10.33,0-13.69,9-9.46,21.61-1.69,2.38-9.84,5.7-9.51,9.68H435.88C435.73,104.56,435.59,104.28,435.42,104Z"/>
    <path id="Caminho_530" data-name="Caminho 530" class="cls-3" d="M320.12,151.07a4.489,4.489,0,0,0-4,2.66c-9.67-9.26-20.58-14.94-29.36-14.31a13.159,13.159,0,0,0-10.16,5.34c-10.51-13.95-23.61-23.84-32.84-23.84-5.25,0-8.37,3.2-9.3,8.54-10.61-9.38-21.35-15.13-29.83-15.13-10.51,0-15.15,8.84-13.7,22.45-5.07-4-10-6.29-14.1-6.29-5.61,0-8.24,4.47-7.79,11.48a10.04,10.04,0,0,0-1.46.11c-8.57,1.17-11.85,10.23-7.73,20.59H335.39C331.54,155.83,324.92,150.73,320.12,151.07Z"/>
    <path id="Caminho_531" data-name="Caminho 531" class="cls-3" d="M149.61,107.49a2.192,2.192,0,0,0-2,1.3c-4.71-4.51-10-7.28-14.31-7a6.424,6.424,0,0,0-5,2.61h0c-5.13-6.8-11.52-11.62-16-11.62-2.56,0-4.09,1.56-4.54,4.16-5.17-4.58-10.41-7.38-14.54-7.38-5.13,0-7.39,4.31-6.69,11-2.47-1.93-4.89-3.07-6.87-3.07-2.73,0-4,2.18-3.79,5.6a5.766,5.766,0,0,0-.72,0c-4.17.57-5.78,5-3.77,10h85.59C155.18,109.82,152,107.33,149.61,107.49Z"/>
    <path id="Caminho_532" data-name="Caminho 532" class="cls-3" d="M256.055,427.56c110.427,0,208.833,3.912,208.833-2.34s-98.406-20.3-208.833-20.3S34.18,430.646,40.511,428.385,145.629,427.56,256.055,427.56Z" transform="translate(-2 0)"/>
    <path id="Caminho_533" data-name="Caminho 533" class="cls-6" d="M176.92,164.41h-9.54V416.24h9.54Z"/>
    <g id="Grupo_17" data-name="Grupo 17">
      <path id="Caminho_534" data-name="Caminho 534" class="cls-6" d="M176.92,164.41h-9.54v22.84h9.54Z"/>
    </g>
    <path id="Caminho_535" data-name="Caminho 535" class="cls-7" d="M201.54,78.07H142.77a11.11,11.11,0,0,0-11.11,11.11v80.69a11.11,11.11,0,0,0,11.11,11.11h58.77a11.11,11.11,0,0,0,11.11-11.11V89.18A11.11,11.11,0,0,0,201.54,78.07Z"/>
    <path id="Caminho_536" data-name="Caminho 536" class="cls-8" d="M201.54,78.07H142.77a11.11,11.11,0,0,0-11.11,11.11v80.69a11.11,11.11,0,0,0,11.11,11.11h58.77a11.11,11.11,0,0,0,11.11-11.11V89.18A11.11,11.11,0,0,0,201.54,78.07Z"/>
    <path id="Caminho_537" data-name="Caminho 537" class="cls-7" d="M208.49,169.85V89.18a6.96,6.96,0,0,0-6.96-6.96H142.77a6.96,6.96,0,0,0-6.96,6.96v80.67a6.96,6.96,0,0,0,6.96,6.96h58.76A6.96,6.96,0,0,0,208.49,169.85Z"/>
    <path id="Caminho_538" data-name="Caminho 538" class="cls-7" d="M151,132.34h8.14a4.427,4.427,0,0,1,3.12,1,3.262,3.262,0,0,1,1.09,2.5,3.149,3.149,0,0,1-.78,2.14,3.49,3.49,0,0,1-1.51.94,3.938,3.938,0,0,1,2.23,1.25,3.46,3.46,0,0,1,.71,2.23,3.86,3.86,0,0,1-.51,2,3.683,3.683,0,0,1-1.39,1.38,4.657,4.657,0,0,1-1.65.46c-1,.12-1.62.19-1.94.19H151Zm4.39,5.51h1.89a2.157,2.157,0,0,0,1.41-.35,1.253,1.253,0,0,0,.4-1,1.187,1.187,0,0,0-.4-1,2.1,2.1,0,0,0-1.38-.35H155.4Zm0,5.53h2.21a2.49,2.49,0,0,0,1.59-.4,1.374,1.374,0,0,0,.46-1.07,1.213,1.213,0,0,0-.46-1,2.48,2.48,0,0,0-1.6-.38h-2.2Z"/>
    <path id="Caminho_539" data-name="Caminho 539" class="cls-7" d="M174.93,132.34h4.34v8.37a7.074,7.074,0,0,1-.39,2.36,5.073,5.073,0,0,1-1.22,1.93,4.822,4.822,0,0,1-1.74,1.17,8.871,8.871,0,0,1-3,.47,20.2,20.2,0,0,1-2.24-.14,5.807,5.807,0,0,1-2-.58,4.808,4.808,0,0,1-1.49-1.21,4.458,4.458,0,0,1-.93-1.62,8.331,8.331,0,0,1-.4-2.38v-8.37h4.33v8.57a2.472,2.472,0,0,0,.64,1.8,2.741,2.741,0,0,0,3.53,0,2.444,2.444,0,0,0,.64-1.81Z"/>
    <path id="Caminho_540" data-name="Caminho 540" class="cls-7" d="M181.39,141.75l4.13-.26a3.083,3.083,0,0,0,.55,1.53,2.285,2.285,0,0,0,1.92.86,2.13,2.13,0,0,0,1.43-.44,1.26,1.26,0,0,0,0-2,5.573,5.573,0,0,0-2.22-.82,9.467,9.467,0,0,1-4.08-1.7,3.437,3.437,0,0,1-1.23-2.72,3.715,3.715,0,0,1,.63-2.05,4.146,4.146,0,0,1,1.89-1.51,8.775,8.775,0,0,1,3.46-.55,7.005,7.005,0,0,1,4.11,1,4.316,4.316,0,0,1,1.68,3.19l-4.09.24a2.159,2.159,0,0,0-.69-1.38,2.192,2.192,0,0,0-1.44-.44,1.693,1.693,0,0,0-1.14.33,1,1,0,0,0-.39.78.79.79,0,0,0,.32.6,3.469,3.469,0,0,0,1.46.52,18.191,18.191,0,0,1,4.08,1.24,4.286,4.286,0,0,1,1.79,1.56,3.905,3.905,0,0,1,.56,2.08,4.461,4.461,0,0,1-.74,2.5,4.737,4.737,0,0,1-2.1,1.73,8.475,8.475,0,0,1-3.38.59q-3.58,0-5-1.38a5.44,5.44,0,0,1-1.51-3.5Z"/>
    <path id="Caminho_541" data-name="Caminho 541" class="cls-7" d="M143.78,159.75l4.14-.25a3.087,3.087,0,0,0,.54,1.53,2.311,2.311,0,0,0,1.92.86,2.158,2.158,0,0,0,1.44-.44,1.319,1.319,0,0,0,.5-1,1.291,1.291,0,0,0-.48-1,5.551,5.551,0,0,0-2.23-.82,9.458,9.458,0,0,1-4.07-1.71,3.421,3.421,0,0,1-1.23-2.71,3.681,3.681,0,0,1,.63-2.05,4.14,4.14,0,0,1,1.89-1.51,8.744,8.744,0,0,1,3.46-.56,7.084,7.084,0,0,1,4.11,1,4.338,4.338,0,0,1,1.68,3.19l-4.1.24a2.163,2.163,0,0,0-.68-1.38,2.2,2.2,0,0,0-1.45-.44,1.774,1.774,0,0,0-1.14.32,1,1,0,0,0-.38.79.776.776,0,0,0,.31.6,3.583,3.583,0,0,0,1.46.52,18.515,18.515,0,0,1,4.09,1.24,4.346,4.346,0,0,1,1.79,1.56,4,4,0,0,1,.56,2.08,4.508,4.508,0,0,1-.75,2.5,4.712,4.712,0,0,1-2.09,1.73,8.523,8.523,0,0,1-3.39.59c-2.39,0-4-.46-5-1.38a5.458,5.458,0,0,1-1.53-3.5Z"/>
    <path id="Caminho_542" data-name="Caminho 542" class="cls-7" d="M157.74,150.34H171v3.48h-4.43v10.59h-4.35V153.82h-4.43Z"/>
    <path id="Caminho_543" data-name="Caminho 543" class="cls-7" d="M171.7,157.39a6.66,6.66,0,0,1,7.3-7.29,7.349,7.349,0,0,1,5.41,1.89,7.1,7.1,0,0,1,1.9,5.28,8.686,8.686,0,0,1-.83,4,5.874,5.874,0,0,1-2.4,2.46,8.007,8.007,0,0,1-3.91.88,9.1,9.1,0,0,1-3.94-.76,5.807,5.807,0,0,1-2.52-2.4,7.906,7.906,0,0,1-1.01-4.06Zm4.34,0a4.736,4.736,0,0,0,.79,3.06,3,3,0,0,0,4.33,0,5.188,5.188,0,0,0,.76-3.27,4.314,4.314,0,0,0-.8-2.9,2.729,2.729,0,0,0-2.17-.91,2.628,2.628,0,0,0-2.11.93,4.706,4.706,0,0,0-.84,3.1Z"/>
    <path id="Caminho_544" data-name="Caminho 544" class="cls-7" d="M188.59,150.34h7.22a4.929,4.929,0,0,1,3.54,1.13,4.212,4.212,0,0,1,1.17,3.19,4.319,4.319,0,0,1-1.28,3.33,5.531,5.531,0,0,1-3.91,1.2H193v5.22h-4.36Zm4.36,6H194a2.7,2.7,0,0,0,1.77-.44,1.421,1.421,0,0,0,.5-1.11,1.561,1.561,0,0,0-.44-1.13,2.32,2.32,0,0,0-1.66-.46H193Z"/>
    <path id="Caminho_545" data-name="Caminho 545" class="cls-7" d="M197.34,95.3H154.5a1.359,1.359,0,0,0-1.31,1L151,103.33a3.609,3.609,0,0,1-2.75,2.47l-1.35.27a1.641,1.641,0,0,0-1.32,1.61v7.06A1.36,1.36,0,0,0,147,116.1h7.44a6.07,6.07,0,0,1,12.14,0H184.8a6.08,6.08,0,0,1,12.15,0h.42a1.36,1.36,0,0,0,.523-.1,1.329,1.329,0,0,0,.445-.294,1.363,1.363,0,0,0,.4-.965V96.66a1.37,1.37,0,0,0-1.4-1.36Zm-29.18,8.4a1.251,1.251,0,0,1-1.24,1.25h-4.68A1.258,1.258,0,0,1,161,103.7V99a1.249,1.249,0,0,1,1.25-1.24h4.68A1.251,1.251,0,0,1,168.16,99Zm8.76,0a1.25,1.25,0,0,1-1.25,1.25H171a1.25,1.25,0,0,1-1.25-1.25V99A1.249,1.249,0,0,1,171,97.78h4.67A1.251,1.251,0,0,1,176.92,99Zm8.76,0a1.25,1.25,0,0,1-1.25,1.25h-4.67a1.25,1.25,0,0,1-1.25-1.25V99a1.249,1.249,0,0,1,1.25-1.24h4.67A1.251,1.251,0,0,1,185.68,99Zm8.76,0a1.25,1.25,0,0,1-1.25,1.25h-4.68a1.26,1.26,0,0,1-1.25-1.25V99a1.249,1.249,0,0,1,1.25-1.24h4.68A1.251,1.251,0,0,1,194.44,99Z"/>
    <path id="Caminho_546" data-name="Caminho 546" class="cls-7" d="M160.47,112.41a3.7,3.7,0,1,0,1.417.278,3.7,3.7,0,0,0-1.417-.278Z"/>
    <path id="Caminho_547" data-name="Caminho 547" class="cls-7" d="M190.85,112.41a3.71,3.71,0,1,0,2.61,1.083,3.7,3.7,0,0,0-2.61-1.083Z"/>
    <path id="Caminho_548" data-name="Caminho 548" class="cls-7" d="M208.49,169.85V89.18a6.96,6.96,0,0,0-6.96-6.96H142.77a6.96,6.96,0,0,0-6.96,6.96v80.67a6.96,6.96,0,0,0,6.96,6.96h58.76A6.96,6.96,0,0,0,208.49,169.85Z"/>
    <path id="Caminho_549" data-name="Caminho 549" class="cls-9" d="M151,132.34h8.14a4.427,4.427,0,0,1,3.12,1,3.262,3.262,0,0,1,1.09,2.5,3.149,3.149,0,0,1-.78,2.14,3.49,3.49,0,0,1-1.51.94,3.938,3.938,0,0,1,2.23,1.25,3.46,3.46,0,0,1,.71,2.23,3.86,3.86,0,0,1-.51,2,3.683,3.683,0,0,1-1.39,1.38,4.657,4.657,0,0,1-1.65.46c-1,.12-1.62.19-1.94.19H151Zm4.39,5.51h1.89a2.157,2.157,0,0,0,1.41-.35,1.253,1.253,0,0,0,.4-1,1.187,1.187,0,0,0-.4-1,2.1,2.1,0,0,0-1.38-.35H155.4Zm0,5.53h2.21a2.49,2.49,0,0,0,1.59-.4,1.374,1.374,0,0,0,.46-1.07,1.213,1.213,0,0,0-.46-1,2.48,2.48,0,0,0-1.6-.38h-2.2Z"/>
    <path id="Caminho_550" data-name="Caminho 550" class="cls-9" d="M174.93,132.34h4.34v8.37a7.074,7.074,0,0,1-.39,2.36,5.073,5.073,0,0,1-1.22,1.93,4.822,4.822,0,0,1-1.74,1.17,8.871,8.871,0,0,1-3,.47,20.2,20.2,0,0,1-2.24-.14,5.807,5.807,0,0,1-2-.58,4.808,4.808,0,0,1-1.49-1.21,4.458,4.458,0,0,1-.93-1.62,8.331,8.331,0,0,1-.4-2.38v-8.37h4.33v8.57a2.472,2.472,0,0,0,.64,1.8,2.741,2.741,0,0,0,3.53,0,2.444,2.444,0,0,0,.64-1.81Z"/>
    <path id="Caminho_551" data-name="Caminho 551" class="cls-9" d="M181.39,141.75l4.13-.26a3.083,3.083,0,0,0,.55,1.53,2.285,2.285,0,0,0,1.92.86,2.13,2.13,0,0,0,1.43-.44,1.26,1.26,0,0,0,0-2,5.573,5.573,0,0,0-2.22-.82,9.467,9.467,0,0,1-4.08-1.7,3.437,3.437,0,0,1-1.23-2.72,3.715,3.715,0,0,1,.63-2.05,4.146,4.146,0,0,1,1.89-1.51,8.775,8.775,0,0,1,3.46-.55,7.005,7.005,0,0,1,4.11,1,4.316,4.316,0,0,1,1.68,3.19l-4.09.24a2.159,2.159,0,0,0-.69-1.38,2.192,2.192,0,0,0-1.44-.44,1.693,1.693,0,0,0-1.14.33,1,1,0,0,0-.39.78.79.79,0,0,0,.32.6,3.469,3.469,0,0,0,1.46.52,18.191,18.191,0,0,1,4.08,1.24,4.286,4.286,0,0,1,1.79,1.56,3.905,3.905,0,0,1,.56,2.08,4.461,4.461,0,0,1-.74,2.5,4.737,4.737,0,0,1-2.1,1.73,8.475,8.475,0,0,1-3.38.59q-3.58,0-5-1.38a5.44,5.44,0,0,1-1.51-3.5Z"/>
    <path id="Caminho_552" data-name="Caminho 552" class="cls-9" d="M143.78,159.75l4.14-.25a3.087,3.087,0,0,0,.54,1.53,2.311,2.311,0,0,0,1.92.86,2.158,2.158,0,0,0,1.44-.44,1.319,1.319,0,0,0,.5-1,1.291,1.291,0,0,0-.48-1,5.551,5.551,0,0,0-2.23-.82,9.458,9.458,0,0,1-4.07-1.71,3.421,3.421,0,0,1-1.23-2.71,3.681,3.681,0,0,1,.63-2.05,4.14,4.14,0,0,1,1.89-1.51,8.744,8.744,0,0,1,3.46-.56,7.084,7.084,0,0,1,4.11,1,4.338,4.338,0,0,1,1.68,3.19l-4.1.24a2.163,2.163,0,0,0-.68-1.38,2.2,2.2,0,0,0-1.45-.44,1.774,1.774,0,0,0-1.14.32,1,1,0,0,0-.38.79.776.776,0,0,0,.31.6,3.583,3.583,0,0,0,1.46.52,18.515,18.515,0,0,1,4.09,1.24,4.346,4.346,0,0,1,1.79,1.56,4,4,0,0,1,.56,2.08,4.508,4.508,0,0,1-.75,2.5,4.712,4.712,0,0,1-2.09,1.73,8.523,8.523,0,0,1-3.39.59c-2.39,0-4-.46-5-1.38a5.458,5.458,0,0,1-1.53-3.5Z"/>
    <path id="Caminho_553" data-name="Caminho 553" class="cls-9" d="M157.74,150.34H171v3.48h-4.43v10.59h-4.35V153.82h-4.43Z"/>
    <path id="Caminho_554" data-name="Caminho 554" class="cls-9" d="M171.7,157.39a6.66,6.66,0,0,1,7.3-7.29,7.349,7.349,0,0,1,5.41,1.89,7.1,7.1,0,0,1,1.9,5.28,8.686,8.686,0,0,1-.83,4,5.874,5.874,0,0,1-2.4,2.46,8.007,8.007,0,0,1-3.91.88,9.1,9.1,0,0,1-3.94-.76,5.807,5.807,0,0,1-2.52-2.4,7.906,7.906,0,0,1-1.01-4.06Zm4.34,0a4.736,4.736,0,0,0,.79,3.06,3,3,0,0,0,4.33,0,5.188,5.188,0,0,0,.76-3.27,4.314,4.314,0,0,0-.8-2.9,2.729,2.729,0,0,0-2.17-.91,2.628,2.628,0,0,0-2.11.93,4.706,4.706,0,0,0-.84,3.1Z"/>
    <path id="Caminho_555" data-name="Caminho 555" class="cls-9" d="M188.59,150.34h7.22a4.929,4.929,0,0,1,3.54,1.13,4.212,4.212,0,0,1,1.17,3.19,4.319,4.319,0,0,1-1.28,3.33,5.531,5.531,0,0,1-3.91,1.2H193v5.22h-4.36Zm4.36,6H194a2.7,2.7,0,0,0,1.77-.44,1.421,1.421,0,0,0,.5-1.11,1.561,1.561,0,0,0-.44-1.13,2.32,2.32,0,0,0-1.66-.46H193Z"/>
    <path id="Caminho_556" data-name="Caminho 556" class="cls-9" d="M197.34,95.3H154.5a1.359,1.359,0,0,0-1.31,1L151,103.33a3.609,3.609,0,0,1-2.75,2.47l-1.35.27a1.641,1.641,0,0,0-1.32,1.61v7.06A1.36,1.36,0,0,0,147,116.1h7.44a6.07,6.07,0,0,1,12.14,0H184.8a6.08,6.08,0,0,1,12.15,0h.42a1.36,1.36,0,0,0,.523-.1,1.329,1.329,0,0,0,.445-.294,1.363,1.363,0,0,0,.4-.965V96.66a1.37,1.37,0,0,0-1.4-1.36Zm-29.18,8.4a1.251,1.251,0,0,1-1.24,1.25h-4.68A1.258,1.258,0,0,1,161,103.7V99a1.249,1.249,0,0,1,1.25-1.24h4.68A1.251,1.251,0,0,1,168.16,99Zm8.76,0a1.25,1.25,0,0,1-1.25,1.25H171a1.25,1.25,0,0,1-1.25-1.25V99A1.249,1.249,0,0,1,171,97.78h4.67A1.251,1.251,0,0,1,176.92,99Zm8.76,0a1.25,1.25,0,0,1-1.25,1.25h-4.67a1.25,1.25,0,0,1-1.25-1.25V99a1.249,1.249,0,0,1,1.25-1.24h4.67A1.251,1.251,0,0,1,185.68,99Zm8.76,0a1.25,1.25,0,0,1-1.25,1.25h-4.68a1.26,1.26,0,0,1-1.25-1.25V99a1.249,1.249,0,0,1,1.25-1.24h4.68A1.251,1.251,0,0,1,194.44,99Z"/>
    <path id="Caminho_557" data-name="Caminho 557" class="cls-9" d="M160.47,112.41a3.7,3.7,0,1,0,1.417.278,3.7,3.7,0,0,0-1.417-.278Z"/>
    <path id="Caminho_558" data-name="Caminho 558" class="cls-9" d="M190.85,112.41a3.71,3.71,0,1,0,2.61,1.083,3.7,3.7,0,0,0-2.61-1.083Z"/>
    <path id="Caminho_559" data-name="Caminho 559" class="cls-10" d="M345.51,353.21l-.82,5.82-4.45,57.21h-5.28l4.44-57.21.82-5.82Z"/>
    <path id="Caminho_560" data-name="Caminho 560" class="cls-10" d="M372.2,353.21l.82,5.82,4.44,57.21h5.28l-4.44-57.21-.82-5.82Z"/>
    <path id="Caminho_561" data-name="Caminho 561" class="cls-10" d="M119.1,353.21l-.83,5.82-4.44,57.21h-5.27l4.43-57.21.83-5.82Z"/>
    <path id="Caminho_562" data-name="Caminho 562" class="cls-10" d="M145.78,353.21l.82,5.82,4.46,57.21h5.28l-4.44-57.21-.83-5.82Z"/>
    <path id="Caminho_563" data-name="Caminho 563" class="cls-10" d="M152.95,295.09l-8.24,58.12-.82,5.82h-5.28l.82-5.82,8.24-58.12Z"/>
    <path id="Caminho_564" data-name="Caminho 564" class="cls-10" d="M379.35,295.09l-8.24,58.12-.82,5.82h-5.28l.82-5.82,8.24-58.12Z"/>
    <path id="Caminho_565" data-name="Caminho 565" class="cls-7" d="M380.21,343.58H138.23l4.5-16.18H384.7Z"/>
    <path id="Caminho_566" data-name="Caminho 566" class="cls-7" d="M374.69,343.58H132.71l4.49-16.18H379.18Z"/>
    <path id="Caminho_567" data-name="Caminho 567" class="cls-11" d="M380.21,343.58H138.23l4.5-16.18H384.7Z"/>
    <path id="Caminho_568" data-name="Caminho 568" class="cls-7" d="M386.95,303.18H144.97l4.5-16.18H391.44Z"/>
    <path id="Caminho_569" data-name="Caminho 569" class="cls-11" d="M386.95,303.18H144.97l4.5-16.18H391.44Z"/>
    <path id="Caminho_570" data-name="Caminho 570" class="cls-9" d="M381.43,303.18H139.45L143.94,287H385.92Z"/>
    <path id="Caminho_571" data-name="Caminho 571" class="cls-7" d="M381.43,303.18H139.45L143.94,287H385.92Z"/>
    <path id="Caminho_572" data-name="Caminho 572" class="cls-12" d="M381.43,303.18H139.45L143.94,287H385.92Z"/>
    <path id="Caminho_573" data-name="Caminho 573" class="cls-7" d="M383.58,323.37H141.6l4.5-16.19H388.07Z"/>
    <path id="Caminho_574" data-name="Caminho 574" class="cls-7" d="M378.06,323.37H136.08l4.49-16.19H382.55Z"/>
    <path id="Caminho_575" data-name="Caminho 575" class="cls-11" d="M383.58,323.37H141.6l4.5-16.19H388.07Z"/>
    <path id="Caminho_576" data-name="Caminho 576" class="cls-7" d="M378.06,323.37H136.08l4.49-16.19H382.55Z"/>
    <path id="Caminho_577" data-name="Caminho 577" class="cls-12" d="M378.06,323.37H136.08l4.49-16.19H382.55Z"/>
    <path id="Caminho_578" data-name="Caminho 578" class="cls-7" d="M374.69,343.58H132.71l4.49-16.18H379.18Z"/>
    <path id="Caminho_579" data-name="Caminho 579" class="cls-12" d="M374.69,343.58H132.71l4.49-16.18H379.18Z"/>
    <path id="Caminho_580" data-name="Caminho 580" class="cls-7" d="M351.61,353.21H110.7v5.82H351.61Z"/>
    <path id="Caminho_581" data-name="Caminho 581" class="cls-7" d="M351.61,353.21H110.7v5.82H351.61Z"/>
    <path id="Caminho_582" data-name="Caminho 582" class="cls-12" d="M351.61,353.21H110.7v5.82H351.61Z"/>
    <path id="Caminho_583" data-name="Caminho 583" class="cls-7" d="M384.71,353.21H351.6v5.82h33.11Z"/>
    <path id="Caminho_584" data-name="Caminho 584" class="cls-11" d="M384.71,353.21H351.6v5.82h33.11Z"/>
    <path id="Caminho_585" data-name="Caminho 585" class="cls-7" d="M199.52,415.64a2.131,2.131,0,0,1-1.39-.38,1,1,0,0,1-.31-.92.581.581,0,0,1,.33-.49c.83-.4,3.08,1,3.33,1.19a.193.193,0,0,1,.077.07.193.193,0,0,1,0,.2.193.193,0,0,1-.077.07,8.819,8.819,0,0,1-1.96.26Zm-1-1.5a.616.616,0,0,0-.21,0,.239.239,0,0,0-.13.2.657.657,0,0,0,.19.61,3.458,3.458,0,0,0,2.53.13,6.411,6.411,0,0,0-2.38-.94Z"/>
    <path id="Caminho_586" data-name="Caminho 586" class="cls-7" d="M201.38,415.38a.153.153,0,0,1-.09,0c-.71-.4-2.07-2-1.91-2.79a.58.58,0,0,1,.57-.48.931.931,0,0,1,.4.032.919.919,0,0,1,.344.2c.81.7.87,2.79.88,2.88a.186.186,0,0,1-.09.16A.156.156,0,0,1,201.38,415.38Zm-1.31-2.93H200c-.23,0-.25.13-.26.18-.09.47.74,1.64,1.44,2.19a4,4,0,0,0-.73-2.23A.552.552,0,0,0,200.07,412.45Z"/>
    <path id="Caminho_587" data-name="Caminho 587" class="cls-13" d="M202.4,418.64h7.23l.91-16.73h-7.23Z"/>
    <path id="Caminho_588" data-name="Caminho 588" class="cls-14" d="M202,414.36h8.12a.6.6,0,0,1,.59.5l1.09,6.42a1.136,1.136,0,0,1-.265.9,1.143,1.143,0,0,1-.385.287,1.123,1.123,0,0,1-.47.1c-2.84-.05-4.2-.22-7.78-.22-2.19,0-9.45.23-12.48.23s-3.28-3-2-3.27c5.63-1.22,10.53-2.9,12.4-4.5A1.837,1.837,0,0,1,202,414.36Z"/>
    <path id="Caminho_589" data-name="Caminho 589" class="cls-13" d="M271.88,275.6c-2.53,5.37-5.17,10.64-7.91,15.89s-5.56,10.45-8.56,15.62l-1.14,1.94-.29.49-.44.69c-.31.49-.6.82-.91,1.24a30.906,30.906,0,0,1-3.61,3.68,81.028,81.028,0,0,1-7.36,5.68,142.081,142.081,0,0,1-15.48,9.23l-3-4.55c4.46-3.73,9-7.5,13.25-11.31,2.12-1.9,4.21-3.85,6-5.8a27.915,27.915,0,0,0,2.34-2.83c.11-.2.29-.43.34-.57l.38-.74,1-1.94c5.16-10.4,10.2-21.06,15.48-31.51Z"/>
    <path id="Caminho_590" data-name="Caminho 590" class="cls-7" d="M274.9,270.36c2.11,6.47-11.22,25.51-11.22,25.51L249.63,288a93.542,93.542,0,0,1,9.23-16.92C264.37,263.48,272.6,263.27,274.9,270.36Z"/>
    <path id="Caminho_591" data-name="Caminho 591" class="cls-13" d="M223.45,325.36l-6.73,3.89,4.87,7.16s5.21-2.63,5.76-8Z"/>
    <path id="Caminho_592" data-name="Caminho 592" class="cls-13" d="M212.43,338.05l5.51-.55,3.65-1.09-4.87-7.16Z"/>
    <path id="Caminho_593" data-name="Caminho 593" class="cls-15" d="M203.31,401.91h7.23l-.48,8.63h-7.23Z"/>
    <path id="Caminho_594" data-name="Caminho 594" class="cls-13" d="M268.98,418.64h-7.23l-5.28-16.73h7.23Z"/>
    <path id="Caminho_595" data-name="Caminho 595" class="cls-14" d="M260.4,414.36h8.12a.591.591,0,0,1,.59.5l1.1,6.42a1.14,1.14,0,0,1-1.13,1.29c-2.83-.05-4.2-.22-7.77-.22-2.2,0-9.45.23-12.49.23s-3.27-3-2-3.27c5.63-1.22,10.53-2.9,12.39-4.5a1.858,1.858,0,0,1,1.19-.45Z"/>
    <path id="Caminho_596" data-name="Caminho 596" class="cls-15" d="M263.7,401.91h-7.23l2.73,8.63h7.23Z"/>
    <path id="Caminho_597" data-name="Caminho 597" class="cls-7" d="M258,415.64a2.158,2.158,0,0,1-1.4-.38,1,1,0,0,1-.31-.92.59.59,0,0,1,.33-.49c.84-.4,3.09,1,3.34,1.19a.2.2,0,0,1,.066.084.2.2,0,0,1,.014.106.188.188,0,0,1-.14.15,8.766,8.766,0,0,1-1.9.26Zm-1-1.5a.675.675,0,0,0-.22,0,.216.216,0,0,0-.089.083.218.218,0,0,0-.031.117.657.657,0,0,0,.19.61,3.442,3.442,0,0,0,2.52.13,6.381,6.381,0,0,0-2.37-.94Z"/>
    <path id="Caminho_598" data-name="Caminho 598" class="cls-7" d="M259.82,415.38a.153.153,0,0,1-.09,0c-.71-.4-2.08-2-1.92-2.79a.6.6,0,0,1,.58-.48.928.928,0,0,1,.74.23c.8.7.87,2.79.87,2.88a.186.186,0,0,1-.09.16.153.153,0,0,1-.09,0Zm-1.31-2.93h-.08c-.22,0-.25.13-.26.18-.09.47.75,1.64,1.44,2.19a3.935,3.935,0,0,0-.72-2.23A.569.569,0,0,0,258.51,412.45Z"/>
    <path id="Caminho_599" data-name="Caminho 599" class="cls-13" d="M305.1,267.77c1.35.27,2.49.55,3.7.88s2.37.67,3.55,1q3.52,1.091,7,2.49c2.29.92,4.55,1.95,6.78,3.11,1.12.56,2.22,1.18,3.31,1.81.54.32,1.08.67,1.62,1l.81.51a6.1,6.1,0,0,1,.76.52,10.854,10.854,0,0,1,.88.78,8.19,8.19,0,0,1,2,3.75,10.142,10.142,0,0,1,.24,3.14,17.879,17.879,0,0,1-1,4.58,39.545,39.545,0,0,1-3.36,7,76.852,76.852,0,0,1-8.64,11.81l-4.44-3.12c2.06-4,4.09-8.24,5.75-12.32a38.168,38.168,0,0,0,1.94-6,8.628,8.628,0,0,0,.25-2.33c0-.26-.09-.41-.1-.34a1.248,1.248,0,0,0,.37.71,1,1,0,0,0,.21.2c0,.05.23.16,0,.05l-.72-.36-1.44-.72c-1-.45-2-.92-3-1.34-2-.87-4.07-1.65-6.16-2.39s-4.2-1.42-6.34-2.06c-1.07-.32-2.14-.64-3.21-.93l-3.12-.82Z"/>
    <path id="Caminho_600" data-name="Caminho 600" class="cls-13" d="M317.56,307.3l-4.38,5.82,9,.62s3-5.87-.17-7.19Z"/>
    <path id="Caminho_601" data-name="Caminho 601" class="cls-13" d="M313.69,321.27l7.48.15,1.04-7.68-9.03-.62Z"/>
    <path id="Caminho_602" data-name="Caminho 602" class="cls-7" d="M262.92,327.89s-50-1.72-56.68,18.17c-7.33,21.77-5.8,62.11-5.8,62.11H213s4.83-28.79,8.14-43.39c3.44-15.16,52.26-8.27,58.46-13.81,4.95-4.42,7.45-11.9,8.11-23.08Z"/>
    <path id="Caminho_603" data-name="Caminho 603" class="cls-16" d="M262.92,327.89s-50-1.72-56.68,18.17c-7.33,21.77-5.8,62.11-5.8,62.11H213s4.83-28.79,8.14-43.39c3.44-15.16,52.26-8.27,58.46-13.81,4.95-4.42,7.45-11.9,8.11-23.08Z"/>
    <path id="Caminho_604" data-name="Caminho 604" class="cls-7" d="M276.63,327.89S227.56,330.41,231,351.1c3.76,22.66,24.92,57.07,24.92,57.07h12.63s-8.62-33.08-12.61-47.5c-2.75-10,31.33-4.16,37.53-9.7,4.95-4.42,7.45-11.9,8.11-23.08Z"/>
    <path id="Caminho_605" data-name="Caminho 605" class="cls-17" d="M276.63,327.89S227.56,330.41,231,351.1c3.76,22.66,24.92,57.07,24.92,57.07h12.63s-8.62-33.08-12.61-47.5c-2.75-10,31.33-4.16,37.53-9.7,4.95-4.42,7.45-11.9,8.11-23.08Z"/>
    <path id="Caminho_606" data-name="Caminho 606" class="cls-7" d="M213.81,408.47H199.6l-.39-4.5,15.52.4Z"/>
    <path id="Caminho_607" data-name="Caminho 607" class="cls-7" d="M269.3,408.47H255.09l-2.76-4.5h16.88Z"/>
    <path id="Caminho_608" data-name="Caminho 608" class="cls-7" d="M275.08,271.18c-2.77-1.34-6-.22-9.47,5.12s-6.5,14.27-6.86,16.82l4.93,2.75S276,278.29,275.08,271.18Z"/>
    <path id="Caminho_609" data-name="Caminho 609" class="cls-11" d="M275.08,271.18c-2.77-1.34-6-.22-9.47,5.12s-6.5,14.27-6.86,16.82l4.93,2.75S276,278.29,275.08,271.18Z"/>
    <path id="Caminho_610" data-name="Caminho 610" class="cls-7" d="M307.09,265c-.24.93-.47,1.86-.68,2.79v.08a168.26,168.26,0,0,0-3.34,20c-2.11,19.32-1.06,35.69-1.47,40H262.92c-6-40.65,3.66-62.47,3.66-62.47s3.23-.88,7.33-1.52c1.24-.2,2.56-.37,3.89-.49a140.713,140.713,0,0,1,16.43,0c1.18.06,2.37.15,3.52.26C302.75,264.16,307.09,265,307.09,265Z"/>
    <path id="Caminho_611" data-name="Caminho 611" class="cls-9" d="M297.75,263.67l-1.09,1.5c-.21.29-5.23,7.05-15.8,8.95l-.94.17-.87-.41c-3.33-1.57-5.23-3.68-5.64-6.26a6.636,6.636,0,0,1,.5-3.72c1.24-.2,2.56-.37,3.89-.49a140.713,140.713,0,0,1,16.43,0C295.41,263.47,296.6,263.56,297.75,263.67Z"/>
    <path id="Caminho_612" data-name="Caminho 612" class="cls-9" d="M276.46,296.66a3.552,3.552,0,0,1-2.55-1.11c-1.43-1.43-2.12-4-1.84-7,.45-4.7,3.14-8.6,6.14-8.87a3.512,3.512,0,0,1,2.86,1.09c1.43,1.44,2.12,4,1.84,7-.45,4.71-3.14,8.61-6.13,8.88Zm2.07-16h-.23c-2.45.22-4.84,3.88-5.23,8-.25,2.6.35,5,1.55,6.18a2.513,2.513,0,0,0,2.07.8c2.44-.22,4.84-3.87,5.23-8,.24-2.6-.35-5-1.56-6.18a2.523,2.523,0,0,0-1.83-.78Z"/>
    <path id="Caminho_613" data-name="Caminho 613" class="cls-13" d="M293.56,244.91c-1.31,5.28-2.84,15,.67,18.5,0,0-4.4,6-13.9,7.76-7.16-3.38-2.53-7.76-2.53-7.76,6-1.41,6-5.78,5.23-9.89Z"/>
    <path id="Caminho_614" data-name="Caminho 614" class="cls-15" d="M289.27,248.42,283,253.51a16.4,16.4,0,0,1,.36,2.92c2.27-.32,5.49-2.8,5.85-5.16A8.006,8.006,0,0,0,289.27,248.42Z"/>
    <path id="Caminho_615" data-name="Caminho 615" class="cls-14" d="M277.6,228.64c-3.64,1.51-6.09,11.48-1.66,13.77S284.48,225.79,277.6,228.64Z"/>
    <path id="Caminho_616" data-name="Caminho 616" class="cls-13" d="M294.6,237c-.81,7.16-.92,11.37-4.73,15.05a9.27,9.27,0,0,1-15.73-4.9c-1.2-6.44.32-17.06,7.48-19.91A9.31,9.31,0,0,1,294.6,237Z"/>
    <path id="Caminho_617" data-name="Caminho 617" class="cls-14" d="M289,221.28c3.92-2.47,9.91,0,8.7,3.37-1.94,5.45,3.05.22,3,6.67,0,4.21-4.75,14.19-7.75,13.93s-4.15-5.57-2.33-11.47c1.36-4.44-2.39-2.69-7.84-2.15-11.06,1.08-18.67-13.41-5.94-12.63,12.31.75,11-6,11-6s4.43,7.24-2.56,7.27S280.87,226.39,289,221.28Z"/>
    <path id="Caminho_618" data-name="Caminho 618" class="cls-13" d="M297.43,244.84a7.29,7.29,0,0,1-4.41,3c-2.36.51-3.28-1.61-2.41-3.74.78-1.92,2.95-4.5,5.22-4.06S298.69,243,297.43,244.84Z"/>
    <path id="Caminho_619" data-name="Caminho 619" class="cls-14" d="M295.74,226.78a6.219,6.219,0,0,0,4.65-3.2S300.58,229.25,295.74,226.78Z"/>
    <path id="Caminho_620" data-name="Caminho 620" class="cls-14" d="M283.64,239c0,.58-.37,1.05-.75,1.05s-.66-.47-.63-1.05.36-1.06.74-1.06S283.67,238.37,283.64,239Z"/>
    <path id="Caminho_621" data-name="Caminho 621" class="cls-14" d="M277.05,239c0,.58-.37,1.05-.75,1.05s-.66-.47-.63-1.05.36-1.06.74-1.06S277.08,238.37,277.05,239Z"/>
    <path id="Caminho_622" data-name="Caminho 622" class="cls-18" d="M279.13,239.24a22.327,22.327,0,0,1-3.05,5,3.3,3.3,0,0,0,2.76.52Z"/>
    <path id="Caminho_623" data-name="Caminho 623" class="cls-14" d="M280.47,246.36a.171.171,0,0,1-.17-.17.155.155,0,0,1,.01-.067.158.158,0,0,1,.036-.056.16.16,0,0,1,.057-.037.168.168,0,0,1,.067-.01,4.919,4.919,0,0,0,3.86-1.81.18.18,0,0,1,.24-.05.169.169,0,0,1,0,.24,5.139,5.139,0,0,1-4.1,1.96Z"/>
    <path id="Caminho_624" data-name="Caminho 624" class="cls-14" d="M285.75,236.82a.352.352,0,0,1-.28-.14,2.611,2.611,0,0,0-2.12-1.14.321.321,0,0,1-.255-.071.312.312,0,0,1-.084-.107.332.332,0,0,1-.031-.132.351.351,0,0,1,.32-.37,3.24,3.24,0,0,1,2.73,1.42.35.35,0,0,1-.08.48.364.364,0,0,1-.2.06Z"/>
    <path id="Caminho_625" data-name="Caminho 625" class="cls-14" d="M274.3,236.69a.431.431,0,0,1-.16,0,.35.35,0,0,1-.14-.47,3.561,3.561,0,0,1,2.54-1.91.344.344,0,0,1,.25.067.337.337,0,0,1,.13.223.349.349,0,0,1-.29.39,2.861,2.861,0,0,0-2,1.56.337.337,0,0,1-.146.115.341.341,0,0,1-.184.025Z"/>
    <path id="Caminho_626" data-name="Caminho 626" class="cls-7" d="M306.41,267.77v.14a168.258,168.258,0,0,0-3.34,20c-4.21-5.93-5.45-12.13-4.71-16C299.17,267.63,303.88,267.51,306.41,267.77Z"/>
    <path id="Caminho_627" data-name="Caminho 627" class="cls-11" d="M306.41,267.77v.14a168.258,168.258,0,0,0-3.34,20c-4.21-5.93-5.45-12.13-4.71-16C299.17,267.63,303.88,267.51,306.41,267.77Z"/>
    <path id="Caminho_628" data-name="Caminho 628" class="cls-7" d="M300,265.67c5.28-4.38,24.53,5.95,24.53,5.95l-11.34,14.21s-2-.45-10-4.05C294.8,278,294.33,270.36,300,265.67Z"/>
    <path id="Caminho_629" data-name="Caminho 629" class="cls-7" d="M195.17,332.67l-1.42,20.54H183.42l-.28-4.07-.86-12.4-.28-4.07Z"/>
    <path id="Caminho_630" data-name="Caminho 630" class="cls-19" d="M195.17,332.67l-1.42,20.54H183.42l-.28-4.07-.86-12.4-.28-4.07Z"/>
    <path id="Caminho_631" data-name="Caminho 631" class="cls-1" d="M196.3,332H180.88v1.33H196.3Z"/>
    <path id="Caminho_632" data-name="Caminho 632" class="cls-3" d="M195.35,330.67H181.82V332h13.53Z"/>
    <path id="Caminho_633" data-name="Caminho 633" class="cls-3" d="M188,336.74v12.4h-4.99l-.85-12.4Z"/>
  </g>
</svg>
