<svg xmlns="http://www.w3.org/2000/svg" xmlns:xlink="http://www.w3.org/1999/xlink" width="341.714" height="316.229" viewBox="0 0 341.714 316.229">
  <defs>
    <clipPath id="clip-path">
      <path id="Caminho_928" data-name="Caminho 928" d="M211.685,332.293a42.375,42.375,0,0,0-7.364-1.161c-.8-2.954-13.036-2.449-30.466-5.049s-27.158-.993-27.158-.993c-5.134-4.839-14.055,4.326-14.543,5.891s2.76,1.683,2.76,1.683a2.457,2.457,0,0,1-2.752.623,1.473,1.473,0,0,0-1.624.05s-13.1-6.876-11.143-9.762c2.323-3.417,16.175-12.548,16.175-12.548-.766-6.472-6.859-4.974-6.859-4.974C114.473,313.146,107.9,318.97,107.9,324.2c0,10.444,23.75,24.751,23.75,24.751,5.007,6.287,11.488,4.124,11.488,4.124s28.892,6.632,51.859,6.674c7.793,0,13.179-.5,17.143-1.405C213.907,346.625,213,337.965,211.685,332.293Z" transform="translate(-107.9 -305.902)" fill="#3264a8" stroke="#263238" stroke-linecap="round" stroke-linejoin="round" stroke-width="1"/>
    </clipPath>
    <clipPath id="clip-path-2">
      <path id="Caminho_971" data-name="Caminho 971" d="M193.336,320.088c-4.763-1.75-24.524,3.1-29.237,3.215s-10.1,3.972-10.1,3.972,9.762-1.683,27.183.959c1.624.244,3.181.454,4.7.656l2.011-.656,3.93,3.871a4.463,4.463,0,0,1,6.775-1.212C198.731,326.762,198.1,321.839,193.336,320.088Z" transform="translate(-154 -319.708)" fill="#3264a8" stroke="#263238" stroke-linecap="round" stroke-linejoin="round" stroke-width="1"/>
    </clipPath>
    <clipPath id="clip-path-3">
      <path id="Caminho_982" data-name="Caminho 982" d="M362.019,159.515c0-17.505-19.129-31.7-42.728-31.7a54.7,54.7,0,0,0-19.92,3.661,17.312,17.312,0,0,0,3.324-9.956c0-14.358-19.55-26-43.662-26-14.736,0-27.773,4.359-35.658,11.016a58.305,58.305,0,0,0-23.868-4.848c-22.588,0-40.91,11.538-40.91,25.761a16.9,16.9,0,0,0,1.145,6.051c-28.614.328-51.733,16.386-51.733,36.188,0,18.894,21.04,34.387,47.971,36.029,2.028,16.5,26.931,29.557,57.338,29.557,19.887,0,37.409-5.58,47.735-14.046a95.335,95.335,0,0,0,20,2.079c31.139,0,56.387-14.307,56.387-32.056a18.625,18.625,0,0,0-.244-2.912C351.836,183.29,362.019,172.29,362.019,159.515Z" transform="translate(-108.01 -95.52)" fill="#fff" stroke="#263238" stroke-linecap="round" stroke-linejoin="round" stroke-width="1"/>
    </clipPath>
    <clipPath id="clip-path-4">
      <path id="Caminho_987" data-name="Caminho 987" d="M149.13,219.629s59.433,4.578,79.4.093c0,0,31.98,3.855,40.531-.959,0,0,29.961,1.3,30.954-3.223,0,0,17.387,1.557,18.667-1.414,0,0,17.556.993,25.18-3.105Z" transform="translate(-149.13 -211.02)" fill="#3264a8" stroke="#263238" stroke-linecap="round" stroke-linejoin="round" stroke-width="1"/>
    </clipPath>
    <clipPath id="clip-path-5">
      <path id="Caminho_992" data-name="Caminho 992" d="M212.78,127.891a19.617,19.617,0,0,0-2.146.126c-.766-2.575-4.359-4.528-8.685-4.528h-.959a16.159,16.159,0,0,0-7-1.49c-5.992,0-10.848,2.811-10.848,6.287a3.586,3.586,0,0,0,.2,1.187h-.934c-3.762,0-6.817,1.506-6.817,3.366s3.055,3.366,6.817,3.366H212.78c4.864,0,8.8-1.86,8.8-4.149S217.644,127.891,212.78,127.891Z" transform="translate(-175.59 -121.998)" fill="#3264a8"/>
    </clipPath>
    <clipPath id="clip-path-6">
      <path id="Caminho_995" data-name="Caminho 995" d="M376.545,146.08a18.26,18.26,0,0,0-2.18.135c-.774-2.609-4.41-4.587-8.786-4.587h-.968a16.361,16.361,0,0,0-7.078-1.5c-6.068,0-10.941,2.845-10.941,6.354a3.88,3.88,0,0,0,.2,1.2h-.943c-3.8,0-6.893,1.523-6.893,3.366s3.089,3.366,6.893,3.366h30.735c4.915,0,8.9-1.877,8.9-4.208S381.46,146.08,376.545,146.08Z" transform="translate(-338.96 -140.128)" fill="#3264a8"/>
    </clipPath>
    <clipPath id="clip-path-7">
      <path id="Caminho_998" data-name="Caminho 998" d="M261.6,123.935a22.318,22.318,0,0,0-5.336.623,4.023,4.023,0,0,0,.513-1.927c0-3.19-3.9-5.773-8.694-5.773a11.21,11.21,0,0,0-6.211,1.734c-1.742-3.425-7.086-5.891-13.407-5.891-7.743,0-14.012,3.728-14.012,8.323a5.521,5.521,0,0,0,1.069,3.2,16.722,16.722,0,0,0-2.962-.261c-5.327,0-9.653,2.415-9.653,5.386s4.326,5.386,9.653,5.386H261.6c6.3,0,11.42-2.407,11.42-5.386S267.906,123.935,261.6,123.935Z" transform="translate(-202.91 -112.7)" fill="#3264a8"/>
    </clipPath>
    <clipPath id="clip-path-8">
      <path id="Caminho_1001" data-name="Caminho 1001" d="M282.546,137.856a11.783,11.783,0,0,0-2.878.337,2.2,2.2,0,0,0,.278-1.044c0-1.683-2.1-3.114-4.688-3.114a6.068,6.068,0,0,0-3.366.934c-.943-1.843-3.821-3.19-7.229-3.19-4.208,0-7.574,2.011-7.574,4.486a2.937,2.937,0,0,0,.581,1.683,9.78,9.78,0,0,0-1.607-.135c-2.87,0-5.2,1.3-5.2,2.9s2.331,2.9,5.2,2.9h26.451c3.366,0,6.16-1.3,6.16-2.9S285.946,137.856,282.546,137.856Z" transform="translate(-250.86 -131.78)" fill="#3264a8"/>
    </clipPath>
    <clipPath id="clip-path-9">
      <path id="Caminho_1005" data-name="Caminho 1005" d="M274.031,184.249c-1.288-5.05-2.853-7.515-4.031-8.719l-14.879,2.853a63.116,63.116,0,0,1-6.884,2.525,71.229,71.229,0,0,1-8.416.4l2.39,17.051c11.9.774,14.105-4.157,17.808-7.221C262.013,189.475,269.015,186.37,274.031,184.249Z" transform="translate(-239.82 -175.53)" fill="#3264a8" stroke="#263238" stroke-linecap="round" stroke-linejoin="round" stroke-width="1"/>
    </clipPath>
    <clipPath id="clip-path-10">
      <path id="Caminho_1009" data-name="Caminho 1009" d="M189.356,174.051a57.658,57.658,0,0,0,3.922-8.744c1.052-3.089.892-6.388,2.609-8.786,0,0-1.262,2.07-6.489,4.738-4.149,2.129-9.712,5.841-9.712,5.841l-1.986-4.46s20.383-16.546,23.354-14.105c3.467,2.845-2.188,24.5-2.188,24.5Z" transform="translate(-177.7 -148.288)" fill="#fff" stroke="#263238" stroke-linecap="round" stroke-linejoin="round" stroke-width="1"/>
    </clipPath>
    <clipPath id="clip-path-11">
      <path id="Caminho_1013" data-name="Caminho 1013" d="M267.215,155.816c-6.463.741-30.365,23.8-30.365,23.8-16.832-4.721-18.035-3.156-24.044-4.208-5.454-.943-9.754-4.3-22.033-2.239a21.688,21.688,0,0,0-5.815,1.683l-.564-.227s3.122-4.208,3.24-4.688-6.531-4.208-6.531-4.208.286-1.818-.1-2.037c-.724-.412-1.54-.379-3.265-.269a17.93,17.93,0,0,1-5.05-1.086s-2.525,3.24-2.676,3.594-1.961,2.525-2.112,2.777,3.232,8.34,7.389,8.483c3.181.109,5.5,1.33,5.891,2.264a3.956,3.956,0,0,1,.32,1.683s41.314,21.107,58.642,12.043c3.812-1.995,6.733-6.909,9.948-9.594a116.5,116.5,0,0,0,18.406-19.441c5.891,5.487,24.953,13.171,24.953,13.171l3-4.721S273.679,155.075,267.215,155.816Z" transform="translate(-167.894 -155.793)" fill="#fff" stroke="#263238" stroke-linecap="round" stroke-linejoin="round" stroke-width="1"/>
    </clipPath>
    <clipPath id="clip-path-12">
      <path id="Caminho_1031" data-name="Caminho 1031" d="M264.063,167.21c-7.936,6.615-15.822,14.214-15.822,14.214-2.735-.766-5.05-1.363-7.044-1.835.135,2.331.555,12.2-1.4,17.673,4.469.067,8.517-.572,11.74-2.255,3.812-1.995,6.733-6.909,9.948-9.586A117.914,117.914,0,0,0,272.5,174.86a16.7,16.7,0,0,0-8.441-7.65Z" transform="translate(-239.8 -167.21)" fill="#3264a8" stroke="#263238" stroke-linecap="round" stroke-linejoin="round" stroke-width="1"/>
    </clipPath>
    <clipPath id="clip-path-13">
      <path id="Caminho_1034" data-name="Caminho 1034" d="M264.063,167.21c-7.936,6.615-15.822,14.214-15.822,14.214-2.735-.766-5.05-1.363-7.044-1.835.135,2.331.555,12.2-1.4,17.673,4.469.067,8.517-.572,11.74-2.255,3.812-1.995,6.733-6.909,9.948-9.586A117.914,117.914,0,0,0,272.5,174.86a16.7,16.7,0,0,0-8.441-7.65Z" transform="translate(-239.8 -167.21)" fill="none"/>
    </clipPath>
    <clipPath id="clip-path-14">
      <path id="Caminho_1039" data-name="Caminho 1039" d="M155.48,167.944s34.505,23.7,78.664,23.026c24.659-.379,52.33-12.1,78.664-30.76C312.807,160.21,237.99,272.647,155.48,167.944Z" transform="translate(-155.48 -160.21)" fill="#3264a8" stroke="#263238" stroke-linecap="round" stroke-linejoin="round" stroke-width="1"/>
    </clipPath>
    <clipPath id="clip-path-15">
      <path id="Caminho_1048" data-name="Caminho 1048" d="M97.665,75.024S86.741,78.053,79.63,83.1c0,0,4.974,1.742,30.743-3.838,0,0-15.99,7.852-15.216,10.234s23.068-5.639,23.068-5.639-12.136,7.473-10.848,9.569,17.673-5.647,17.673-5.647-10.276,7.692-8.811,9.7,15.039-5.849,15.039-5.849-7.785,7.911-6.859,9.333,13.221-7.095,13.221-7.095a34.337,34.337,0,0,0-14.98-17.825,32.746,32.746,0,0,0-25-1.018Z" transform="translate(-79.63 -73.025)" fill="#3264a8" stroke="#263238" stroke-linecap="round" stroke-linejoin="round" stroke-width="1"/>
    </clipPath>
    <clipPath id="clip-path-16">
      <path id="Caminho_1053" data-name="Caminho 1053" d="M116.342,57.581s-11.176-1.927-19.752-.438c0,0,3.754,3.7,29.456,9.7,0,0-17.774.269-18.128,2.735s23.262,4.772,23.262,4.772-14.164,1.565-13.895,4.014S135.623,80.8,135.623,80.8s-12.573,2.525-12.111,4.991,16.142,1.2,16.142,1.2-10.427,3.8-10.192,5.5,14.98-.757,14.98-.757A34.37,34.37,0,0,0,138.552,69.2,32.73,32.73,0,0,0,116.342,57.581Z" transform="translate(-96.59 -56.579)" fill="#3264a8" stroke="#263238" stroke-linecap="round" stroke-linejoin="round" stroke-width="1"/>
    </clipPath>
    <clipPath id="clip-path-17">
      <path id="Caminho_1058" data-name="Caminho 1058" d="M190.856,64.827s11.345.109,19.508,3.114c0,0-4.351,2.971-30.684,4.258,0,0,17.446,3.451,17.354,5.942s-23.75.522-23.75.522,13.659,4.082,12.961,6.438-18.515-.842-18.515-.842,11.917,4.763,11.025,7.078-16.091-1.683-16.091-1.683,9.569,5.622,9.039,7.238-14.6-3.434-14.6-3.434a34.345,34.345,0,0,1,9.847-21.1,32.771,32.771,0,0,1,23.91-7.532Z" transform="translate(-157.1 -64.702)" fill="#3264a8" stroke="#263238" stroke-linecap="round" stroke-linejoin="round" stroke-width="1"/>
    </clipPath>
    <clipPath id="clip-path-18">
      <path id="Caminho_1063" data-name="Caminho 1063" d="M203.792,84.252s10.276,4.747,16.52,10.84c0,0-5.193.917-29.733-8.7,0,0,14.492,10.3,13.381,12.54s-21.881-9.258-21.881-9.258,10.781,9.316,9.173,11.176-16.5-8.416-16.5-8.416,8.912,9.258,7.145,10.941-13.97-8.163-13.97-8.163,6.43,9.047,5.285,10.3S161.3,96.4,161.3,96.4a34.362,34.362,0,0,1,17.673-15.208,32.772,32.772,0,0,1,24.819,3.063Z" transform="translate(-161.3 -80.013)" fill="#3264a8" stroke="#263238" stroke-linecap="round" stroke-linejoin="round" stroke-width="1"/>
    </clipPath>
    <clipPath id="clip-path-19">
      <path id="Caminho_1074" data-name="Caminho 1074" d="M391.039,86.3s11.067,3.089,18.271,8.172c0,0-5.05,1.759-31.139-3.888,0,0,16.159,7.953,15.41,10.36s-23.363-5.714-23.363-5.714,12.287,7.574,10.983,9.7-17.842-5.731-17.842-5.731,10.4,7.785,8.921,9.813-15.292-5.891-15.292-5.891,7.894,8,6.952,9.451-13.39-7.2-13.39-7.2A34.817,34.817,0,0,1,365.7,87.325a33.192,33.192,0,0,1,25.34-1.027Z" transform="translate(-350.55 -84.269)" fill="#3264a8" stroke="#263238" stroke-linecap="round" stroke-linejoin="round" stroke-width="1"/>
    </clipPath>
    <clipPath id="clip-path-20">
      <path id="Caminho_1079" data-name="Caminho 1079" d="M374.048,68.639s11.328-1.952,20-.446c0,0-3.8,3.754-29.792,9.821,0,0,18,.269,18.355,2.769s-23.565,4.831-23.565,4.831S373.4,87.2,373.13,89.678s-18.582,2.474-18.582,2.474,12.733,2.584,12.27,5.05-16.352,1.212-16.352,1.212,10.562,3.854,10.326,5.563-15.149-.766-15.149-.766A34.783,34.783,0,0,1,351.628,80.4a33.159,33.159,0,0,1,22.42-11.765Z" transform="translate(-345.506 -67.622)" fill="#3264a8" stroke="#263238" stroke-linecap="round" stroke-linejoin="round" stroke-width="1"/>
    </clipPath>
    <clipPath id="clip-path-21">
      <path id="Caminho_1084" data-name="Caminho 1084" d="M297.572,75.976s-11.488.109-19.752,3.156c0,0,4.4,3,31.072,4.309,0,0-17.673,3.493-17.572,6.017s24.053.53,24.053.53-13.836,4.132-13.12,6.522,18.717-.9,18.717-.9-12.068,4.822-11.16,7.17,16.293-1.742,16.293-1.742-9.7,5.689-9.157,7.33,14.8-3.476,14.8-3.476A34.859,34.859,0,0,0,321.734,83.55a33.175,33.175,0,0,0-24.162-7.574Z" transform="translate(-277.82 -75.848)" fill="#3264a8" stroke="#263238" stroke-linecap="round" stroke-linejoin="round" stroke-width="1"/>
    </clipPath>
    <clipPath id="clip-path-22">
      <path id="Caminho_1089" data-name="Caminho 1089" d="M283.381,95.649s-10.436,4.814-16.731,10.941c0,0,5.252.934,30.112-8.811,0,0-14.677,10.436-13.558,12.691s22.151-9.308,22.151-9.308S294.414,110.6,296.1,112.49,312.8,104,312.8,104s-9.03,9.342-7.246,11.117,14.156-8.273,14.156-8.273-6.514,9.165-5.353,10.436,12.068-9.258,12.068-9.258a34.8,34.8,0,0,0-17.859-15.4,33.2,33.2,0,0,0-25.189,3.03Z" transform="translate(-266.65 -91.396)" fill="#3264a8" stroke="#263238" stroke-linecap="round" stroke-linejoin="round" stroke-width="1"/>
    </clipPath>
  </defs>
  <g id="Dreamer-bro" transform="translate(-47.143 -55.77)">
    <g id="freepik--background-simple--inject-85" transform="translate(47.142 120.394)">
      <path id="Caminho_904" data-name="Caminho 904" d="M237.087,363.4S61.3,375.613,48.688,305.643c-10.1-55.949,77.7-27.773,87.357-59.122s-56.387-89.933,6.733-110.661S202.464,195.866,244,198.98s67.4-70.87,110.122-31.669c49.225,45.143-49.225,72.074-36.887,100.991s81.306-.707,71.392,42.61C379.156,352.267,237.087,363.4,237.087,363.4Z" transform="translate(-47.881 -132.462)" fill="#3264a8"/>
      <path id="Caminho_905" data-name="Caminho 905" d="M237.087,363.4S61.3,375.613,48.688,305.643c-10.1-55.949,77.7-27.773,87.357-59.122s-56.387-89.933,6.733-110.661S202.464,195.866,244,198.98s67.4-70.87,110.122-31.669c49.225,45.143-49.225,72.074-36.887,100.991s81.306-.707,71.392,42.61C379.156,352.267,237.087,363.4,237.087,363.4Z" transform="translate(-47.881 -132.462)" fill="#fff" opacity="0.7"/>
    </g>
    <g id="freepik--Plants--inject-85" transform="translate(49.323 265.194)">
      <path id="Caminho_906" data-name="Caminho 906" d="M73.6,348.492Z" transform="translate(-54.046 -307.814)" fill="#3264a8"/>
      <path id="Caminho_913" data-name="Caminho 913" d="M442.752,334.19Z" transform="translate(-108.944 -309.217)" fill="#3264a8"/>
      <path id="Caminho_914" data-name="Caminho 914" d="M413.322,400.67Z" transform="translate(-105.393 -311.189)" fill="#3264a8"/>
      <path id="Caminho_915" data-name="Caminho 915" d="M413.322,400.67Z" transform="translate(-105.393 -311.189)" opacity="0.2"/>
      <path id="Caminho_916" data-name="Caminho 916" d="M414.677,397.053Z" transform="translate(-106.411 -308.498)" fill="#3264a8"/>
      <path id="Caminho_917" data-name="Caminho 917" d="M414.677,397.053Z" transform="translate(-106.411 -308.498)" fill="#fff" opacity="0.2"/>
    </g>
    <g id="freepik--Character--inject-85" transform="translate(96.308 248.534)">
      <path id="Caminho_919" data-name="Caminho 919" d="M149.872,284.72h159.9a27.217,27.217,0,0,1,27.217,27.217v59.29H122.63v-59.29A27.217,27.217,0,0,1,149.872,284.72Z" transform="translate(-108.887 -284.72)" fill="#999" stroke="#263238" stroke-linecap="round" stroke-linejoin="round" stroke-width="1"/>
      <path id="Caminho_920" data-name="Caminho 920" d="M317.78,300.72H146.937a8.315,8.315,0,0,0-8.307,8.307V360.3H326.086v-51.27A8.315,8.315,0,0,0,317.78,300.72Z" transform="translate(-111.421 -287.255)" opacity="0.2"/>
      <path id="Caminho_921" data-name="Caminho 921" d="M136.972,310.12l3.434-1.877a8.054,8.054,0,0,0,4.208,1.111c2-.236,7.8-.429,8.121-1.5s-1.086-1.456-2.651-1.145c.968-.53,1.473-.968,1.473-1.49,0-.884-1.582-1-1.582-1,.05-.926-1.094-1.5-1.094-1.5a2.045,2.045,0,0,0-1.969-.446c.488-.328-.522-1.473-2.727-1.607s-6.4,3.324-6.4,3.324l-4.949,2.129Z" transform="translate(-110.504 -287.246)" fill="#fff" stroke="#263238" stroke-linecap="round" stroke-linejoin="round" stroke-width="1"/>
      <path id="Caminho_922" data-name="Caminho 922" d="M151.121,307.593c-.892.4-2.1.631-2.348.244-.429-.656,1.5-1.431,2.037-2.138s-3.552,2.2-3.8.673c0,0-1.1-.429-.732-1.17s1.363-1.119,1.683-1.683-1.995,1.683-2.348.8,1.321-1.3,1.086-1.767-2.525,2.887-4.393,2.659" transform="translate(-112.004 -287.538)" fill="none" stroke="#263238" stroke-linecap="round" stroke-linejoin="round" stroke-width="1"/>
      <path id="Caminho_923" data-name="Caminho 923" d="M148.38,306.216a4.982,4.982,0,0,0,2.525-1.826" transform="translate(-112.966 -287.836)" fill="none" stroke="#263238" stroke-linecap="round" stroke-linejoin="round" stroke-width="1"/>
      <path id="Caminho_924" data-name="Caminho 924" d="M143.25,306.867s2.836-.454,4.511.959" transform="translate(-112.153 -288.217)" fill="none" stroke="#263238" stroke-linecap="round" stroke-linejoin="round" stroke-width="1"/>
      <path id="Caminho_925" data-name="Caminho 925" d="M211.685,332.293a42.375,42.375,0,0,0-7.364-1.161c-.8-2.954-13.036-2.449-30.466-5.049s-27.158-.993-27.158-.993c-5.134-4.839-14.055,4.326-14.543,5.891s2.76,1.683,2.76,1.683a2.457,2.457,0,0,1-2.752.623,1.473,1.473,0,0,0-1.624.05s-13.1-6.876-11.143-9.762c2.323-3.417,16.175-12.548,16.175-12.548-.766-6.472-6.859-4.974-6.859-4.974C114.473,313.146,107.9,318.97,107.9,324.2c0,10.444,23.75,24.751,23.75,24.751,5.007,6.287,11.488,4.124,11.488,4.124s28.892,6.632,51.859,6.674c7.793,0,13.179-.5,17.143-1.405C213.907,346.625,213,337.965,211.685,332.293Z" transform="translate(-106.553 -288.075)" fill="#3264a8"/>
      <g id="Grupo_23" data-name="Grupo 23" transform="translate(1.347 17.826)" clip-path="url(#clip-path)">
        <path id="Caminho_926" data-name="Caminho 926" d="M204.184,352.2c-1.128,2.281-12.085,7.221-29.287,5.454s.791-4.713,0-6.2-11.833,1.237-23.11.9-14.139-12.287-16.352-11.664-4.208-2.07-5.268.951c-1.439,4.208-17.421-14.459-20.2-13.213-1.077.48-1.212,1.75-.976,3.139,4.351,9.8,22.832,20.93,22.832,20.93,5.007,6.287,11.488,4.124,11.488,4.124s28.892,6.632,51.859,6.674c2.247,0,4.284,0,6.16-.118l.648-.37C202.964,358.81,203.7,355.292,204.184,352.2Z" transform="translate(-108.057 -309.461)" opacity="0.3"/>
        <path id="Caminho_927" data-name="Caminho 927" d="M154.35,331.717a29.616,29.616,0,0,0-10.158,2.752.429.429,0,0,1-.513-.673c2.39-2.441,6.733-5.672,10.857-2.861a.429.429,0,0,1-.185.783Z" transform="translate(-113.549 -309.694)" opacity="0.3"/>
      </g>
      <path id="Caminho_929" data-name="Caminho 929" d="M211.685,332.293a42.375,42.375,0,0,0-7.364-1.161c-.8-2.954-13.036-2.449-30.466-5.049s-27.158-.993-27.158-.993c-5.134-4.839-14.055,4.326-14.543,5.891s2.76,1.683,2.76,1.683a2.457,2.457,0,0,1-2.752.623,1.473,1.473,0,0,0-1.624.05s-13.1-6.876-11.143-9.762c2.323-3.417,16.175-12.548,16.175-12.548-.766-6.472-6.859-4.974-6.859-4.974C114.473,313.146,107.9,318.97,107.9,324.2c0,10.444,23.75,24.751,23.75,24.751,5.007,6.287,11.488,4.124,11.488,4.124s28.892,6.632,51.859,6.674c7.793,0,13.179-.5,17.143-1.405C213.907,346.625,213,337.965,211.685,332.293Z" transform="translate(-106.553 -288.075)" fill="none" stroke="#263238" stroke-linecap="round" stroke-linejoin="round" stroke-width="1"/>
      <path id="Caminho_930" data-name="Caminho 930" d="M138.75,358.17c1.372.555,3.24,1.271,5.243,1.91" transform="translate(-111.44 -296.355)" fill="none" stroke="#263238" stroke-linecap="round" stroke-linejoin="round" stroke-width="1"/>
      <path id="Caminho_931" data-name="Caminho 931" d="M143.7,346.52a14.021,14.021,0,0,1,1.077,1.6" transform="translate(-112.224 -294.51)" fill="none" stroke="#263238" stroke-linecap="round" stroke-linejoin="round" stroke-width="1"/>
      <path id="Caminho_932" data-name="Caminho 932" d="M136.91,340a37.566,37.566,0,0,1,4.486,4.014" transform="translate(-111.149 -293.477)" fill="none" stroke="#263238" stroke-linecap="round" stroke-linejoin="round" stroke-width="1"/>
      <path id="Caminho_933" data-name="Caminho 933" d="M142,334.92a25.071,25.071,0,0,1,7.818-5.05" transform="translate(-111.955 -291.872)" fill="none" stroke="#263238" stroke-linecap="round" stroke-linejoin="round" stroke-width="1"/>
      <path id="Caminho_934" data-name="Caminho 934" d="M353.9,337.3l6.926,3.518-3.282,5.647-7.212-2.508Z" transform="translate(-144.956 -293.049)" fill="#fff" stroke="#263238" stroke-linecap="round" stroke-linejoin="round" stroke-width="1"/>
      <path id="Caminho_935" data-name="Caminho 935" d="M357.02,343.922l2.626-5.386a1.565,1.565,0,0,1,.6-.64s4.082-2.861,5.639-4.208,4.738-5.437,6.556-6.379a1.178,1.178,0,0,1,.4-.1,1.338,1.338,0,0,1,1.389,1.852l-8.307,19.163a2.087,2.087,0,0,1-3,.951l-5.327-3.265A1.54,1.54,0,0,1,357.02,343.922Z" transform="translate(-145.991 -291.449)" fill="#3264a8" stroke="#263238" stroke-linecap="round" stroke-linejoin="round" stroke-width="1"/>
      <path id="Caminho_936" data-name="Caminho 936" d="M375.479,329.06a1.338,1.338,0,0,0-1.389-1.852,1.179,1.179,0,0,0-.4.1c1.422,1.506-6.733,17.825-8.946,22.092a2.079,2.079,0,0,0,2.432-1.178Z" transform="translate(-147.239 -291.449)" fill="#fff" stroke="#263238" stroke-linecap="round" stroke-linejoin="round" stroke-width="1"/>
      <path id="Caminho_937" data-name="Caminho 937" d="M285.262,309.57c-8,.084-35.692,15.679-46.86,22.159a11.782,11.782,0,0,1-8.955,1.17,43.005,43.005,0,0,0-7.473-1.187,1.5,1.5,0,0,0-.48-.7c1.246,3.8,2.272,12.22-2.154,29.161,16.731-.842,18.3-6.034,24.684-9.645,18.742-10.587,42.223-27.773,42.223-27.773,6.876,7.263,45.446,18.439,45.446,18.439a15.41,15.41,0,0,0,3.577-7.936S295.361,309.461,285.262,309.57Z" transform="translate(-124.206 -288.656)" fill="#263238" stroke="#263238" stroke-linecap="round" stroke-linejoin="round" stroke-width="1"/>
      <path id="Caminho_938" data-name="Caminho 938" d="M141.172,324.428a72.166,72.166,0,0,0,4.848-6.034c.236-.724-9.258-6.977-9.258-6.977s.623-2.659.076-3.03c-1.035-.69-2.247-.741-4.822-.766s-7.381-2.171-7.381-2.171-4.124,4.528-4.376,5.05-3.2,3.526-3.451,3.9,3.871,12.759,10.032,13.465a14.047,14.047,0,0,1,6.918,2.626,20.1,20.1,0,0,1,7.414-6.059Z" transform="translate(-107.963 -288.004)" fill="#fff"/>
      <path id="Caminho_939" data-name="Caminho 939" d="M141.172,324.428a72.166,72.166,0,0,0,4.848-6.034c.236-.724-9.258-6.977-9.258-6.977s.623-2.659.076-3.03c-1.035-.69-2.247-.741-4.822-.766s-7.381-2.171-7.381-2.171-4.124,4.528-4.376,5.05-3.2,3.526-3.451,3.9,3.871,12.759,10.032,13.465a14.047,14.047,0,0,1,6.918,2.626,20.1,20.1,0,0,1,7.414-6.059Z" transform="translate(-107.963 -288.004)" fill="none" stroke="#263238" stroke-linecap="round" stroke-linejoin="round" stroke-width="1"/>
      <path id="Caminho_940" data-name="Caminho 940" d="M130.648,309.74s-1.111.842-.295,2.853" transform="translate(-110.063 -288.683)" fill="none" stroke="#263238" stroke-linecap="round" stroke-linejoin="round" stroke-width="1"/>
      <path id="Caminho_941" data-name="Caminho 941" d="M135.06,311.18s.842.673-.69,1.936" transform="translate(-110.747 -288.911)" fill="none" stroke="#263238" stroke-linecap="round" stroke-linejoin="round" stroke-width="1"/>
      <path id="Caminho_942" data-name="Caminho 942" d="M144.062,318.28a4.469,4.469,0,0,1-3.072,2.887" transform="translate(-111.795 -290.036)" fill="none" stroke="#263238" stroke-linecap="round" stroke-linejoin="round" stroke-width="1"/>
      <path id="Caminho_943" data-name="Caminho 943" d="M130.876,327.772s-4.486-8.761-4.822-9.838,1.405.429,2.028-.581-2.584-1.624-4.208-3.366-.286-2.441-1.01-4.208c0,0,8.475-13.836-2.02-14.736-9.148-.791-5,9.981-6.682,11.892s-10.6,8.727-1.456,14.98C120.617,327.309,130.876,327.772,130.876,327.772Z" transform="translate(-106.672 -286.349)" fill="#263238" stroke="#263238" stroke-linecap="round" stroke-linejoin="round" stroke-width="1"/>
      <path id="Caminho_944" data-name="Caminho 944" d="M129.856,322s-4.267.5-2.525,3.072c2.053,2.971,5.487,2.247,5.824.589" transform="translate(-109.565 -290.625)" fill="#fff" stroke="#263238" stroke-linecap="round" stroke-linejoin="round" stroke-width="1"/>
      <path id="Caminho_945" data-name="Caminho 945" d="M121.18,317.16a2.769,2.769,0,0,0,.564,1.288" transform="translate(-108.657 -289.859)" fill="none" stroke="#7f7f7f" stroke-linecap="round" stroke-linejoin="round" stroke-width="0.75"/>
      <path id="Caminho_946" data-name="Caminho 946" d="M121.468,297.165a2.1,2.1,0,0,1,1.5.328c3.021,1.961-1.128,9.493-1.776,14.391" transform="translate(-108.659 -286.687)" fill="none" stroke="#7f7f7f" stroke-linecap="round" stroke-linejoin="round" stroke-width="0.75"/>
      <path id="Caminho_947" data-name="Caminho 947" d="M118.43,299.235a6.4,6.4,0,0,1,.951-1.035" transform="translate(-108.221 -286.855)" fill="none" stroke="#7f7f7f" stroke-linecap="round" stroke-linejoin="round" stroke-width="0.75"/>
      <path id="Caminho_948" data-name="Caminho 948" d="M119.09,326.37a16.516,16.516,0,0,0,1.683.665" transform="translate(-108.326 -291.318)" fill="none" stroke="#7f7f7f" stroke-linecap="round" stroke-linejoin="round" stroke-width="0.75"/>
      <path id="Caminho_949" data-name="Caminho 949" d="M120.6,302.5c-1.288,4.073-11.589,14.172-3.695,19.357" transform="translate(-107.512 -287.536)" fill="none" stroke="#7f7f7f" stroke-linecap="round" stroke-linejoin="round" stroke-width="0.75"/>
      <path id="Caminho_950" data-name="Caminho 950" d="M119.16,301.452s1.523-1.734,2.264-.5" transform="translate(-108.337 -287.221)" fill="none" stroke="#7f7f7f" stroke-linecap="round" stroke-linejoin="round" stroke-width="0.75"/>
      <path id="Caminho_951" data-name="Caminho 951" d="M197.943,332.1l1.288,2.1a21.784,21.784,0,0,1-1.01,3.089c-.37.909-2.912,3.888-1.683,4.208,1.809.488,3.114-3.888,4.965-3.105.9.387,1.86,2.062,1.995,3.737s-.884,3.139-.194,3.787c.909.842,1.624-2.02,1.624-2.02a8.417,8.417,0,0,1,.185,1.683c0,.69-.547,1.06.151,1.473s1.01-.606,1.01-.606a1.877,1.877,0,0,0,1.237-.513,7.835,7.835,0,0,0,1.422-3.594c.37-2.356-4.124-9.258-4.124-9.258l-.665-2.946A6.177,6.177,0,0,0,197.943,332.1Z" transform="translate(-120.542 -291.884)" fill="#fff" stroke="#263238" stroke-linecap="round" stroke-linejoin="round" stroke-width="1"/>
      <path id="Caminho_952" data-name="Caminho 952" d="M205.83,340.63a7.515,7.515,0,0,1,.757,3.6" transform="translate(-122.066 -293.577)" fill="none" stroke="#263238" stroke-linecap="round" stroke-linejoin="round" stroke-width="1"/>
      <path id="Caminho_953" data-name="Caminho 953" d="M208.073,348.217s.673-1.683-.673-7.3" transform="translate(-122.315 -293.622)" fill="none" stroke="#263238" stroke-linecap="round" stroke-linejoin="round" stroke-width="1"/>
      <path id="Caminho_954" data-name="Caminho 954" d="M208.8,340.63a15.41,15.41,0,0,1,.985,3.417c.084,1.22.286,2.744-.084,3.366" transform="translate(-122.537 -293.577)" fill="none" stroke="#263238" stroke-linecap="round" stroke-linejoin="round" stroke-width="1"/>
      <path id="Caminho_955" data-name="Caminho 955" d="M126.219,333.912c-3.711-2.525-12.573-7.987-15.149-6.236" transform="translate(-107.056 -291.471)" fill="#3264a8" stroke="#263238" stroke-linecap="round" stroke-linejoin="round" stroke-width="1"/>
      <path id="Caminho_956" data-name="Caminho 956" d="M226.964,342.574c-.16-1.515-.379-3.1-.69-4.763l-2.1-.37s.311,1.944.488,4.932Z" transform="translate(-124.972 -293.071)" fill="#3264a8" stroke="#263238" stroke-linecap="round" stroke-linejoin="round" stroke-width="1"/>
      <path id="Caminho_957" data-name="Caminho 957" d="M223.25,361a32.648,32.648,0,0,1-1.86,5.891l2.424-.5a21.787,21.787,0,0,0,1.877-5.218Z" transform="translate(-124.531 -296.803)" fill="#3264a8" stroke="#263238" stroke-linecap="round" stroke-linejoin="round" stroke-width="1"/>
      <path id="Caminho_958" data-name="Caminho 958" d="M224,356.752h2.525a43.991,43.991,0,0,0,.564-10.857l-2.39-.236A56.974,56.974,0,0,1,224,356.752Z" transform="translate(-124.945 -294.373)" fill="#3264a8" stroke="#263238" stroke-linecap="round" stroke-linejoin="round" stroke-width="1"/>
      <path id="Caminho_959" data-name="Caminho 959" d="M178.385,358.49c-.648.093-1.313.168-1.995.21" transform="translate(-117.403 -296.406)" fill="none" stroke="#263238" stroke-linecap="round" stroke-linejoin="round" stroke-width="1"/>
      <path id="Caminho_960" data-name="Caminho 960" d="M198.768,341.84s-5.639,10.612-17.168,13.533" transform="translate(-118.228 -293.768)" fill="none" stroke="#263238" stroke-linecap="round" stroke-linejoin="round" stroke-width="1"/>
      <path id="Caminho_961" data-name="Caminho 961" d="M351.964,351.32l7.633,1.448-1.574,6.337-7.633-.387Z" transform="translate(-144.966 -295.27)" fill="#fff" stroke="#263238" stroke-linecap="round" stroke-linejoin="round" stroke-width="1"/>
      <path id="Caminho_962" data-name="Caminho 962" d="M357.916,355.822l1.119-5.891a1.624,1.624,0,0,1,.4-.783s3.19-3.821,4.334-5.538,3.148-6.489,4.646-7.877a1.16,1.16,0,0,1,.37-.2,1.33,1.33,0,0,1,1.818,1.422l-2.971,20.67a2.087,2.087,0,0,1-2.651,1.683l-5.992-1.75a1.532,1.532,0,0,1-1.077-1.734Z" transform="translate(-146.154 -292.753)" fill="#3264a8" stroke="#263238" stroke-linecap="round" stroke-linejoin="round" stroke-width="1"/>
      <path id="Caminho_963" data-name="Caminho 963" d="M372.057,336.954a1.33,1.33,0,0,0-1.818-1.422,1.162,1.162,0,0,0-.37.2c1.776,1.077-1.835,18.978-2.819,23.674a2.087,2.087,0,0,0,2.037-1.784Z" transform="translate(-147.605 -292.753)" fill="#fff" stroke="#263238" stroke-linecap="round" stroke-linejoin="round" stroke-width="1"/>
      <path id="Caminho_964" data-name="Caminho 964" d="M234.425,344.407s47.348-7.642,52.961-6.548,47.8,10.419,47.8,10.419.926,5.142-2.02,9.039c0,0-37.476-1.742-47.356-7.364,0,0-21.545,6.733-36.13,8.071,0,0-12.085,5.268-22.193,6Z" transform="translate(-125.497 -293.121)" fill="#263238" stroke="#263238" stroke-linecap="round" stroke-linejoin="round" stroke-width="1"/>
      <path id="Caminho_965" data-name="Caminho 965" d="M274.77,341.656l2.255-1.506" transform="translate(-132.987 -293.501)" fill="none" stroke="#7f7f7f" stroke-linecap="round" stroke-linejoin="round" stroke-width="1"/>
      <path id="Caminho_966" data-name="Caminho 966" d="M251.86,354.391c5.546-3.24,11.378-6.935,16.832-10.511" transform="translate(-129.358 -294.091)" fill="none" stroke="#7f7f7f" stroke-linecap="round" stroke-linejoin="round" stroke-width="1"/>
      <path id="Caminho_967" data-name="Caminho 967" d="M236.14,365.1c4.637-2.02,6.733-4.747,10.545-6.9" transform="translate(-126.868 -296.36)" fill="none" stroke="#7f7f7f" stroke-linecap="round" stroke-linejoin="round" stroke-width="1"/>
      <path id="Caminho_968" data-name="Caminho 968" d="M193.336,320.088c-4.763-1.75-24.524,3.1-29.237,3.215s-10.1,3.972-10.1,3.972,9.762-1.683,27.183.959c1.624.244,3.181.454,4.7.656l2.011-.656,3.93,3.871a4.463,4.463,0,0,1,6.775-1.212C198.731,326.762,198.1,321.839,193.336,320.088Z" transform="translate(-113.856 -290.262)" fill="#3264a8"/>
      <g id="Grupo_25" data-name="Grupo 25" transform="translate(40.144 29.445)" clip-path="url(#clip-path-2)">
        <g id="Grupo_24" data-name="Grupo 24" transform="translate(11.875 3.35)" opacity="0.3">
          <path id="Caminho_969" data-name="Caminho 969" d="M192.55,331.272c-2.76-3.307-2.39-7.381-3.24-7.574s-15.048,2.525-21.2,3.7a129.866,129.866,0,0,1,15.283,1.431c1.624.244,3.181.454,4.7.656l2.011-.656Z" transform="translate(-168.11 -323.688)"/>
          <path id="Caminho_970" data-name="Caminho 970" d="M198.78,334.31l.118.109h0Z" transform="translate(-172.968 -325.371)"/>
        </g>
      </g>
      <path id="Caminho_972" data-name="Caminho 972" d="M193.336,320.088c-4.763-1.75-24.524,3.1-29.237,3.215s-10.1,3.972-10.1,3.972,9.762-1.683,27.183.959c1.624.244,3.181.454,4.7.656l2.011-.656,3.93,3.871a4.463,4.463,0,0,1,6.775-1.212C198.731,326.762,198.1,321.839,193.336,320.088Z" transform="translate(-113.856 -290.262)" fill="none" stroke="#263238" stroke-linecap="round" stroke-linejoin="round" stroke-width="1"/>
      <path id="Caminho_973" data-name="Caminho 973" d="M194.639,322a3.989,3.989,0,0,0-1.38,5.4" transform="translate(-119.99 -290.625)" fill="none" stroke="#263238" stroke-linecap="round" stroke-linejoin="round" stroke-width="1"/>
      <rect id="Ret창ngulo_77" data-name="Ret창ngulo 77" width="214.387" height="31.433" transform="translate(13.743 86.078)" fill="none" stroke="#000" stroke-miterlimit="10" stroke-width="1"/>
      <path id="Caminho_974" data-name="Caminho 974" d="M142.34,429.8H126.56a3.308,3.308,0,0,1-3.206-2.525l-.724-2.945h23.64l-.724,2.946a3.307,3.307,0,0,1-3.206,2.525Z" transform="translate(-108.887 -306.835)" fill="#263238" stroke="#263238" stroke-linecap="round" stroke-linejoin="round" stroke-width="1"/>
      <path id="Caminho_975" data-name="Caminho 975" d="M368.8,429.8H353.02a3.291,3.291,0,0,1-3.2-2.525l-.732-2.946h23.64l-.724,2.946A3.3,3.3,0,0,1,368.8,429.8Z" transform="translate(-144.76 -306.835)" fill="#263238" stroke="#263238" stroke-linecap="round" stroke-linejoin="round" stroke-width="1"/>
      <rect id="Ret창ngulo_78" data-name="Ret창ngulo 78" width="214.387" height="31.433" transform="translate(13.743 86.078)" fill="#858585" stroke="#263238" stroke-linecap="round" stroke-linejoin="round" stroke-width="1"/>
      <path id="Caminho_976" data-name="Caminho 976" d="M232.258,382.934H138v-13.92a7.675,7.675,0,0,1,7.675-7.684s29.531,4.713,39.462,4.713S224.6,361.33,224.6,361.33a7.684,7.684,0,0,1,7.675,7.684Z" transform="translate(-111.322 -296.856)" fill="#858585" stroke="#263238" stroke-linecap="round" stroke-linejoin="round" stroke-width="1"/>
      <path id="Caminho_977" data-name="Caminho 977" d="M259.6,361.33h75.078a9.6,9.6,0,0,1,9.577,9.6v12H250v-12A9.6,9.6,0,0,1,259.6,361.33Z" transform="translate(-129.063 -296.856)" fill="#858585" stroke="#263238" stroke-linecap="round" stroke-linejoin="round" stroke-width="1"/>
      <path id="Caminho_978" data-name="Caminho 978" d="M370.18,411.281h10.377a8.164,8.164,0,0,0,8.163-8.163v-55.7a5.563,5.563,0,0,0-5.563-5.563h0A21.141,21.141,0,0,0,362,363.016v40.136a8.163,8.163,0,0,0,8.18,8.13Z" transform="translate(-146.805 -293.77)" fill="#999" stroke="#263238" stroke-linecap="round" stroke-linejoin="round" stroke-width="1"/>
      <path id="Caminho_979" data-name="Caminho 979" d="M124.8,411.281H114.463a8.164,8.164,0,0,1-8.163-8.163v-55.7a5.563,5.563,0,0,1,5.563-5.563h0a21.141,21.141,0,0,1,21.116,21.166v40.136a8.163,8.163,0,0,1-8.18,8.13Z" transform="translate(-106.3 -293.77)" fill="#999" stroke="#263238" stroke-linecap="round" stroke-linejoin="round" stroke-width="1"/>
    </g>
    <g id="freepik--Dream--inject-85" transform="translate(73.862 56.284)">
      <path id="Caminho_980" data-name="Caminho 980" d="M362.019,159.515c0-17.505-19.129-31.7-42.728-31.7a54.7,54.7,0,0,0-19.92,3.661,17.312,17.312,0,0,0,3.324-9.956c0-14.358-19.55-26-43.662-26-14.736,0-27.773,4.359-35.658,11.016a58.305,58.305,0,0,0-23.868-4.848c-22.588,0-40.91,11.538-40.91,25.761a16.9,16.9,0,0,0,1.145,6.051c-28.614.328-51.733,16.386-51.733,36.188,0,18.894,21.04,34.387,47.971,36.029,2.028,16.5,26.931,29.557,57.338,29.557,19.887,0,37.409-5.58,47.735-14.046a95.335,95.335,0,0,0,20,2.079c31.139,0,56.387-14.307,56.387-32.056a18.625,18.625,0,0,0-.244-2.912C351.836,183.29,362.019,172.29,362.019,159.515Z" transform="translate(-84.126 -62.499)" fill="#fff"/>
      <g id="Grupo_26" data-name="Grupo 26" transform="translate(23.884 33.021)" clip-path="url(#clip-path-3)">
        <path id="Caminho_981" data-name="Caminho 981" d="M342.507,211h-.379l-39.715,2.07L148.47,219.677h-7.81a70.568,70.568,0,0,0,20.451,4.258c2.028,16.5,26.931,29.557,57.338,29.557,19.887,0,37.409-5.58,47.735-14.046a95.335,95.335,0,0,0,20,2.079C316.435,241.567,341.119,228.025,342.507,211Z" transform="translate(-113.182 -113.813)" fill="#999"/>
      </g>
      <path id="Caminho_983" data-name="Caminho 983" d="M362.019,159.515c0-17.505-19.129-31.7-42.728-31.7a54.7,54.7,0,0,0-19.92,3.661,17.312,17.312,0,0,0,3.324-9.956c0-14.358-19.55-26-43.662-26-14.736,0-27.773,4.359-35.658,11.016a58.305,58.305,0,0,0-23.868-4.848c-22.588,0-40.91,11.538-40.91,25.761a16.9,16.9,0,0,0,1.145,6.051c-28.614.328-51.733,16.386-51.733,36.188,0,18.894,21.04,34.387,47.971,36.029,2.028,16.5,26.931,29.557,57.338,29.557,19.887,0,37.409-5.58,47.735-14.046a95.335,95.335,0,0,0,20,2.079c31.139,0,56.387-14.307,56.387-32.056a18.625,18.625,0,0,0-.244-2.912C351.836,183.29,362.019,172.29,362.019,159.515Z" transform="translate(-84.126 -62.499)" fill="none" stroke="#263238" stroke-linecap="round" stroke-linejoin="round" stroke-width="1"/>
      <path id="Caminho_984" data-name="Caminho 984" d="M149.13,219.626,343.858,211s-1.212,7.574-22,6.842c0,0-2.7,3.282-18.515,1.767,0,0,.4,4.856-30.844,3.105,0,0-1.111,6.177-41.423,2.525C231.076,225.223,220.968,235.322,149.13,219.626Z" transform="translate(-90.639 -80.792)" fill="#3264a8" stroke="#263238" stroke-linecap="round" stroke-linejoin="round" stroke-width="1"/>
      <path id="Caminho_985" data-name="Caminho 985" d="M149.13,219.629s59.433,4.578,79.4.093c0,0,31.98,3.855,40.531-.959,0,0,29.961,1.3,30.954-3.223,0,0,17.387,1.557,18.667-1.414,0,0,17.556.993,25.18-3.105Z" transform="translate(-90.639 -80.796)" fill="#3264a8"/>
      <g id="Grupo_27" data-name="Grupo 27" transform="translate(58.491 130.224)" clip-path="url(#clip-path-4)">
        <path id="Caminho_986" data-name="Caminho 986" d="M149.13,219.629s59.433,4.578,79.4.093c0,0,31.98,3.855,40.531-.959,0,0,29.961,1.3,30.954-3.223,0,0,17.387,1.557,18.667-1.414,0,0,17.556.993,25.18-3.105Z" transform="translate(-149.13 -211.02)" opacity="0.2"/>
      </g>
      <path id="Caminho_988" data-name="Caminho 988" d="M149.13,219.629s59.433,4.578,79.4.093c0,0,31.98,3.855,40.531-.959,0,0,29.961,1.3,30.954-3.223,0,0,17.387,1.557,18.667-1.414,0,0,17.556.993,25.18-3.105Z" transform="translate(-90.639 -80.796)" fill="none" stroke="#263238" stroke-linecap="round" stroke-linejoin="round" stroke-width="1"/>
      <path id="Caminho_989" data-name="Caminho 989" d="M231.082,225.22c40.312,3.686,41.423-2.525,41.423-2.525,31.24,1.751,30.844-3.105,30.844-3.105,15.814,1.515,18.515-1.767,18.515-1.767,20.787.766,22-6.842,22-6.842-5.79,6.085-24.33,4.519-24.33,4.519-2.356,3.552-17.825,1.683-17.825,1.683-3.366-.64-4.208,1.069-4.208,1.069-3.661-3.055-4.208,1.414-4.208,1.414a89.326,89.326,0,0,1-22.723,0c-3.829-3.105-5.521-.118-5.521-.118-2.331-1.683-4.662,2.255-4.662,2.255-2.525-.892-7,1.1-7,1.1-7,.219-24.179-1.086-24.179-1.086-8.694-5.117-12.3,0-12.3,0-6.994-1.683-13.575,2.146-13.575,2.146-15.485.842-54.156-4.393-54.156-4.393C220.975,235.319,231.082,225.22,231.082,225.22Z" transform="translate(-90.646 -80.789)" fill="#fff" stroke="#263238" stroke-linecap="round" stroke-linejoin="round" stroke-width="1"/>
      <path id="Caminho_990" data-name="Caminho 990" d="M212.78,127.891a19.617,19.617,0,0,0-2.146.126c-.766-2.575-4.359-4.528-8.685-4.528h-.959a16.159,16.159,0,0,0-7-1.49c-5.992,0-10.848,2.811-10.848,6.287a3.586,3.586,0,0,0,.2,1.187h-.934c-3.762,0-6.817,1.506-6.817,3.366s3.055,3.366,6.817,3.366H212.78c4.864,0,8.8-1.86,8.8-4.149S217.644,127.891,212.78,127.891Z" transform="translate(-94.831 -66.694)" fill="#3264a8"/>
      <g id="Grupo_28" data-name="Grupo 28" transform="translate(80.759 55.304)" clip-path="url(#clip-path-5)">
        <path id="Caminho_991" data-name="Caminho 991" d="M212.78,127.891a19.617,19.617,0,0,0-2.146.126c-.766-2.575-4.359-4.528-8.685-4.528h-.959a16.159,16.159,0,0,0-7-1.49c-5.992,0-10.848,2.811-10.848,6.287a3.586,3.586,0,0,0,.2,1.187h-.934c-3.762,0-6.817,1.506-6.817,3.366s3.055,3.366,6.817,3.366H212.78c4.864,0,8.8-1.86,8.8-4.149S217.644,127.891,212.78,127.891Z" transform="translate(-175.59 -121.998)" fill="#fff" opacity="0.7"/>
      </g>
      <path id="Caminho_993" data-name="Caminho 993" d="M376.545,146.08a18.26,18.26,0,0,0-2.18.135c-.774-2.609-4.41-4.587-8.786-4.587h-.968a16.361,16.361,0,0,0-7.078-1.5c-6.068,0-10.941,2.845-10.941,6.354a3.88,3.88,0,0,0,.2,1.2h-.943c-3.8,0-6.893,1.523-6.893,3.366s3.089,3.366,6.893,3.366h30.735c4.915,0,8.9-1.877,8.9-4.208S381.46,146.08,376.545,146.08Z" transform="translate(-120.71 -69.566)" fill="#3264a8"/>
      <g id="Grupo_29" data-name="Grupo 29" transform="translate(218.25 70.562)" clip-path="url(#clip-path-6)">
        <path id="Caminho_994" data-name="Caminho 994" d="M376.545,146.08a18.26,18.26,0,0,0-2.18.135c-.774-2.609-4.41-4.587-8.786-4.587h-.968a16.361,16.361,0,0,0-7.078-1.5c-6.068,0-10.941,2.845-10.941,6.354a3.88,3.88,0,0,0,.2,1.2h-.943c-3.8,0-6.893,1.523-6.893,3.366s3.089,3.366,6.893,3.366h30.735c4.915,0,8.9-1.877,8.9-4.208S381.46,146.08,376.545,146.08Z" transform="translate(-338.96 -140.128)" fill="#fff" opacity="0.5"/>
      </g>
      <path id="Caminho_996" data-name="Caminho 996" d="M261.6,123.935a22.318,22.318,0,0,0-5.336.623,4.023,4.023,0,0,0,.513-1.927c0-3.19-3.9-5.773-8.694-5.773a11.21,11.21,0,0,0-6.211,1.734c-1.742-3.425-7.086-5.891-13.407-5.891-7.743,0-14.012,3.728-14.012,8.323a5.521,5.521,0,0,0,1.069,3.2,16.722,16.722,0,0,0-2.962-.261c-5.327,0-9.653,2.415-9.653,5.386s4.326,5.386,9.653,5.386H261.6c6.3,0,11.42-2.407,11.42-5.386S267.906,123.935,261.6,123.935Z" transform="translate(-99.159 -65.221)" fill="#3264a8"/>
      <g id="Grupo_30" data-name="Grupo 30" transform="translate(103.751 47.479)" clip-path="url(#clip-path-7)">
        <path id="Caminho_997" data-name="Caminho 997" d="M261.6,123.935a22.318,22.318,0,0,0-5.336.623,4.023,4.023,0,0,0,.513-1.927c0-3.19-3.9-5.773-8.694-5.773a11.21,11.21,0,0,0-6.211,1.734c-1.742-3.425-7.086-5.891-13.407-5.891-7.743,0-14.012,3.728-14.012,8.323a5.521,5.521,0,0,0,1.069,3.2,16.722,16.722,0,0,0-2.962-.261c-5.327,0-9.653,2.415-9.653,5.386s4.326,5.386,9.653,5.386H261.6c6.3,0,11.42-2.407,11.42-5.386S267.906,123.935,261.6,123.935Z" transform="translate(-202.91 -112.7)" fill="#fff" opacity="0.5"/>
      </g>
      <path id="Caminho_999" data-name="Caminho 999" d="M282.546,137.856a11.783,11.783,0,0,0-2.878.337,2.2,2.2,0,0,0,.278-1.044c0-1.683-2.1-3.114-4.688-3.114a6.068,6.068,0,0,0-3.366.934c-.943-1.843-3.821-3.19-7.229-3.19-4.208,0-7.574,2.011-7.574,4.486a2.937,2.937,0,0,0,.581,1.683,9.78,9.78,0,0,0-1.607-.135c-2.87,0-5.2,1.3-5.2,2.9s2.331,2.9,5.2,2.9h26.451c3.366,0,6.16-1.3,6.16-2.9S285.946,137.856,282.546,137.856Z" transform="translate(-106.754 -68.243)" fill="#3264a8"/>
      <g id="Grupo_31" data-name="Grupo 31" transform="translate(144.106 63.537)" clip-path="url(#clip-path-8)">
        <path id="Caminho_1000" data-name="Caminho 1000" d="M282.546,137.856a11.783,11.783,0,0,0-2.878.337,2.2,2.2,0,0,0,.278-1.044c0-1.683-2.1-3.114-4.688-3.114a6.068,6.068,0,0,0-3.366.934c-.943-1.843-3.821-3.19-7.229-3.19-4.208,0-7.574,2.011-7.574,4.486a2.937,2.937,0,0,0,.581,1.683,9.78,9.78,0,0,0-1.607-.135c-2.87,0-5.2,1.3-5.2,2.9s2.331,2.9,5.2,2.9h26.451c3.366,0,6.16-1.3,6.16-2.9S285.946,137.856,282.546,137.856Z" transform="translate(-250.86 -131.78)" fill="#fff" opacity="0.2"/>
      </g>
      <path id="Caminho_1002" data-name="Caminho 1002" d="M316.851,169.394c.968-1.279-.412-4.814-.4-6.43a29.163,29.163,0,0,0-1.145-7.978c-.4-2.171-1.136-2.878-1.944-3.089a.513.513,0,0,0-.631.589,24.666,24.666,0,0,1,.463,2.861,20.476,20.476,0,0,1-.842,5.294c-.513,1.405-1.995,5.588-3.156,5.958-6.665,2.129-28.479,3.366-30.222,3.509a.968.968,0,0,0-.219,0l-23.632,4.528a63.116,63.116,0,0,1-6.884,2.525,71.229,71.229,0,0,1-8.416.4l2.39,17.051c11.9.774,14.105-4.157,17.808-7.221,3.24-2.693,19.416-9.123,19.416-9.123,22.184-.842,30.769-7.069,31.139-7.238C312.012,170.336,315.866,170.7,316.851,169.394Z" transform="translate(-105.005 -71.428)" fill="#fff" stroke="#263238" stroke-linecap="round" stroke-linejoin="round" stroke-width="1"/>
      <path id="Caminho_1003" data-name="Caminho 1003" d="M274.031,184.249c-1.288-5.05-2.853-7.515-4.031-8.719l-14.879,2.853a63.116,63.116,0,0,1-6.884,2.525,71.229,71.229,0,0,1-8.416.4l2.39,17.051c11.9.774,14.105-4.157,17.808-7.221C262.013,189.475,269.015,186.37,274.031,184.249Z" transform="translate(-105.005 -75.174)" fill="#3264a8"/>
      <g id="Grupo_32" data-name="Grupo 32" transform="translate(134.815 100.356)" clip-path="url(#clip-path-9)">
        <path id="Caminho_1004" data-name="Caminho 1004" d="M274.031,184.249c-1.288-5.05-2.853-7.515-4.031-8.719l-14.879,2.853a63.116,63.116,0,0,1-6.884,2.525,71.229,71.229,0,0,1-8.416.4l2.39,17.051c11.9.774,14.105-4.157,17.808-7.221C262.013,189.475,269.015,186.37,274.031,184.249Z" transform="translate(-239.82 -175.53)" opacity="0.3"/>
      </g>
      <path id="Caminho_1006" data-name="Caminho 1006" d="M274.031,184.249c-1.288-5.05-2.853-7.515-4.031-8.719l-14.879,2.853a63.116,63.116,0,0,1-6.884,2.525,71.229,71.229,0,0,1-8.416.4l2.39,17.051c11.9.774,14.105-4.157,17.808-7.221C262.013,189.475,269.015,186.37,274.031,184.249Z" transform="translate(-105.005 -75.174)" fill="none" stroke="#263238" stroke-linecap="round" stroke-linejoin="round" stroke-width="1"/>
      <path id="Caminho_1007" data-name="Caminho 1007" d="M189.356,174.051a57.658,57.658,0,0,0,3.922-8.744c1.052-3.089.892-6.388,2.609-8.786,0,0-1.262,2.07-6.489,4.738-4.149,2.129-9.712,5.841-9.712,5.841l-1.986-4.46s20.383-16.546,23.354-14.105c3.467,2.845-2.188,24.5-2.188,24.5Z" transform="translate(-95.165 -70.858)" fill="#fff"/>
      <g id="Grupo_33" data-name="Grupo 33" transform="translate(82.535 77.43)" clip-path="url(#clip-path-10)">
        <path id="Caminho_1008" data-name="Caminho 1008" d="M190.62,175.819s7.179-4.629,13.129-4.107-3.711,8.163-3.711,8.163l-7.574.892Z" transform="translate(-179.747 -151.992)" opacity="0.2"/>
      </g>
      <path id="Caminho_1010" data-name="Caminho 1010" d="M189.356,174.051a57.658,57.658,0,0,0,3.922-8.744c1.052-3.089.892-6.388,2.609-8.786,0,0-1.262,2.07-6.489,4.738-4.149,2.129-9.712,5.841-9.712,5.841l-1.986-4.46s20.383-16.546,23.354-14.105c3.467,2.845-2.188,24.5-2.188,24.5Z" transform="translate(-95.165 -70.858)" fill="none" stroke="#263238" stroke-linecap="round" stroke-linejoin="round" stroke-width="1"/>
      <path id="Caminho_1011" data-name="Caminho 1011" d="M267.215,155.816c-6.463.741-30.365,23.8-30.365,23.8-16.832-4.721-18.035-3.156-24.044-4.208-5.454-.943-9.754-4.3-22.033-2.239a21.688,21.688,0,0,0-5.815,1.683l-.564-.227s3.122-4.208,3.24-4.688-6.531-4.208-6.531-4.208.286-1.818-.1-2.037c-.724-.412-1.54-.379-3.265-.269a17.93,17.93,0,0,1-5.05-1.086s-2.525,3.24-2.676,3.594-1.961,2.525-2.112,2.777,3.232,8.34,7.389,8.483c3.181.109,5.5,1.33,5.891,2.264a3.956,3.956,0,0,1,.32,1.683s41.314,21.107,58.642,12.043c3.812-1.995,6.733-6.909,9.948-9.594a116.5,116.5,0,0,0,18.406-19.441c5.891,5.487,24.953,13.171,24.953,13.171l3-4.721S273.679,155.075,267.215,155.816Z" transform="translate(-93.612 -72.047)" fill="#fff"/>
      <g id="Grupo_34" data-name="Grupo 34" transform="translate(74.282 83.746)" clip-path="url(#clip-path-11)">
        <path id="Caminho_1012" data-name="Caminho 1012" d="M176.016,182.43s4.258-.05,6.59-1.456c.917-.555.791.656,1.91,1.835s3.366-1.683,9.56,2.643S205.152,190,207.828,188.2c3.652-2.449,8.113,9.359,26.35,6.935,13.373-1.776,16.781-7.524,16.781-7.524l8.273,4.208-1.288,5.6-22.723,19.6-45.993-5.3L174.8,200.33l-1.456-10.511Z" transform="translate(-168.757 -159.76)" opacity="0.2"/>
      </g>
      <path id="Caminho_1014" data-name="Caminho 1014" d="M267.215,155.816c-6.463.741-30.365,23.8-30.365,23.8-16.832-4.721-18.035-3.156-24.044-4.208-5.454-.943-9.754-4.3-22.033-2.239a21.688,21.688,0,0,0-5.815,1.683l-.564-.227s3.122-4.208,3.24-4.688-6.531-4.208-6.531-4.208.286-1.818-.1-2.037c-.724-.412-1.54-.379-3.265-.269a17.93,17.93,0,0,1-5.05-1.086s-2.525,3.24-2.676,3.594-1.961,2.525-2.112,2.777,3.232,8.34,7.389,8.483c3.181.109,5.5,1.33,5.891,2.264a3.956,3.956,0,0,1,.32,1.683s41.314,21.107,58.642,12.043c3.812-1.995,6.733-6.909,9.948-9.594a116.5,116.5,0,0,0,18.406-19.441c5.891,5.487,24.953,13.171,24.953,13.171l3-4.721S273.679,155.075,267.215,155.816Z" transform="translate(-93.612 -72.047)" fill="none" stroke="#263238" stroke-linecap="round" stroke-linejoin="round" stroke-width="1"/>
      <path id="Caminho_1015" data-name="Caminho 1015" d="M176.839,166.25s-.7.623-.051,1.927" transform="translate(-94.977 -73.704)" fill="none" stroke="#263238" stroke-linecap="round" stroke-linejoin="round" stroke-width="1"/>
      <path id="Caminho_1016" data-name="Caminho 1016" d="M186.26,171.27a3,3,0,0,1-1.91,2.079" transform="translate(-96.218 -74.499)" fill="none" stroke="#263238" stroke-linecap="round" stroke-linejoin="round" stroke-width="1"/>
      <path id="Caminho_1017" data-name="Caminho 1017" d="M178.085,178.192s-3.442-5.63-3.72-6.337.959.219,1.321-.488-1.809-.959-2.979-2.037-.311-1.624-.892-2.777c0,0,4.974-9.687-2.087-9.762-6.16-.067-2.845,6.935-3.871,8.29s-6.657,6.371-.227,10.1C171.192,178.4,178.085,178.192,178.085,178.192Z" transform="translate(-92.772 -72.205)" fill="#263238" stroke="#263238" stroke-linecap="round" stroke-linejoin="round" stroke-width="1"/>
      <path id="Caminho_1018" data-name="Caminho 1018" d="M176.93,174.46s-2.828.547-1.506,2.18c1.523,1.885,3.779,1.22,3.922.1" transform="translate(-94.749 -75.004)" fill="#fff" stroke="#263238" stroke-linecap="round" stroke-linejoin="round" stroke-width="1"/>
      <path id="Caminho_1019" data-name="Caminho 1019" d="M170.87,171.7a1.776,1.776,0,0,0,.446.842" transform="translate(-94.083 -74.567)" fill="none" stroke="#7f7f7f" stroke-linecap="round" stroke-linejoin="round" stroke-width="0.75"/>
      <path id="Caminho_1020" data-name="Caminho 1020" d="M170.09,158.3a1.363,1.363,0,0,1,1.018.143c2.121,1.161-.269,6.4-.463,9.72" transform="translate(-93.96 -72.438)" fill="none" stroke="#7f7f7f" stroke-linecap="round" stroke-linejoin="round" stroke-width="0.75"/>
      <path id="Caminho_1021" data-name="Caminho 1021" d="M168.14,159.861a4.377,4.377,0,0,1,.581-.741" transform="translate(-93.651 -72.574)" fill="none" stroke="#7f7f7f" stroke-linecap="round" stroke-linejoin="round" stroke-width="0.75"/>
      <path id="Caminho_1022" data-name="Caminho 1022" d="M169.93,178a11.169,11.169,0,0,0,1.161.362" transform="translate(-93.934 -75.565)" fill="none" stroke="#7f7f7f" stroke-linecap="round" stroke-linejoin="round" stroke-width="0.75"/>
      <path id="Caminho_1023" data-name="Caminho 1023" d="M169.875,161.85c-.656,2.794-7.044,10.1-1.506,13.12" transform="translate(-93.332 -73.007)" fill="none" stroke="#7f7f7f" stroke-linecap="round" stroke-linejoin="round" stroke-width="0.75"/>
      <path id="Caminho_1024" data-name="Caminho 1024" d="M168.74,161.276s.926-1.237,1.49-.454" transform="translate(-93.746 -72.803)" fill="none" stroke="#7f7f7f" stroke-linecap="round" stroke-linejoin="round" stroke-width="0.75"/>
      <path id="Caminho_1025" data-name="Caminho 1025" d="M178.583,161.47S176.9,168.615,177.6,169l-.379,2.735.766.051.749-2.626s2.239,0,2.525-1.683-1.683-2.525-1.633-3.139,2.112.219,2.222-1.111S178.583,161.47,178.583,161.47Z" transform="translate(-95.089 -72.946)" fill="#263238" stroke="#263238" stroke-linecap="round" stroke-linejoin="round" stroke-width="0.5"/>
      <path id="Caminho_1026" data-name="Caminho 1026" d="M264.063,167.21c-7.936,6.615-15.822,14.214-15.822,14.214-2.735-.766-5.05-1.363-7.044-1.835.135,2.331.555,12.2-1.4,17.673,4.469.067,8.517-.572,11.74-2.255,3.812-1.995,6.733-6.909,9.948-9.586A117.914,117.914,0,0,0,272.5,174.86a16.7,16.7,0,0,0-8.441-7.65Z" transform="translate(-105.002 -73.856)" fill="#3264a8"/>
      <g id="Grupo_35" data-name="Grupo 35" transform="translate(134.798 93.354)" clip-path="url(#clip-path-12)">
        <path id="Caminho_1027" data-name="Caminho 1027" d="M249.3,193.179s-.842-3.03-3.021-2.121-2.323,3.148-.3,4.7c0,0-4.284.842-2.356,3.467,2.154,2.929,4.208-.909,4.208-.909s1.246,3.232,3.77,1.515-.4-4.073-.4-4.073,3.366-.976,2.02-3.19S249.3,193.179,249.3,193.179Z" transform="translate(-240.326 -170.961)" fill="#fff" opacity="0.5"/>
        <path id="Caminho_1028" data-name="Caminho 1028" d="M254.791,179.392s1.271-2.861-1.027-3.552-3.787,1-3.19,3.476c0,0-3.863-2.028-4.006,1.22-.16,3.627,3.863,1.952,3.863,1.952s-1.052,3.3,1.986,3.543,2.247-3.425,2.247-3.425,3.2,1.338,3.568-1.212S254.791,179.392,254.791,179.392Z" transform="translate(-240.872 -168.553)" fill="#fff" opacity="0.5"/>
        <path id="Caminho_1029" data-name="Caminho 1029" d="M276.435,182.151c-.328-2.525-3.854-.993-3.854-.993s.454-3.105-1.944-3.148-3.366,1.978-2.138,4.208c0,0-4.267-.909-3.535,2.264.842,3.535,4.208.842,4.208.842s-.135,3.459,2.861,2.887,1.246-3.9,1.246-3.9S276.763,184.734,276.435,182.151Z" transform="translate(-243.773 -168.921)" fill="#fff" opacity="0.5"/>
        <path id="Caminho_1030" data-name="Caminho 1030" d="M268.469,169.841s1.271,3.223,3.779,1.49-.429-4.073-.429-4.073,3.366-.993,1.995-3.206-3.93.631-3.93.631-.842-3.021-3.047-2.1-2.3,3.173-.269,4.7c0,0-4.267.842-2.323,3.493C266.416,173.7,268.469,169.841,268.469,169.841Z" transform="translate(-243.592 -166.45)" fill="#fff" opacity="0.5"/>
      </g>
      <path id="Caminho_1032" data-name="Caminho 1032" d="M264.063,167.21c-7.936,6.615-15.822,14.214-15.822,14.214-2.735-.766-5.05-1.363-7.044-1.835.135,2.331.555,12.2-1.4,17.673,4.469.067,8.517-.572,11.74-2.255,3.812-1.995,6.733-6.909,9.948-9.586A117.914,117.914,0,0,0,272.5,174.86a16.7,16.7,0,0,0-8.441-7.65Z" transform="translate(-105.002 -73.856)" fill="none" stroke="#263238" stroke-linecap="round" stroke-linejoin="round" stroke-width="1"/>
      <g id="Grupo_36" data-name="Grupo 36" transform="translate(134.798 93.354)" clip-path="url(#clip-path-13)">
        <path id="Caminho_1033" data-name="Caminho 1033" d="M176.016,182.25s5.235-.126,7.238-1.969.143,1.17,1.262,2.348,3.366-1.683,9.56,2.643,11.075,4.545,13.752,2.752c3.652-2.449,8.113,9.359,26.35,6.935,13.373-1.776,16.781-7.524,16.781-7.524l8.273,4.208-1.288,5.6-22.723,19.6-45.993-5.3L174.8,200.15l-1.456-10.511Z" transform="translate(-229.272 -169.188)" opacity="0.2"/>
      </g>
      <path id="Caminho_1035" data-name="Caminho 1035" d="M242.761,180.794s1.363-4.023-.842-3.854c-1.809.135-.446,3.324.151,4.553a.606.606,0,0,0,.749.32c1.481-.463,5.58-1.91,4.351-3.173C245.648,177.116,242.761,180.794,242.761,180.794Zm-.774-3.156c.842-.185.151,2.828.151,2.828S241.162,177.831,241.987,177.638Zm1.683,3.223s2.02-2.525,2.693-1.919-2.735,1.919-2.735,1.919Z" transform="translate(-105.195 -75.396)" fill="#263238"/>
      <path id="Caminho_1036" data-name="Caminho 1036" d="M182.51,186.859s3.787-3.745,8.172-1.868c.842.37,2.011,1.5,3.274,2.129,5.05,2.525,12.405,6.127,14.585,9.258Z" transform="translate(-95.927 -76.589)" fill="#fff" stroke="#263238" stroke-linecap="round" stroke-linejoin="round" stroke-width="1"/>
      <path id="Caminho_1037" data-name="Caminho 1037" d="M155.48,167.944s34.505,23.7,78.664,23.026c24.659-.379,52.33-12.1,78.664-30.76C312.807,160.21,237.99,272.647,155.48,167.944Z" transform="translate(-91.645 -72.747)" fill="#3264a8"/>
      <g id="Grupo_37" data-name="Grupo 37" transform="translate(63.835 87.463)" clip-path="url(#clip-path-14)">
        <path id="Caminho_1038" data-name="Caminho 1038" d="M151.016,167.952s24.1,35.852,71.973,35.852c59.021,0,85.388-43.544,85.388-43.544l19.651,24.356,6.051,41.246-54.821,40.22-67.21,2.457-49.873-6.665-11.16-17.859s-22.2,27.848-17.362-25.736-6.354-42.921-6.354-42.921l11.2-10.629Z" transform="translate(-151.016 -160.218)" opacity="0.2"/>
      </g>
      <path id="Caminho_1040" data-name="Caminho 1040" d="M155.48,167.944s34.505,23.7,78.664,23.026c24.659-.379,52.33-12.1,78.664-30.76C312.807,160.21,237.99,272.647,155.48,167.944Z" transform="translate(-91.645 -72.747)" fill="none" stroke="#263238" stroke-linecap="round" stroke-linejoin="round" stroke-width="1"/>
      <path id="Caminho_1041" data-name="Caminho 1041" d="M151.154,205.063c-4.713-42.45,5.815-105.595,5.815-105.595L143.992,97.23C129.828,149.215,127.32,181.894,127,195.881A62.211,62.211,0,0,0,151.154,205.063Z" transform="translate(-87.134 -62.77)" fill="#3264a8" stroke="#263238" stroke-linecap="round" stroke-linejoin="round" stroke-width="1"/>
      <path id="Caminho_1042" data-name="Caminho 1042" d="M151.793,197.994c-.917-.118-1.894-.21-2.9-.286-5.563-.379-10.1.168-10.2,1.22s4.376,2.222,9.939,2.609c1.119.076,2.2.109,3.206.118C151.819,200.459,151.8,199.222,151.793,197.994Z" transform="translate(-88.985 -78.668)" fill="#999" stroke="#263238" stroke-linecap="round" stroke-linejoin="round" stroke-width="1"/>
      <path id="Caminho_1043" data-name="Caminho 1043" d="M140.732,168.795c.067-.985-3.838-2.079-8.9-2.525-.21,1.288-.412,2.525-.6,3.787C136.473,170.352,140.664,169.813,140.732,168.795Z" transform="translate(-87.804 -73.707)" fill="#999" stroke="#263238" stroke-linecap="round" stroke-linejoin="round" stroke-width="1"/>
      <path id="Caminho_1044" data-name="Caminho 1044" d="M140.826,129.891c4.444.665,8.13.606,8.239-.126s-3.366-1.86-7.844-2.525c-.564-.084-1.111-.151-1.641-.21q-.3,1.288-.581,2.525C139.589,129.689,140.2,129.8,140.826,129.891Z" transform="translate(-89.035 -67.491)" fill="#999" stroke="#263238" stroke-linecap="round" stroke-linejoin="round" stroke-width="1"/>
      <path id="Caminho_1045" data-name="Caminho 1045" d="M144.79,156.955c-.067,1,3.955,2.1,9.14,2.525.093-1.279.194-2.525.295-3.812C149.015,155.407,144.857,155.937,144.79,156.955Z" transform="translate(-89.952 -72.017)" fill="#999" stroke="#263238" stroke-linecap="round" stroke-linejoin="round" stroke-width="1"/>
      <path id="Caminho_1046" data-name="Caminho 1046" d="M97.665,75.024S86.741,78.053,79.63,83.1c0,0,4.974,1.742,30.743-3.838,0,0-15.99,7.852-15.216,10.234s23.068-5.639,23.068-5.639-12.136,7.473-10.848,9.569,17.673-5.647,17.673-5.647-10.276,7.692-8.811,9.7,15.039-5.849,15.039-5.849-7.785,7.911-6.859,9.333,13.221-7.095,13.221-7.095a34.337,34.337,0,0,0-14.98-17.825,32.746,32.746,0,0,0-25-1.018Z" transform="translate(-79.63 -58.936)" fill="#3264a8"/>
      <g id="Grupo_38" data-name="Grupo 38" transform="translate(0 14.089)" clip-path="url(#clip-path-15)">
        <path id="Caminho_1047" data-name="Caminho 1047" d="M97.665,75.024S86.741,78.053,79.63,83.1c0,0,4.974,1.742,30.743-3.838,0,0-15.99,7.852-15.216,10.234s23.068-5.639,23.068-5.639-12.136,7.473-10.848,9.569,17.673-5.647,17.673-5.647-10.276,7.692-8.811,9.7,15.039-5.849,15.039-5.849-7.785,7.911-6.859,9.333,13.221-7.095,13.221-7.095a34.337,34.337,0,0,0-14.98-17.825,32.746,32.746,0,0,0-25-1.018Z" transform="translate(-79.63 -73.025)" opacity="0.3"/>
      </g>
      <path id="Caminho_1049" data-name="Caminho 1049" d="M97.665,75.024S86.741,78.053,79.63,83.1c0,0,4.974,1.742,30.743-3.838,0,0-15.99,7.852-15.216,10.234s23.068-5.639,23.068-5.639-12.136,7.473-10.848,9.569,17.673-5.647,17.673-5.647-10.276,7.692-8.811,9.7,15.039-5.849,15.039-5.849-7.785,7.911-6.859,9.333,13.221-7.095,13.221-7.095a34.337,34.337,0,0,0-14.98-17.825,32.746,32.746,0,0,0-25-1.018Z" transform="translate(-79.63 -58.936)" fill="none" stroke="#263238" stroke-linecap="round" stroke-linejoin="round" stroke-width="1"/>
      <path id="Caminho_1050" data-name="Caminho 1050" d="M139.644,97.179a1.389,1.389,0,0,1-2.112-.732c-2.045-6.808-14.08-37.4-57.9-13.415,0,0,18.162-13.465,37.156-9.838C133.526,76.3,139.105,91.9,140.2,95.554a1.448,1.448,0,0,1-.488,1.574Z" transform="translate(-79.63 -58.864)" fill="#3264a8" stroke="#263238" stroke-linecap="round" stroke-linejoin="round" stroke-width="1"/>
      <path id="Caminho_1051" data-name="Caminho 1051" d="M116.342,57.581s-11.176-1.927-19.752-.438c0,0,3.754,3.7,29.456,9.7,0,0-17.774.269-18.128,2.735s23.262,4.772,23.262,4.772-14.164,1.565-13.895,4.014S135.623,80.8,135.623,80.8s-12.573,2.525-12.111,4.991,16.142,1.2,16.142,1.2-10.427,3.8-10.192,5.5,14.98-.757,14.98-.757A34.37,34.37,0,0,0,138.552,69.2,32.73,32.73,0,0,0,116.342,57.581Z" transform="translate(-82.317 -56.331)" fill="#3264a8"/>
      <g id="Grupo_39" data-name="Grupo 39" transform="translate(14.273 0.248)" clip-path="url(#clip-path-16)">
        <path id="Caminho_1052" data-name="Caminho 1052" d="M116.342,57.581s-11.176-1.927-19.752-.438c0,0,3.754,3.7,29.456,9.7,0,0-17.774.269-18.128,2.735s23.262,4.772,23.262,4.772-14.164,1.565-13.895,4.014S135.623,80.8,135.623,80.8s-12.573,2.525-12.111,4.991,16.142,1.2,16.142,1.2-10.427,3.8-10.192,5.5,14.98-.757,14.98-.757A34.37,34.37,0,0,0,138.552,69.2,32.73,32.73,0,0,0,116.342,57.581Z" transform="translate(-96.59 -56.579)" opacity="0.3"/>
      </g>
      <path id="Caminho_1054" data-name="Caminho 1054" d="M116.342,57.581s-11.176-1.927-19.752-.438c0,0,3.754,3.7,29.456,9.7,0,0-17.774.269-18.128,2.735s23.262,4.772,23.262,4.772-14.164,1.565-13.895,4.014S135.623,80.8,135.623,80.8s-12.573,2.525-12.111,4.991,16.142,1.2,16.142,1.2-10.427,3.8-10.192,5.5,14.98-.757,14.98-.757A34.37,34.37,0,0,0,138.552,69.2,32.73,32.73,0,0,0,116.342,57.581Z" transform="translate(-82.317 -56.331)" fill="none" stroke="#263238" stroke-linecap="round" stroke-linejoin="round" stroke-width="1"/>
      <path id="Caminho_1055" data-name="Caminho 1055" d="M144.763,95.6a1.38,1.38,0,0,1-1.591-1.574C144.216,87,146.454,54.2,96.59,57.105c0,0,22.168-4.359,37.8,7.01,13.768,10.023,12.153,26.485,11.572,30.3a1.456,1.456,0,0,1-1.119,1.212Z" transform="translate(-82.317 -56.284)" fill="#3264a8" stroke="#263238" stroke-linecap="round" stroke-linejoin="round" stroke-width="1"/>
      <path id="Caminho_1056" data-name="Caminho 1056" d="M190.856,64.827s11.345.109,19.508,3.114c0,0-4.351,2.971-30.684,4.258,0,0,17.446,3.451,17.354,5.942s-23.75.522-23.75.522,13.659,4.082,12.961,6.438-18.515-.842-18.515-.842,11.917,4.763,11.025,7.078-16.091-1.683-16.091-1.683,9.569,5.622,9.039,7.238-14.6-3.434-14.6-3.434a34.345,34.345,0,0,1,9.847-21.1,32.771,32.771,0,0,1,23.91-7.532Z" transform="translate(-91.902 -57.618)" fill="#3264a8"/>
      <g id="Grupo_40" data-name="Grupo 40" transform="translate(65.198 7.084)" clip-path="url(#clip-path-17)">
        <path id="Caminho_1057" data-name="Caminho 1057" d="M190.856,64.827s11.345.109,19.508,3.114c0,0-4.351,2.971-30.684,4.258,0,0,17.446,3.451,17.354,5.942s-23.75.522-23.75.522,13.659,4.082,12.961,6.438-18.515-.842-18.515-.842,11.917,4.763,11.025,7.078-16.091-1.683-16.091-1.683,9.569,5.622,9.039,7.238-14.6-3.434-14.6-3.434a34.345,34.345,0,0,1,9.847-21.1,32.771,32.771,0,0,1,23.91-7.532Z" transform="translate(-157.1 -64.702)" opacity="0.3"/>
      </g>
      <path id="Caminho_1059" data-name="Caminho 1059" d="M190.856,64.827s11.345.109,19.508,3.114c0,0-4.351,2.971-30.684,4.258,0,0,17.446,3.451,17.354,5.942s-23.75.522-23.75.522,13.659,4.082,12.961,6.438-18.515-.842-18.515-.842,11.917,4.763,11.025,7.078-16.091-1.683-16.091-1.683,9.569,5.622,9.039,7.238-14.6-3.434-14.6-3.434a34.345,34.345,0,0,1,9.847-21.1,32.771,32.771,0,0,1,23.91-7.532Z" transform="translate(-91.902 -57.618)" fill="none" stroke="#263238" stroke-linecap="round" stroke-linejoin="round" stroke-width="1"/>
      <path id="Caminho_1060" data-name="Caminho 1060" d="M155.7,97.093a1.389,1.389,0,0,0,1.852-1.262c.227-7.1,3.913-39.765,52.44-27.966,0,0-21.04-8.273-38.436.118-15.342,7.389-16.706,23.876-16.832,27.68a1.439,1.439,0,0,0,.842,1.4Z" transform="translate(-91.524 -57.542)" fill="#3264a8" stroke="#263238" stroke-linecap="round" stroke-linejoin="round" stroke-width="1"/>
      <path id="Caminho_1061" data-name="Caminho 1061" d="M203.792,84.252s10.276,4.747,16.52,10.84c0,0-5.193.917-29.733-8.7,0,0,14.492,10.3,13.381,12.54s-21.881-9.258-21.881-9.258,10.781,9.316,9.173,11.176-16.5-8.416-16.5-8.416,8.912,9.258,7.145,10.941-13.97-8.163-13.97-8.163,6.43,9.047,5.285,10.3S161.3,96.4,161.3,96.4a34.362,34.362,0,0,1,17.673-15.208,32.772,32.772,0,0,1,24.819,3.063Z" transform="translate(-92.567 -60.043)" fill="#3264a8"/>
      <g id="Grupo_41" data-name="Grupo 41" transform="translate(68.733 19.97)" clip-path="url(#clip-path-18)">
        <path id="Caminho_1062" data-name="Caminho 1062" d="M203.792,84.252s10.276,4.747,16.52,10.84c0,0-5.193.917-29.733-8.7,0,0,14.492,10.3,13.381,12.54s-21.881-9.258-21.881-9.258,10.781,9.316,9.173,11.176-16.5-8.416-16.5-8.416,8.912,9.258,7.145,10.941-13.97-8.163-13.97-8.163,6.43,9.047,5.285,10.3S161.3,96.4,161.3,96.4a34.362,34.362,0,0,1,17.673-15.208,32.772,32.772,0,0,1,24.819,3.063Z" transform="translate(-161.3 -80.013)" opacity="0.3"/>
      </g>
      <path id="Caminho_1064" data-name="Caminho 1064" d="M203.792,84.252s10.276,4.747,16.52,10.84c0,0-5.193.917-29.733-8.7,0,0,14.492,10.3,13.381,12.54s-21.881-9.258-21.881-9.258,10.781,9.316,9.173,11.176-16.5-8.416-16.5-8.416,8.912,9.258,7.145,10.941-13.97-8.163-13.97-8.163,6.43,9.047,5.285,10.3S161.3,96.4,161.3,96.4a34.362,34.362,0,0,1,17.673-15.208,32.772,32.772,0,0,1,24.819,3.063Z" transform="translate(-92.567 -60.043)" fill="none" stroke="#263238" stroke-linecap="round" stroke-linejoin="round" stroke-width="1"/>
      <path id="Caminho_1065" data-name="Caminho 1065" d="M158.257,99.374a1.38,1.38,0,0,0,2.2-.387c3.131-6.388,19.878-34.674,59.307-4.006,0,0-15.78-16.167-35.1-15.654-17.034.446-25,14.921-26.687,18.355a1.456,1.456,0,0,0,.227,1.633Z" transform="translate(-92.016 -59.933)" fill="#3264a8" stroke="#263238" stroke-linecap="round" stroke-linejoin="round" stroke-width="1"/>
      <path id="Caminho_1066" data-name="Caminho 1066" d="M147.924,169.732c-10.554,0-16.369-4.662-16.638-4.89a1.22,1.22,0,0,1,1.54-1.894c.1.076,6.783,5.361,18.624,4.157a1.212,1.212,0,1,1,.244,2.407A37.109,37.109,0,0,1,147.924,169.732Z" transform="translate(-87.741 -73.137)" fill="#fff" stroke="#263238" stroke-linecap="round" stroke-linejoin="round" stroke-width="1"/>
      <path id="Caminho_1067" data-name="Caminho 1067" d="M341.832,222.255c10.638-2.954,19.407-7.759,25-13.676-.564-15.612-3.636-48.442-17.421-99.089L336,111.788S347.16,178.526,341.832,222.255Z" transform="translate(-120.241 -64.712)" fill="#3264a8" stroke="#263238" stroke-linecap="round" stroke-linejoin="round" stroke-width="1"/>
      <path id="Caminho_1068" data-name="Caminho 1068" d="M344.63,213.292c.943-.118,1.953-.219,3-.286,5.723-.4,10.427.168,10.5,1.254s-4.511,2.289-10.234,2.685c-1.161.084-2.272.118-3.316.126C344.605,215.817,344.622,214.555,344.63,213.292Z" transform="translate(-121.6 -81.09)" fill="#999" stroke="#263238" stroke-linecap="round" stroke-linejoin="round" stroke-width="1"/>
      <path id="Caminho_1069" data-name="Caminho 1069" d="M356.73,183.219c-.067-1.027,3.955-2.146,9.182-2.609.21,1.33.421,2.634.614,3.9C361.165,184.818,356.806,184.3,356.73,183.219Z" transform="translate(-123.525 -75.978)" fill="#999" stroke="#263238" stroke-linecap="round" stroke-linejoin="round" stroke-width="1"/>
      <path id="Caminho_1070" data-name="Caminho 1070" d="M356.523,143.134c-4.57.682-8.374.623-8.483-.126s3.509-1.919,8.079-2.6l1.683-.227c.21.842.4,1.767.6,2.634C357.81,142.932,357.179,143.033,356.523,143.134Z" transform="translate(-122.148 -69.574)" fill="#999" stroke="#263238" stroke-linecap="round" stroke-linejoin="round" stroke-width="1"/>
      <path id="Caminho_1071" data-name="Caminho 1071" d="M352.57,171.019c.067,1.035-4.082,2.171-9.417,2.617-.1-1.321-.2-2.626-.3-3.922C348.219,169.42,352.5,169.942,352.57,171.019Z" transform="translate(-121.326 -74.24)" fill="#999" stroke="#263238" stroke-linecap="round" stroke-linejoin="round" stroke-width="1"/>
      <path id="Caminho_1072" data-name="Caminho 1072" d="M391.039,86.3s11.067,3.089,18.271,8.172c0,0-5.05,1.759-31.139-3.888,0,0,16.159,7.953,15.41,10.36s-23.363-5.714-23.363-5.714,12.287,7.574,10.983,9.7-17.842-5.731-17.842-5.731,10.4,7.785,8.921,9.813-15.292-5.891-15.292-5.891,7.894,8,6.952,9.451-13.39-7.2-13.39-7.2A34.817,34.817,0,0,1,365.7,87.325a33.192,33.192,0,0,1,25.34-1.027Z" transform="translate(-122.546 -60.717)" fill="#3264a8"/>
      <g id="Grupo_42" data-name="Grupo 42" transform="translate(228.004 23.551)" clip-path="url(#clip-path-19)">
        <path id="Caminho_1073" data-name="Caminho 1073" d="M391.039,86.3s11.067,3.089,18.271,8.172c0,0-5.05,1.759-31.139-3.888,0,0,16.159,7.953,15.41,10.36s-23.363-5.714-23.363-5.714,12.287,7.574,10.983,9.7-17.842-5.731-17.842-5.731,10.4,7.785,8.921,9.813-15.292-5.891-15.292-5.891,7.894,8,6.952,9.451-13.39-7.2-13.39-7.2A34.817,34.817,0,0,1,365.7,87.325a33.192,33.192,0,0,1,25.34-1.027Z" transform="translate(-350.55 -84.269)" opacity="0.3"/>
      </g>
      <path id="Caminho_1075" data-name="Caminho 1075" d="M391.039,86.3s11.067,3.089,18.271,8.172c0,0-5.05,1.759-31.139-3.888,0,0,16.159,7.953,15.41,10.36s-23.363-5.714-23.363-5.714,12.287,7.574,10.983,9.7-17.842-5.731-17.842-5.731,10.4,7.785,8.921,9.813-15.292-5.891-15.292-5.891,7.894,8,6.952,9.451-13.39-7.2-13.39-7.2A34.817,34.817,0,0,1,365.7,87.325a33.192,33.192,0,0,1,25.34-1.027Z" transform="translate(-122.546 -60.717)" fill="none" stroke="#263238" stroke-linecap="round" stroke-linejoin="round" stroke-width="1"/>
      <path id="Caminho_1076" data-name="Caminho 1076" d="M348.033,108.737a1.4,1.4,0,0,0,2.138-.749c2.1-6.884,14.265-37.872,58.642-13.592,0,0-18.4-13.609-37.628-9.973-16.95,3.206-22.605,18.969-23.708,22.664a1.464,1.464,0,0,0,.5,1.6Z" transform="translate(-122.048 -60.644)" fill="#3264a8" stroke="#263238" stroke-linecap="round" stroke-linejoin="round" stroke-width="1"/>
      <path id="Caminho_1077" data-name="Caminho 1077" d="M374.048,68.639s11.328-1.952,20-.446c0,0-3.8,3.754-29.792,9.821,0,0,18,.269,18.355,2.769s-23.565,4.831-23.565,4.831S373.4,87.2,373.13,89.678s-18.582,2.474-18.582,2.474,12.733,2.584,12.27,5.05-16.352,1.212-16.352,1.212,10.562,3.854,10.326,5.563-15.149-.766-15.149-.766A34.783,34.783,0,0,1,351.628,80.4a33.159,33.159,0,0,1,22.42-11.765Z" transform="translate(-121.747 -58.08)" fill="#3264a8"/>
      <g id="Grupo_43" data-name="Grupo 43" transform="translate(223.759 9.542)" clip-path="url(#clip-path-20)">
        <path id="Caminho_1078" data-name="Caminho 1078" d="M374.048,68.639s11.328-1.952,20-.446c0,0-3.8,3.754-29.792,9.821,0,0,18,.269,18.355,2.769s-23.565,4.831-23.565,4.831S373.4,87.2,373.13,89.678s-18.582,2.474-18.582,2.474,12.733,2.584,12.27,5.05-16.352,1.212-16.352,1.212,10.562,3.854,10.326,5.563-15.149-.766-15.149-.766A34.783,34.783,0,0,1,351.628,80.4a33.159,33.159,0,0,1,22.42-11.765Z" transform="translate(-345.506 -67.622)" opacity="0.3"/>
      </g>
      <path id="Caminho_1080" data-name="Caminho 1080" d="M374.048,68.639s11.328-1.952,20-.446c0,0-3.8,3.754-29.792,9.821,0,0,18,.269,18.355,2.769s-23.565,4.831-23.565,4.831S373.4,87.2,373.13,89.678s-18.582,2.474-18.582,2.474,12.733,2.584,12.27,5.05-16.352,1.212-16.352,1.212,10.562,3.854,10.326,5.563-15.149-.766-15.149-.766A34.783,34.783,0,0,1,351.628,80.4a33.159,33.159,0,0,1,22.42-11.765Z" transform="translate(-121.747 -58.08)" fill="none" stroke="#263238" stroke-linecap="round" stroke-linejoin="round" stroke-width="1"/>
      <path id="Caminho_1081" data-name="Caminho 1081" d="M344.922,107.126a1.4,1.4,0,0,0,1.616-1.591c-1.06-7.12-3.324-40.329,47.171-37.392,0,0-22.445-4.418-38.267,7.1-13.954,10.15-12.312,26.813-11.723,30.634a1.456,1.456,0,0,0,1.128,1.229Z" transform="translate(-121.403 -58.031)" fill="#3264a8" stroke="#263238" stroke-linecap="round" stroke-linejoin="round" stroke-width="1"/>
      <path id="Caminho_1082" data-name="Caminho 1082" d="M297.572,75.976s-11.488.109-19.752,3.156c0,0,4.4,3,31.072,4.309,0,0-17.673,3.493-17.572,6.017s24.053.53,24.053.53-13.836,4.132-13.12,6.522,18.717-.9,18.717-.9-12.068,4.822-11.16,7.17,16.293-1.742,16.293-1.742-9.7,5.689-9.157,7.33,14.8-3.476,14.8-3.476A34.859,34.859,0,0,0,321.734,83.55a33.175,33.175,0,0,0-24.162-7.574Z" transform="translate(-111.025 -59.383)" fill="#3264a8"/>
      <g id="Grupo_44" data-name="Grupo 44" transform="translate(166.795 16.465)" clip-path="url(#clip-path-21)">
        <path id="Caminho_1083" data-name="Caminho 1083" d="M297.572,75.976s-11.488.109-19.752,3.156c0,0,4.4,3,31.072,4.309,0,0-17.673,3.493-17.572,6.017s24.053.53,24.053.53-13.836,4.132-13.12,6.522,18.717-.9,18.717-.9-12.068,4.822-11.16,7.17,16.293-1.742,16.293-1.742-9.7,5.689-9.157,7.33,14.8-3.476,14.8-3.476A34.859,34.859,0,0,0,321.734,83.55a33.175,33.175,0,0,0-24.162-7.574Z" transform="translate(-277.82 -75.848)" opacity="0.3"/>
      </g>
      <path id="Caminho_1085" data-name="Caminho 1085" d="M297.572,75.976s-11.488.109-19.752,3.156c0,0,4.4,3,31.072,4.309,0,0-17.673,3.493-17.572,6.017s24.053.53,24.053.53-13.836,4.132-13.12,6.522,18.717-.9,18.717-.9-12.068,4.822-11.16,7.17,16.293-1.742,16.293-1.742-9.7,5.689-9.157,7.33,14.8-3.476,14.8-3.476A34.859,34.859,0,0,0,321.734,83.55a33.175,33.175,0,0,0-24.162-7.574Z" transform="translate(-111.025 -59.383)" fill="none" stroke="#263238" stroke-linecap="round" stroke-linejoin="round" stroke-width="1"/>
      <path id="Caminho_1086" data-name="Caminho 1086" d="M332.8,108.643a1.389,1.389,0,0,1-1.868-1.271c-.236-7.2-3.964-40.279-53.113-28.32,0,0,21.284-8.416,38.924.118,15.536,7.482,16.916,24.171,17.025,28.033a1.473,1.473,0,0,1-.892,1.414Z" transform="translate(-111.025 -59.304)" fill="#3264a8" stroke="#263238" stroke-linecap="round" stroke-linejoin="round" stroke-width="1"/>
      <path id="Caminho_1087" data-name="Caminho 1087" d="M283.381,95.649s-10.436,4.814-16.731,10.941c0,0,5.252.934,30.112-8.811,0,0-14.677,10.436-13.558,12.691s22.151-9.308,22.151-9.308S294.414,110.6,296.1,112.49,312.8,104,312.8,104s-9.03,9.342-7.246,11.117,14.156-8.273,14.156-8.273-6.514,9.165-5.353,10.436,12.068-9.258,12.068-9.258a34.8,34.8,0,0,0-17.859-15.4,33.2,33.2,0,0,0-25.189,3.03Z" transform="translate(-109.255 -61.846)" fill="#3264a8"/>
      <g id="Grupo_45" data-name="Grupo 45" transform="translate(157.395 29.55)" clip-path="url(#clip-path-22)">
        <path id="Caminho_1088" data-name="Caminho 1088" d="M283.381,95.649s-10.436,4.814-16.731,10.941c0,0,5.252.934,30.112-8.811,0,0-14.677,10.436-13.558,12.691s22.151-9.308,22.151-9.308S294.414,110.6,296.1,112.49,312.8,104,312.8,104s-9.03,9.342-7.246,11.117,14.156-8.273,14.156-8.273-6.514,9.165-5.353,10.436,12.068-9.258,12.068-9.258a34.8,34.8,0,0,0-17.859-15.4,33.2,33.2,0,0,0-25.189,3.03Z" transform="translate(-266.65 -91.396)" opacity="0.3"/>
      </g>
      <path id="Caminho_1090" data-name="Caminho 1090" d="M283.381,95.649s-10.436,4.814-16.731,10.941c0,0,5.252.934,30.112-8.811,0,0-14.677,10.436-13.558,12.691s22.151-9.308,22.151-9.308S294.414,110.6,296.1,112.49,312.8,104,312.8,104s-9.03,9.342-7.246,11.117,14.156-8.273,14.156-8.273-6.514,9.165-5.353,10.436,12.068-9.258,12.068-9.258a34.8,34.8,0,0,0-17.859-15.4,33.2,33.2,0,0,0-25.189,3.03Z" transform="translate(-109.255 -61.846)" fill="none" stroke="#263238" stroke-linecap="round" stroke-linejoin="round" stroke-width="1"/>
      <path id="Caminho_1091" data-name="Caminho 1091" d="M328.936,110.957a1.4,1.4,0,0,1-2.23-.387c-3.164-6.472-20.131-35.111-60.056-4.056,0,0,15.99-16.369,35.549-15.856,17.244.454,25.349,15.149,27.032,18.591a1.49,1.49,0,0,1-.236,1.683Z" transform="translate(-109.255 -61.727)" fill="#3264a8" stroke="#263238" stroke-linecap="round" stroke-linejoin="round" stroke-width="1"/>
      <path id="Caminho_1092" data-name="Caminho 1092" d="M357.426,161.319c-10.1,3.1-17.017.345-17.337.219a1.22,1.22,0,0,1-.656-1.582,1.2,1.2,0,0,1,1.574-.665c.118.051,8.062,3.139,19.028-1.5a1.22,1.22,0,0,1,1.582.648,1.2,1.2,0,0,1-.64,1.582A36.052,36.052,0,0,1,357.426,161.319Z" transform="translate(-120.771 -72.35)" fill="#fff" stroke="#263238" stroke-linecap="round" stroke-linejoin="round" stroke-width="1"/>
      <path id="Caminho_1093" data-name="Caminho 1093" d="M189.15,251.145c0-2.239,2.8-4.208,6.943-5.209a2.947,2.947,0,0,1-.059-.547c0-3.173,5.428-5.748,12.111-5.748,6.093,0,11.117,2.138,11.967,4.923,4.4.463,7.785,3.223,7.785,6.581s-3.467,6.194-7.945,6.6c-2.045,2.045-5.849,3.425-10.217,3.425-4.974,0-9.258-1.784-10.941-4.309C193.232,256.11,189.15,253.829,189.15,251.145Z" transform="translate(-96.979 -85.329)" fill="#fff" stroke="#263238" stroke-linecap="round" stroke-linejoin="round" stroke-width="1"/>
      <path id="Caminho_1094" data-name="Caminho 1094" d="M208.085,278.584c0-1.641-2.053-3.072-5.092-3.821a2.106,2.106,0,0,0,.042-.4c0-2.331-3.972-4.208-8.87-4.208-4.469,0-8.147,1.565-8.769,3.6-3.223.345-5.706,2.373-5.706,4.831s2.525,4.536,5.824,4.839c1.5,1.49,4.284,2.525,7.49,2.525,3.644,0,6.733-1.3,8.029-3.148C205.115,282.22,208.085,280.554,208.085,278.584Z" transform="translate(-95.48 -90.164)" fill="#fff" stroke="#263238" stroke-linecap="round" stroke-linejoin="round" stroke-width="1"/>
      <path id="Caminho_1095" data-name="Caminho 1095" d="M157.06,296.571c0,1.178,1.321,2.2,3.274,2.752a1.567,1.567,0,0,0,0,.286c0,1.683,2.525,3.038,5.706,3.038,2.87,0,5.235-1.128,5.639-2.6,2.07-.244,3.661-1.683,3.661-3.476s-1.633-3.274-3.737-3.493a6.539,6.539,0,0,0-4.814-1.809c-2.348,0-4.343.951-5.159,2.281C158.97,293.945,157.06,295.149,157.06,296.571Z" transform="translate(-91.896 -93.507)" fill="#fff" stroke="#263238" stroke-linecap="round" stroke-linejoin="round" stroke-width="1"/>
    </g>
  </g>
</svg>
