<svg width="1024" height="1024" viewBox="0 0 1024 1024" fill="none" xmlns="http://www.w3.org/2000/svg">
<g clip-path="url(#clip0)">
<path d="M57.9703 1.17192C79.107 74.3096 363.536 140.949 546.077 221.229C619.73 253.62 651.482 253.007 746.834 270.114C757.569 272.04 823.915 296.71 858.622 392.203C1064.44 386.351 1046.76 541.146 971.096 737.156C761.182 586.74 591.227 874.909 463.619 1024.66C553.443 783.871 827.176 557.608 971.717 671.469C1055.1 433.681 890.505 444.211 829.7 437.511C770.99 273.049 582.653 324.359 561.419 301.084L112.184 128.423C-28.6674 64.7302 69.9854 -6.08181 57.9703 1.17192Z" fill="#fff"/>
<path d="M20.6149 125.174C52.1802 196.477 245.8 235.468 480.122 331.717C502.018 340.711 537.036 352.104 549.298 373.514C577.731 423.155 618.638 476.93 606.391 509.387C604.559 514.241 613.185 525.548 613.185 525.548C719.942 592.99 616.786 591.078 628.242 602.858C643.953 619.013 655.468 629.322 633.239 637.712C654.156 650.4 627.069 667.431 631.219 673.633C656.109 710.833 633.977 733.116 600.035 739.782C521.933 762.983 455.647 773.705 451.168 959.346C442.929 710.576 493.714 757.672 539.23 731.747C563.514 717.916 583.539 694.135 559.359 677.916C555.409 675.267 585.272 643.198 549.951 651.989C539.419 654.61 569.836 641.29 571.285 633.256C572.052 628.999 556.644 614.408 565.132 607.063C587.606 587.617 611.588 590.434 557.47 555.934C522.864 531.267 552.556 510.958 546.053 503.063C542.813 499.128 544.166 492.335 541.571 487.551C478.788 371.82 450.878 403.813 406.083 377.104L57.4169 243.874C-12.7321 205.295 -11.4178 165.497 20.6149 125.174Z" fill="#fff"/>
<path d="M365.058 435.359C414.598 454.045 457.265 519.956 448.49 552.919C447.199 557.77 449.544 561.199 453.156 564.192C523.532 615.414 455.424 613.166 459.487 627.395C462.807 637.054 470.014 646.829 455.318 652.481C468.094 657.072 463.079 671.964 453.871 670.777C455.028 673.533 451.072 678.83 452.615 680.939C486.72 727.534 422.871 747.087 349.483 749.34C289.935 751.169 221.624 776.992 188.407 780.866C220.327 762.957 259.683 741.579 301.1 731.506C333.884 723.533 362.592 718.557 382.543 710.434C389.78 707.487 387.594 687.428 386.089 681.764C396.111 669.007 400.331 667.672 400.331 667.672C402.846 665.313 395.865 665.886 390.708 657.076C418.509 645.955 391.894 633.506 399.562 628.687C437.136 605.074 392.966 596.834 386.142 561.898C382.879 512.266 346.471 496.068 302.875 481.695C263.992 468.875 182.812 438.39 89.1554 402.585C47.6907 380.422 47.1846 358.15 46.5515 306.918C76.3884 343.331 280.127 405.855 365.058 435.359Z" fill="#fff"/>
<path d="M696.032 406.908L711.294 461.445L783.101 461.909L696.032 406.908Z" fill="#fff"/>
</g>
<defs>
<clipPath id="clip0">
<rect width="1024" height="1024" fill="white"/>
</clipPath>
</defs>
</svg>
