<svg xmlns="http://www.w3.org/2000/svg" width="349.891" height="66.82" viewBox="0 0 349.891 66.82">
  <g id="loginLogo2" transform="translate(-40.519 -81.71)">
    <path id="Caminho_901" data-name="Caminho 901" d="M435.42,104c-2.61-4.56-7.87-8.09-11.76-7.87a3.809,3.809,0,0,0-3.13,1.64c-7.1-5.68-15.27-9.17-22-8.79a11.549,11.549,0,0,0-7.94,3.27c-7.62-8.57-17.34-14.65-24.39-14.65-4,0-6.49,2-7.38,5.25-7.82-5.76-15.86-9.3-22.34-9.3-10.33,0-13.69,9-9.46,21.61-1.69,2.38-9.84,5.7-9.51,9.68H435.88C435.73,104.56,435.59,104.28,435.42,104Z" transform="translate(-45.47 8.16)" fill="#f5f5f5"/>
    <path id="Caminho_902" data-name="Caminho 902" d="M149.61,107.49a2.192,2.192,0,0,0-2,1.3c-4.71-4.51-10-7.28-14.31-7a6.424,6.424,0,0,0-5,2.61h0c-5.13-6.8-11.52-11.62-16-11.62-2.56,0-4.09,1.56-4.54,4.16-5.17-4.58-10.41-7.38-14.54-7.38-5.13,0-7.39,4.31-6.69,11-2.47-1.93-4.89-3.07-6.87-3.07-2.73,0-4,2.18-3.79,5.6a5.766,5.766,0,0,0-.72,0c-4.17.57-5.78,5-3.77,10h85.59C155.18,109.82,152,107.33,149.61,107.49Z" transform="translate(-30 35.44)" fill="#f5f5f5"/>
  </g>
</svg>
