<svg xmlns="http://www.w3.org/2000/svg" xmlns:xlink="http://www.w3.org/1999/xlink" width="349.891" height="90" viewBox="0 0 349.891 90">
  <defs>
    <style>
      .cls-1 {
        fill: #036;
      }

      .cls-2 {
        clip-path: url(#clip-path);
      }

      .cls-3 {
        fill: #f5f5f5;
      }
    </style>
    <clipPath id="clip-path">
      <rect id="Retângulo_50" data-name="Retângulo 50" class="cls-1" width="90" height="90"/>
    </clipPath>
  </defs>
  <g id="loginLogo2" transform="translate(-40.519 -68)">
    <g id="layer1_1" data-name="layer1 1" class="cls-2" transform="translate(161 68)">
      <path id="Caminho_638" data-name="Caminho 638" class="cls-1" d="M37.487.7C39.359,7.18,64.549,13.082,80.715,20.192c6.523,2.869,9.335,2.814,17.78,4.329.951.171,6.827,2.355,9.9,10.813,18.228-.518,16.662,13.191,9.961,30.55-18.591-13.321-33.643,12.2-44.944,25.463,7.955-21.325,32.2-41.364,45-31.28,7.385-21.059-7.192-20.127-12.578-20.72-5.2-14.565-21.879-10.021-23.76-12.083L42.288,11.973C29.814,6.332,38.551.061,37.487.7Z" transform="translate(-32.353 -0.599)"/>
      <path id="Caminho_639" data-name="Caminho 639" class="cls-1" d="M1.383,125.174c2.8,6.315,19.943,9.768,40.7,18.292,1.939.8,5.041,1.806,6.127,3.7,2.518,4.4,6.141,9.159,5.056,12.033-.162.43.6,1.431.6,1.431,9.455,5.973.319,5.8,1.333,6.847,1.391,1.431,2.411,2.344.443,3.087,1.852,1.124-.546,2.632-.179,3.181,2.2,3.295.244,5.268-2.762,5.858-6.917,2.055-12.788,3-13.184,19.445-.73-22.032,3.768-17.861,7.8-20.157,2.151-1.225,3.924-3.331,1.783-4.768-.35-.235,2.295-3.075-.833-2.3-.933.232,1.761-.948,1.889-1.659.068-.377-1.3-1.669-.545-2.32,1.99-1.722,4.114-1.473-.679-4.528-3.065-2.185-.435-3.983-1.011-4.682-.287-.348-.167-.95-.4-1.374-5.56-10.25-8.032-7.416-12-9.782l-30.879-11.8C-1.57,132.27-1.454,128.745,1.383,125.174Z" transform="translate(0.443 -114.088)"/>
      <path id="Caminho_640" data-name="Caminho 640" class="cls-1" d="M74.76,318.293c4.387,1.655,8.166,7.492,7.389,10.412a.925.925,0,0,0,.413,1c6.233,4.536.2,4.337.561,5.6.294.855.932,1.721-.369,2.222,1.132.407.687,1.725-.128,1.62.1.244-.248.713-.111.9,3.02,4.127-2.634,5.858-9.134,6.058-5.274.162-11.324,2.449-14.266,2.792a40.8,40.8,0,0,1,9.981-4.372,61.485,61.485,0,0,0,7.213-1.866c.641-.261.447-2.038.314-2.539.888-1.13,1.261-1.248,1.261-1.248.223-.209-.4-.158-.852-.938,2.462-.985.105-2.087.784-2.514,3.328-2.091-.584-2.821-1.189-5.915-.289-4.4-3.513-5.83-7.374-7.1-3.444-1.135-10.633-3.835-18.928-7.006-3.672-1.963-3.717-3.935-3.773-8.473C49.194,310.143,67.238,315.68,74.76,318.293Z" transform="translate(-42.429 -279.736)"/>
      <path id="Caminho_641" data-name="Caminho 641" class="cls-1" d="M696.032,406.908l1.352,4.83,6.36.041Z" transform="translate(-634.389 -370.871)"/>
    </g>
    <path id="Caminho_901" data-name="Caminho 901" class="cls-3" d="M435.42,104c-2.61-4.56-7.87-8.09-11.76-7.87a3.809,3.809,0,0,0-3.13,1.64c-7.1-5.68-15.27-9.17-22-8.79a11.549,11.549,0,0,0-7.94,3.27c-7.62-8.57-17.34-14.65-24.39-14.65-4,0-6.49,2-7.38,5.25-7.82-5.76-15.86-9.3-22.34-9.3-10.33,0-13.69,9-9.46,21.61-1.69,2.38-9.84,5.7-9.51,9.68H435.88C435.73,104.56,435.59,104.28,435.42,104Z" transform="translate(-45.47 8.16)"/>
    <path id="Caminho_902" data-name="Caminho 902" class="cls-3" d="M149.61,107.49a2.192,2.192,0,0,0-2,1.3c-4.71-4.51-10-7.28-14.31-7a6.424,6.424,0,0,0-5,2.61h0c-5.13-6.8-11.52-11.62-16-11.62-2.56,0-4.09,1.56-4.54,4.16-5.17-4.58-10.41-7.38-14.54-7.38-5.13,0-7.39,4.31-6.69,11-2.47-1.93-4.89-3.07-6.87-3.07-2.73,0-4,2.18-3.79,5.6a5.766,5.766,0,0,0-.72,0c-4.17.57-5.78,5-3.77,10h85.59C155.18,109.82,152,107.33,149.61,107.49Z" transform="translate(-30 35.44)"/>
  </g>
</svg>
