<svg xmlns="http://www.w3.org/2000/svg" width="203.48" height="92.441" viewBox="0 0 203.48 92.441">
  <defs>
    <style>
      .cls-1 {
        fill: #036;
      }

      .cls-2, .cls-3 {
        fill: #003360;
      }

      .cls-3 {
        stroke: #000;
        stroke-width: 0.706px;
      }
    </style>
  </defs>
  <g id="g971" transform="translate(-112.027 -52.27)">
    <path id="path2" class="cls-1" d="M471.088,52.317c1.908,6.6,27.585,12.618,44.063,19.865,6.649,2.924,9.515,2.869,18.123,4.413.969.174,6.958,2.4,10.092,11.021,18.58-.528,16.984,13.446,10.154,31.14-18.95-13.579-34.292,12.436-45.812,25.954,8.109-21.737,32.82-42.163,45.868-31.884,7.527-21.466-7.331-20.515-12.82-21.12-5.3-14.847-22.3-10.215-24.219-12.316L475.982,63.8C463.267,58.054,472.172,51.662,471.088,52.317Z" transform="translate(-242.745 0)"/>
    <path id="path4" class="cls-1" d="M460.816,87.385c2.85,6.437,20.328,9.957,41.481,18.645,1.977.812,5.138,1.84,6.245,3.773,2.567,4.481,6.26,9.336,5.154,12.266-.165.438.613,1.459.613,1.459,9.637,6.088.325,5.916,1.359,6.979,1.418,1.458,2.458,2.389.451,3.146,1.888,1.145-.557,2.683-.182,3.243,2.247,3.358.249,5.37-2.815,5.972-7.051,2.094-13.034,3.062-13.439,19.821-.744-22.457,3.841-18.206,7.95-20.546,2.192-1.249,4-3.4,1.817-4.86-.357-.239,2.339-3.134-.849-2.341-.951.237,1.8-.966,1.926-1.691.069-.384-1.322-1.7-.555-2.365,2.029-1.755,4.194-1.5-.692-4.616-3.124-2.227-.444-4.06-1.031-4.773-.292-.355-.17-.968-.4-1.4-5.668-10.447-8.187-7.559-12.231-9.97L464.138,98.1C457.806,94.618,457.924,91.026,460.816,87.385Z" transform="translate(-235.845 -23.875)"/>
    <path id="path6" class="cls-1" d="M500.93,150.235c4.472,1.687,8.324,7.637,7.532,10.613a.943.943,0,0,0,.421,1.018c6.353,4.624.2,4.421.572,5.706.3.872.95,1.754-.376,2.265,1.153.414.7,1.759-.131,1.652.1.249-.253.727-.113.917,3.079,4.206-2.685,5.971-9.31,6.175-5.376.165-11.542,2.5-14.541,2.846a41.59,41.59,0,0,1,10.173-4.456,62.674,62.674,0,0,0,7.352-1.9c.653-.266.456-2.077.32-2.588.9-1.152,1.286-1.272,1.286-1.272.227-.213-.4-.161-.869-.957,2.51-1,.107-2.128.8-2.563,3.392-2.132-.6-2.875-1.211-6.029-.295-4.48-3.581-5.943-7.517-7.24-3.51-1.157-10.839-3.909-19.293-7.142-3.743-2-3.789-4.011-3.846-8.636,2.693,3.287,21.086,8.931,28.753,11.595Z" transform="translate(-244.864 -58.722)"/>
    <path id="path8" class="cls-1" d="M655.339,166.838l1.378,4.923,6.482.042Z" transform="translate(-369.395 -77.894)"/>
    <g id="text874" transform="translate(112.027 82.873)">
      <path id="path942" class="cls-2" d="M100.589,160.49,99.2,166.221H79.141l8.564-33.693h6.66L87.26,160.49Z" transform="translate(-79.141 -132.529)"/>
      <path id="path944" class="cls-2" d="M156.319,179.041a15.52,15.52,0,0,1,.955-5.384,14.819,14.819,0,0,1,2.779-4.6,13.316,13.316,0,0,1,4.3-3.256A12.621,12.621,0,0,1,170,164.539a8.873,8.873,0,0,1,2.822.434,6.607,6.607,0,0,1,2.258,1.259,5.327,5.327,0,0,1,1.52,2.041,6.133,6.133,0,0,1,.564,2.692,7.486,7.486,0,0,1-1.085,4.125,8.319,8.319,0,0,1-3.039,2.779,15.07,15.07,0,0,1-4.559,1.52,32.6,32.6,0,0,1-5.775.478,4,4,0,0,0,1.3,2.605,5.7,5.7,0,0,0,3.256.738,18.821,18.821,0,0,0,2.822-.217,15.286,15.286,0,0,0,2.692-.738l.478,5.08a19.364,19.364,0,0,1-3.126.868,19.938,19.938,0,0,1-4.081.391,12.432,12.432,0,0,1-4.559-.738,8.42,8.42,0,0,1-3-2.084,8.157,8.157,0,0,1-1.65-3.039,12.78,12.78,0,0,1-.521-3.691Zm12.635-9.378a5.51,5.51,0,0,0-3.908,1.606,7.621,7.621,0,0,0-2.171,4.168,25.925,25.925,0,0,0,4.342-.434,9.889,9.889,0,0,0,2.562-.912,2.905,2.905,0,0,0,1.216-1.129,2.7,2.7,0,0,0,.3-1.216q0-2.084-2.345-2.084Z" transform="translate(-131.614 -154.292)"/>
      <path id="path946" class="cls-2" d="M239.291,142.906a8.171,8.171,0,0,1,3.6.738,7.147,7.147,0,0,1,2.518,2,8.331,8.331,0,0,1,1.476,2.952,13.387,13.387,0,0,1,.478,3.647,14.559,14.559,0,0,1-1.129,5.688,14.129,14.129,0,0,1-7.511,7.772,14.042,14.042,0,0,1-5.644,1.129q-.391,0-1.389-.043a16.451,16.451,0,0,1-2.214-.174,27.32,27.32,0,0,1-2.692-.521,13.739,13.739,0,0,1-2.649-.955l7.511-32.607h6.73l-2.692,11.2a10.343,10.343,0,0,1,1.737-.608A7.68,7.68,0,0,1,239.291,142.906Zm-5.644,18.583a5.87,5.87,0,0,0,2.866-.738,7.462,7.462,0,0,0,2.3-1.954,9.939,9.939,0,0,0,1.563-2.822,9.514,9.514,0,0,0,.564-3.256,6.406,6.406,0,0,0-.695-3.256,2.725,2.725,0,0,0-2.562-1.172,7.96,7.96,0,0,0-1.606.217,3.882,3.882,0,0,0-1.737.912l-2.866,11.9q.261.043.434.087l.434.087h1.3Z" transform="translate(-177.723 -132.529)"/>
      <path id="path948" class="cls-2" d="M314.454,166.656a12.351,12.351,0,0,1-4.863-.782,5.45,5.45,0,0,1-2.518-2.214,6.652,6.652,0,0,1-.738-3.17,18.969,18.969,0,0,1,.521-3.864l5.514-24.1h6.73l-6.035,25.009a9.591,9.591,0,0,0-.217,1.433,2.585,2.585,0,0,0,.26,1.172,1.926,1.926,0,0,0,.868.782,5.252,5.252,0,0,0,1.78.391Z" transform="translate(-233.609 -132.529)"/>
      <path id="path950" class="cls-2" d="M357.956,188.593a10.486,10.486,0,0,1-3.994-.695,7.6,7.6,0,0,1-2.822-1.954,8.66,8.66,0,0,1-1.65-2.952,12.307,12.307,0,0,1-.564-3.821,17.176,17.176,0,0,1,.825-5.21,15.266,15.266,0,0,1,2.518-4.689,13.075,13.075,0,0,1,4.038-3.387,10.949,10.949,0,0,1,5.471-1.346,10.359,10.359,0,0,1,3.951.695,7.155,7.155,0,0,1,2.822,1.954,8.238,8.238,0,0,1,1.693,3,11.9,11.9,0,0,1,.564,3.777,17.175,17.175,0,0,1-.825,5.21,15.057,15.057,0,0,1-2.431,4.689,12.932,12.932,0,0,1-4.038,3.43,11.425,11.425,0,0,1-5.558,1.3Zm3.213-18.583a4.047,4.047,0,0,0-2.518.825,7.071,7.071,0,0,0-1.824,2.084A10.762,10.762,0,0,0,355.7,175.7a12.324,12.324,0,0,0-.347,2.822,6.978,6.978,0,0,0,.695,3.43,2.679,2.679,0,0,0,2.518,1.172,4.046,4.046,0,0,0,2.518-.825,7.072,7.072,0,0,0,1.824-2.084,9.824,9.824,0,0,0,1.085-2.735,11.526,11.526,0,0,0,.391-2.866,6.721,6.721,0,0,0-.695-3.387A2.648,2.648,0,0,0,361.169,170.01Z" transform="translate(-262.566 -154.292)"/>
      <path id="path952" class="cls-2" d="M427.966,166.374q.738-.217,1.606-.478a16.659,16.659,0,0,1,2-.521,19.307,19.307,0,0,1,2.475-.391,25.389,25.389,0,0,1,3.126-.174q5.123,0,7.034,2.952t.651,8.076L441.9,188.17h-6.469L438.3,176.1a21.561,21.561,0,0,0,.391-2.171,5.026,5.026,0,0,0,0-1.867,2.09,2.09,0,0,0-.825-1.3,2.9,2.9,0,0,0-1.91-.521,13.041,13.041,0,0,0-2.562.261l-4.212,17.671h-6.469Z" transform="translate(-312.733 -154.477)"/>
    </g>
    <path id="path12" class="cls-3" d="M209.391,204.084h.136" transform="translate(-66.198 -103.218)"/>
    <circle id="path18" class="cls-3" cx="0.02" cy="0.02" r="0.02" transform="translate(114.287 81.634)"/>
    <circle id="path20" class="cls-3" cx="0.02" cy="0.02" r="0.02" transform="translate(121.163 81.594)"/>
  </g>
</svg>
