<svg xmlns="http://www.w3.org/2000/svg" width="500" height="424.831" viewBox="0 0 500 424.831">
  <defs>
    <style>
      .cls-1 {
        fill: #ebebeb;
      }

      .cls-2 {
        fill: #e6e6e6;
      }

      .cls-3 {
        fill: #f5f5f5;
      }

      .cls-4 {
        fill: #fafafa;
      }

      .cls-15, .cls-5 {
        fill: #fff;
      }

      .cls-6 {
        fill: #f0f0f0;
      }

      .cls-7 {
        fill: #e0e0e0;
      }

      .cls-12, .cls-8 {
        opacity: 0.2;
      }

      .cls-9 {
        fill: #036;
      }

      .cls-10 {
        fill: #ff8b7b;
      }

      .cls-11 {
        fill: #263238;
      }

      .cls-13 {
        opacity: 0.3;
      }

      .cls-14 {
        fill: #ff5652;
      }

      .cls-15 {
        opacity: 0.6;
      }
    </style>
  </defs>
  <g id="Time_management-rafiki" data-name="Time management-rafiki" transform="translate(0 -55)">
    <g id="freepik--background-complete--inject-3" transform="translate(0 55)">
      <rect id="Retângulo_55" data-name="Retângulo 55" class="cls-1" width="500" height="0.294" transform="translate(0 384.767)"/>
      <rect id="Retângulo_56" data-name="Retângulo 56" class="cls-1" width="33.12" height="0.294" transform="translate(416.78 403.677)"/>
      <rect id="Retângulo_57" data-name="Retângulo 57" class="cls-1" width="8.69" height="0.294" transform="translate(322.53 406.873)"/>
      <rect id="Retângulo_58" data-name="Retângulo 58" class="cls-1" width="19.19" height="0.294" transform="translate(396.59 392.771)"/>
      <rect id="Retângulo_59" data-name="Retângulo 59" class="cls-1" width="43.19" height="0.294" transform="translate(52.46 394.745)"/>
      <rect id="Retângulo_60" data-name="Retângulo 60" class="cls-1" width="6.33" height="0.294" transform="translate(104.56 394.745)"/>
      <rect id="Retângulo_61" data-name="Retângulo 61" class="cls-1" width="93.68" height="0.294" transform="translate(131.47 399.704)"/>
      <path id="Caminho_833" data-name="Caminho 833" class="cls-1" d="M237,387.352H43.91c-3.15-.007-5.7-3.009-5.7-6.711V61.652c.027-3.679,2.57-6.645,5.7-6.652H237c3.154,0,5.71,3,5.71,6.711V380.642C242.71,384.348,240.154,387.352,237,387.352ZM43.91,55.235c-3.012.006-5.45,2.877-5.45,6.417v318.99c0,3.539,2.438,6.41,5.45,6.417H237c3.013-.007,5.454-2.876,5.46-6.417V61.652c-.006-3.541-2.447-6.41-5.46-6.417Z" transform="translate(0 -55)"/>
      <path id="Caminho_834" data-name="Caminho 834" class="cls-1" d="M453.31,387.352H260.21c-3.151-.007-5.7-3.007-5.71-6.711V61.652c.033-3.68,2.578-6.646,5.71-6.652h193.1c3.126.013,5.663,2.978,5.69,6.652v318.99C459,384.339,456.456,387.34,453.31,387.352ZM260.21,55.235c-3.013.006-5.454,2.876-5.46,6.417v318.99c.006,3.541,2.447,6.41,5.46,6.417h193.1c3.013-.007,5.454-2.876,5.46-6.417V61.652c-.006-3.541-2.447-6.41-5.46-6.417Z" transform="translate(0 -55)"/>
      <rect id="Retângulo_62" data-name="Retângulo 62" class="cls-2" width="135.7" height="337.042" transform="translate(202.49 384.767) rotate(180)"/>
      <rect id="Retângulo_63" data-name="Retângulo 63" class="cls-3" width="135.7" height="337.042" transform="translate(199.48 384.767) rotate(180)"/>
      <rect id="Retângulo_64" data-name="Retângulo 64" class="cls-4" width="322.751" height="124.87" transform="translate(194.07 54.871) rotate(90)"/>
      <path id="Caminho_835" data-name="Caminho 835" class="cls-5" d="M165.31,424.441,133.67,101.69H97.95l31.64,322.751Z" transform="translate(0 -46.819)"/>
      <rect id="Retângulo_65" data-name="Retângulo 65" class="cls-2" width="322.751" height="2.28" transform="translate(71.48 54.871) rotate(90)"/>
      <rect id="Retângulo_66" data-name="Retângulo 66" class="cls-3" width="131.22" height="9.59" transform="translate(197.24 92.419) rotate(180)"/>
      <rect id="Retângulo_67" data-name="Retângulo 67" class="cls-6" width="195.557" height="54.79" transform="translate(274.23 189.211) rotate(90)"/>
      <rect id="Retângulo_68" data-name="Retângulo 68" class="cls-3" width="57.316" height="48.77" transform="translate(271.22 194.922) rotate(90)"/>
      <rect id="Retângulo_69" data-name="Retângulo 69" class="cls-3" width="57.316" height="48.77" transform="translate(271.22 257.385) rotate(90)"/>
      <rect id="Retângulo_70" data-name="Retângulo 70" class="cls-3" width="57.316" height="48.77" transform="translate(271.22 319.848) rotate(90)"/>
      <path id="Caminho_836" data-name="Caminho 836" class="cls-2" d="M257.63,220.22H236a6.444,6.444,0,0,0,1.464,4.214,4.648,4.648,0,0,0,3.586,1.721h11.48a4.7,4.7,0,0,0,3.6-1.721,6.506,6.506,0,0,0,1.5-4.214Z" transform="translate(0 -26.05)"/>
      <path id="Caminho_837" data-name="Caminho 837" class="cls-2" d="M257.63,273.37H236c0,3.28,2.259,5.94,5.05,5.947h11.48a4.712,4.712,0,0,0,3.6-1.729,6.52,6.52,0,0,0,1.5-4.218Z" transform="translate(0 -16.737)"/>
      <path id="Caminho_838" data-name="Caminho 838" class="cls-2" d="M257.63,326.52H236c0,3.28,2.259,5.94,5.05,5.947h11.48a4.712,4.712,0,0,0,3.6-1.728A6.52,6.52,0,0,0,257.63,326.52Z" transform="translate(0 -7.424)"/>
      <rect id="Retângulo_71" data-name="Retângulo 71" class="cls-3" width="195.557" height="27.37" transform="translate(301.59 189.211) rotate(90)"/>
      <rect id="Retângulo_72" data-name="Retângulo 72" class="cls-6" width="15.19" height="147.232" transform="translate(435.68 379.961) rotate(180)"/>
      <rect id="Retângulo_73" data-name="Retângulo 73" class="cls-6" width="145.86" height="4.807" transform="translate(433.58 384.767) rotate(180)"/>
      <rect id="Retângulo_74" data-name="Retângulo 74" class="cls-4" width="134.88" height="147.232" transform="translate(285.61 232.729)"/>
      <path id="Caminho_839" data-name="Caminho 839" class="cls-6" d="M312,331.36h82.06c8.069,0,14.61-7.687,14.61-17.17s-6.541-17.17-14.61-17.17H312c-8.069,0-14.61,7.687-14.61,17.17s6.541,17.17,14.61,17.17Zm82.08-33.188c7.528,0,13.63,7.172,13.63,16.018s-6.1,16.018-13.63,16.018H312c-7.528,0-13.63-7.172-13.63-16.018s6.1-16.018,13.63-16.018Z" transform="translate(0 -12.593)"/>
      <path id="Caminho_840" data-name="Caminho 840" class="cls-6" d="M312,367.71h82.06c8.069,0,14.61-7.687,14.61-17.17s-6.541-17.17-14.61-17.17H312c-8.069,0-14.61,7.687-14.61,17.17s6.541,17.17,14.61,17.17Zm82.06-33.188c4.956-.158,9.594,2.859,12.111,7.878a18.465,18.465,0,0,1,0,16.268c-2.517,5.019-7.155,8.036-12.111,7.878H312c-4.956.158-9.594-2.859-12.111-7.878a18.465,18.465,0,0,1,0-16.268c2.517-5.019,7.155-8.036,12.111-7.878Z" transform="translate(0 -6.224)"/>
      <path id="Caminho_841" data-name="Caminho 841" class="cls-1" d="M340.67,309.549h24.76a3.361,3.361,0,0,0,3.05-3.584h0a3.361,3.361,0,0,0-3.05-3.584H340.67a3.361,3.361,0,0,0-3.05,3.584h0a3.361,3.361,0,0,0,3.05,3.584Z" transform="translate(0 -11.654)"/>
      <path id="Caminho_842" data-name="Caminho 842" class="cls-6" d="M312,295.01h82.06c8.069,0,14.61-7.687,14.61-17.17s-6.541-17.17-14.61-17.17H312c-8.069,0-14.61,7.687-14.61,17.17s6.541,17.17,14.61,17.17Zm82.06-33.188c7.528,0,13.63,7.172,13.63,16.018s-6.1,16.018-13.63,16.018H312c-7.528,0-13.63-7.172-13.63-16.018s6.1-16.018,13.63-16.018Z" transform="translate(0 -18.962)"/>
      <path id="Caminho_843" data-name="Caminho 843" class="cls-1" d="M340.67,273.19h24.76a3.361,3.361,0,0,0,3.05-3.584h0a3.339,3.339,0,0,0-3.05-3.526H340.67a3.339,3.339,0,0,0-3.05,3.526h0A3.361,3.361,0,0,0,340.67,273.19Z" transform="translate(0 -18.014)"/>
      <path id="Caminho_844" data-name="Caminho 844" class="cls-1" d="M340.67,345.871h24.76a3.34,3.34,0,0,0,3.05-3.526h0a3.35,3.35,0,0,0-3.05-3.526H340.67a3.35,3.35,0,0,0-3.05,3.526h0a3.339,3.339,0,0,0,3.05,3.526Z" transform="translate(0 -5.269)"/>
      <rect id="Retângulo_75" data-name="Retângulo 75" class="cls-6" width="137.65" height="7.486" transform="translate(420.48 232.729) rotate(180)"/>
      <rect id="Retângulo_76" data-name="Retângulo 76" class="cls-2" width="18.17" height="7.486" transform="translate(420.49 225.255)"/>
      <path id="Caminho_845" data-name="Caminho 845" class="cls-7" d="M322,149.573c3.07,1.81,11.39-.141,8.62,6.475a56.208,56.208,0,0,1-5.69,9.707c-3.1,4.5-2.51,9.4,1.15,11.141a4.485,4.485,0,0,1,2,1.645c1.69,2.844-2.29,6.652-4.25,9.5s-2.74,5.641-1.3,7.756c1.6,2.35,4.92,1.469,7.56,2.174,6.34,1.7-.18,11.987.49,17.264.46,3.62,3,4.63,6.35,5.136,2.77.423,6.46.717,6.61,4.043.14,2.891-3.06,6.158-3.9,9.19a10.993,10.993,0,0,0,.62,7.991,7.459,7.459,0,0,0,5,3.831c3.14.776,7.89,0,8.12,4.137.1,1.857-1,3.526-.24,5.218a5.021,5.021,0,0,0,3.69,2.55,22.965,22.965,0,0,0,9.06-.188c3.69-.8,9.14-4.619,7.14-8.3a4.19,4.19,0,0,0-2.86-1.927c-.88-.212-3.46.118-3.79-.588s.56-3.42.59-4.4a23.961,23.961,0,0,0-1.07-7.956,25.174,25.174,0,0,0-4.76-8.861c-.88-1.046-2.27-1.81-2.45-3.326s.63-3.185,1.53-4.7c1.41-2.35,3.6-4.56,4.39-7.051,1.24-3.925-1.77-5.171-4.56-6.064-2.52-.811-5.84-1.845-5-5.441.62-2.6,3.41-4.7,4.24-7.263,1.13-3.4-1.61-3.526-3.56-4.7-2.55-1.575-3.19-4.4-2.27-7.956,1.53-5.876,10.7-14.185,6-18-1.19-.975-2.3-1.293-3-2.762s-.88-3.526-1.88-4.912c-1.58-2.245-4.85-2.621-6.55-4.7-3.51-4.278,4.06-11.858-2.85-13.668a7.608,7.608,0,0,1-4-1.963c-.63-.693-1.15-4.043-1.86-4.278-3.17-1.034-8.88,6.193-10.68,8.415C326.45,139.419,318.36,147.411,322,149.573Z" transform="translate(0 -42.17)"/>
      <path id="Caminho_846" data-name="Caminho 846" class="cls-3" d="M376.39,252.585c-1.88-4.1-10.11-8.227-4.65-12.927a43.969,43.969,0,0,1,9.44-5.794,8.787,8.787,0,0,0,4.06-12.234,7.533,7.533,0,0,1-1-3.173c-.2-4.137,5.05-5.124,8.07-6.617s5-3.772,4.67-6.993c-.34-3.526-3.66-5.1-5.67-7.745-4.82-6.37,5.62-12.14,7.43-18.04,1.24-4.043-.5-6.9-3.26-9.9-2.25-2.456-5.38-5.441-4-8.967,1.2-3.056,5.51-4.066,7.63-6.558a13.27,13.27,0,0,0,3.1-8.638,12.362,12.362,0,0,0-2.65-7.557c-2.42-3.091-7-5.735-5.29-10.166.76-1.974,2.49-2.856,2.59-5.171a8.145,8.145,0,0,0-2.09-5.3,27.462,27.462,0,0,0-8.08-6.428c-3.62-1.88-10.17-1.939-10.08,3.291a6.914,6.914,0,0,0,1.64,4.055c.69.87,3.11,2.409,3.08,3.373s-2,3.091-2.53,4.066a30.6,30.6,0,0,0-2.67,8.932,39.152,39.152,0,0,0,.17,12.551c.29,1.7,1.18,3.526.64,5.195a7.1,7.1,0,0,1-3.47,3.655c-2.31,1.363-5.26,2.057-7.09,4.031-2.89,3.114-.8,6.593,1.26,9.543,1.86,2.668,4.31,6.146,1.92,9.214-1.73,2.209-5.16,2.35-7,4.337-2.54,2.668-.19,4.795,1,7.474,1.52,3.526.81,6.816-1.63,9.79-4,4.912-15.9,6.722-13.49,14.1.61,1.869,1.43,3.009,1.4,5.03s-.82,4.231-.58,6.4c.37,3.455,3.08,6.229,3.64,9.6,1.14,6.946-9,9.19-3.72,16.077a12.04,12.04,0,0,1,2.66,4.959c.25,1.175-.83,4.971-.31,5.735,2.33,3.373,10.66.153,13.26-.823C367.86,259.742,378.64,257.463,376.39,252.585Z" transform="translate(0 -45.5)"/>
      <path id="Caminho_847" data-name="Caminho 847" class="cls-6" d="M397.47,223.34s-1,27.418-39.18,27.418-39.18-27.418-39.18-27.418Z" transform="translate(0 -25.503)"/>
    </g>
    <g id="freepik--Hourglass--inject-3" transform="translate(227.87 228.839)">
      <g id="Grupo_21" data-name="Grupo 21" class="cls-8" transform="translate(5.48 6.816)">
        <path id="Caminho_848" data-name="Caminho 848" class="cls-9" d="M360.73,428.5,297.04,290.15,233.35,428.5Z" transform="translate(-233.35 -191.138)"/>
        <path id="Caminho_849" data-name="Caminho 849" class="cls-9" d="M360.73,208.72,297.04,347.055,233.35,208.72Z" transform="translate(-233.35 -208.72)"/>
      </g>
      <path id="Caminho_850" data-name="Caminho 850" class="cls-9" d="M308.71,280.859,299.39,301.1a2.5,2.5,0,0,1-4.7,0l-9.32-20.237A13.845,13.845,0,0,1,285.59,269a10.011,10.011,0,0,1,8.78-5.844h5.39a10.025,10.025,0,0,1,8.743,5.869A13.846,13.846,0,0,1,308.71,280.859Z" transform="translate(-227.87 -191.237)"/>
      <path id="Caminho_851" data-name="Caminho 851" class="cls-9" d="M298.05,378.186,327,392.171a3.283,3.283,0,0,1,1.583,3.492A2.83,2.83,0,0,1,326,398.2H268.13a2.83,2.83,0,0,1-2.583-2.537,3.283,3.283,0,0,1,1.583-3.492L296,378.186A2.289,2.289,0,0,1,298.05,378.186Z" transform="translate(-227.87 -168.938)"/>
      <ellipse id="Elipse_7" data-name="Elipse 7" class="cls-9" cx="3.71" cy="4.36" rx="3.71" ry="4.36" transform="translate(65.46 172.973)"/>
      <ellipse id="Elipse_8" data-name="Elipse 8" class="cls-9" cx="1.91" cy="2.245" rx="1.91" ry="2.245" transform="translate(67.26 128.916)"/>
      <ellipse id="Elipse_9" data-name="Elipse 9" class="cls-9" cx="2.17" cy="2.55" rx="2.17" ry="2.55" transform="translate(67 150.613)"/>
      <path id="Caminho_852" data-name="Caminho 852" class="cls-9" d="M360.41,402.06H233.67c-3.2.013-5.795,3.064-5.8,6.828h0c.011,3.759,2.6,6.8,5.8,6.816H360.41c3.2-.013,5.789-3.057,5.8-6.816h0c-.005-3.764-2.6-6.815-5.8-6.828Z" transform="translate(-227.87 -164.712)"/>
      <path id="Caminho_853" data-name="Caminho 853" class="cls-9" d="M360.41,202.92H233.67c-3.2.013-5.789,3.057-5.8,6.816h0c.011,3.759,2.6,6.8,5.8,6.816H360.41c3.2-.013,5.789-3.057,5.8-6.816h0C366.2,205.977,363.609,202.933,360.41,202.92Z" transform="translate(-227.87 -202.92)"/>
    </g>
    <g id="freepik--Character--inject-3" transform="translate(164.52 117.242)">
      <path id="Caminho_854" data-name="Caminho 854" class="cls-10" d="M194.63,409l-7.05-2.691,4.38-19.544,7.05,2.691Z" transform="translate(-164.52 -59.11)"/>
      <path id="Caminho_855" data-name="Caminho 855" class="cls-11" d="M187.47,402.466l7.92,3.02a.655.655,0,0,1,.37.764l-1.65,7.521a1.283,1.283,0,0,1-1.64,1c-2.74-1.1-4-1.8-7.49-3.126-2.15-.823-9.21-2.962-12.17-4.09s-1.93-4.536-.59-4.372c6,.74,11.4.411,13.9-.67a1.8,1.8,0,0,1,1.35-.047Z" transform="translate(-164.52 -56.377)"/>
      <path id="Caminho_856" data-name="Caminho 856" class="cls-12" d="M199.01,389.463l-7.05-2.7-2.26,10.083,7.06,2.691Z" transform="translate(-164.52 -59.11)"/>
      <path id="Caminho_857" data-name="Caminho 857" class="cls-9" d="M218.28,220.729s-12.65,68.809-15.62,93.548c-3.25,27.089-15.46,108.438-15.46,108.438l13.09,4.254s18.14-78.893,23.44-105.229c5.75-28.593,21-101.069,21-101.069Z" transform="translate(-164.52 -88.213)"/>
      <path id="Caminho_858" data-name="Caminho 858" class="cls-13" d="M233.92,240.434c-5,13.327-7.47,42.308-5.53,55.647,3.54-17.1,7.8-37.431,11.09-53.073C238.37,238.471,236.53,233.476,233.92,240.434Z" transform="translate(-164.52 -85.354)"/>
      <path id="Caminho_859" data-name="Caminho 859" class="cls-11" d="M200.62,398.147,186.6,393.61l.28-6.71,15.78,6.4Z" transform="translate(-164.52 -59.086)"/>
      <path id="Caminho_860" data-name="Caminho 860" class="cls-11" d="M184.57,403.238a8.351,8.351,0,0,0,2,.423.175.175,0,0,0,.167-.106.243.243,0,0,0-.007-.223c-.18-.27-1.73-2.632-2.7-2.562a.65.65,0,0,0-.54.4,1.352,1.352,0,0,0-.08,1.175A2.008,2.008,0,0,0,184.57,403.238Zm1.59,0c-1.34-.188-2.26-.588-2.48-1.093a.836.836,0,0,1,.07-.74.322.322,0,0,1,.26-.2c.52-.07,1.5,1.081,2.15,2Z" transform="translate(-164.52 -56.656)"/>
      <path id="Caminho_861" data-name="Caminho 861" class="cls-11" d="M186.5,403.849h.08a.191.191,0,0,0,.13-.129c0-.094.85-2.421.36-3.526a.873.873,0,0,0-.62-.529.621.621,0,0,0-.76.353c-.41.846.16,2.973.73,3.737Zm0-3.725a.53.53,0,0,1,.31.306,5.254,5.254,0,0,1-.27,2.809,4.739,4.739,0,0,1-.51-2.973c0-.106.14-.223.39-.165Z" transform="translate(-164.52 -56.855)"/>
      <path id="Caminho_862" data-name="Caminho 862" class="cls-11" d="M231.74,166.737c-.38,1.058-.7,1.857-1.05,2.75s-.73,1.716-1.1,2.562c-.74,1.7-1.52,3.361-2.33,5.018a99.9,99.9,0,0,1-5.4,9.613,70.7,70.7,0,0,1-6.65,8.92,39.61,39.61,0,0,1-8.68,7.545l-.25.153a4.694,4.694,0,0,1-1.28.541,12.17,12.17,0,0,1-6.87-.317,18.8,18.8,0,0,1-5.24-2.868,36.7,36.7,0,0,1-7.24-7.709,71.606,71.606,0,0,1-5.27-8.591,82.7,82.7,0,0,1-4.13-9.226,4.179,4.179,0,0,1,1.283-4.755,2.919,2.919,0,0,1,4.187.818l.1.141c1.65,2.35,3.44,4.854,5.24,7.134a75.284,75.284,0,0,0,5.58,6.44,27.874,27.874,0,0,0,5.74,4.7,7.623,7.623,0,0,0,2.47.964,2.356,2.356,0,0,0,1.44-.141l-1.53.693a32.031,32.031,0,0,0,5.61-5.759,72.489,72.489,0,0,0,5-7.545c1.58-2.7,3.08-5.535,4.49-8.45q1.08-2.168,2.06-4.407l1-2.221c.31-.717.65-1.54.89-2.115l.06-.165c1.474-3.847,5.323-5.56,8.6-3.827s4.73,6.257,3.256,10.1Z" transform="translate(-164.52 -99.552)"/>
      <path id="Caminho_863" data-name="Caminho 863" class="cls-13" d="M215.39,180.021c3.14-9.8,9.81-9.966,12.7-7.369-.21.458-.43.917-.65,1.375a103.1,103.1,0,0,1-5.15,9.3A74.992,74.992,0,0,1,216,192c-.72.834-1.46,1.657-2.23,2.456A43.772,43.772,0,0,1,215.39,180.021Z" transform="translate(-164.52 -96.876)"/>
      <path id="Caminho_864" data-name="Caminho 864" class="cls-10" d="M176,173.966l-6.5.282,1.62-8.168a28.929,28.929,0,0,1,6.63,1.175,2.87,2.87,0,0,1,1.718,1.931,3.554,3.554,0,0,1-.308,2.77h0A3.8,3.8,0,0,1,176,173.966Z" transform="translate(-164.52 -97.778)"/>
      <path id="Caminho_865" data-name="Caminho 865" class="cls-9" d="M179.64,167.115a6.008,6.008,0,0,0-2.15-1.3c-.54,3.338-4,8.967-4,8.967h2.71a2.254,2.254,0,0,0,1.83-1l1.9-2.68a3.114,3.114,0,0,0,.572-2.064,2.96,2.96,0,0,0-.862-1.92Z" transform="translate(-164.52 -97.825)"/>
      <path id="Caminho_866" data-name="Caminho 866" class="cls-10" d="M164.52,170.689l1.82-5.759,4.76,1.363-1.62,8.156Z" transform="translate(-164.52 -97.98)"/>
      <path id="Caminho_867" data-name="Caminho 867" class="cls-10" d="M246.25,411.929h-7.41l-.26-20.179h7.41Z" transform="translate(-164.52 -58.236)"/>
      <path id="Caminho_868" data-name="Caminho 868" class="cls-11" d="M238.45,408.06h8.33a.487.487,0,0,1,.381.166.675.675,0,0,1,.169.434l.4,7.745a1.454,1.454,0,0,1-1.3,1.551c-2.9-.059-4.28-.258-8-.258-2.25,0-9.78.27-12.89.27s-3-3.62-1.71-3.949c5.92-1.457,11.2-3.526,13.29-5.418a1.884,1.884,0,0,1,1.33-.541Z" transform="translate(-164.52 -55.378)"/>
      <path id="Caminho_869" data-name="Caminho 869" class="cls-12" d="M246,391.76h-7.42l.14,10.4h7.41Z" transform="translate(-164.52 -58.234)"/>
      <path id="Caminho_870" data-name="Caminho 870" class="cls-9" d="M232.74,220.72s-2.83,75.7-1.63,100.646c1.32,27.312,4.08,108.25,4.08,108.25h13.58s3.42-78.74,4.24-105.77c.89-29.38,4.92-103.126,4.92-103.126Z" transform="translate(-164.52 -88.204)"/>
      <path id="Caminho_871" data-name="Caminho 871" class="cls-11" d="M249.32,399.427H234.65l-1.12-6.417,16.19.952Z" transform="translate(-164.52 -58.015)"/>
      <path id="Caminho_872" data-name="Caminho 872" class="cls-11" d="M235.82,409.677a8.333,8.333,0,0,0,2-.306.224.224,0,0,0,.13-.165.244.244,0,0,0-.07-.2c-.24-.2-2.34-1.88-3.25-1.457a.757.757,0,0,0-.4.564,1.33,1.33,0,0,0,.22,1.1A1.793,1.793,0,0,0,235.82,409.677Zm1.5-.6c-1.33.306-2.3.259-2.65-.141a.856.856,0,0,1-.12-.729.347.347,0,0,1,.19-.282C235.23,407.7,236.46,408.432,237.32,409.078Z" transform="translate(-164.52 -55.479)"/>
      <path id="Caminho_873" data-name="Caminho 873" class="cls-11" d="M237.76,409.673a.112.112,0,0,0,.08,0,.217.217,0,0,0,.09-.165c0-.106.17-2.609-.58-3.455a.793.793,0,0,0-.73-.282.7.7,0,0,0-.62.611c-.18.952.93,2.773,1.67,3.291a.128.128,0,0,0,.09,0Zm-1-3.526a.464.464,0,0,1,.37.176,5.165,5.165,0,0,1,.49,2.774,4.428,4.428,0,0,1-1.27-2.656c0-.118.08-.259.33-.294Z" transform="translate(-164.52 -55.781)"/>
      <path id="Caminho_874" data-name="Caminho 874" class="cls-11" d="M261.64,162.095a6.317,6.317,0,0,0-.83-4.232,4.66,4.66,0,0,0-3.17-2.232h-.08a75.442,75.442,0,0,0-8.33-1,125.876,125.876,0,0,0-16.85,0,64.321,64.321,0,0,0-7.14,1.246h-.08a7.652,7.652,0,0,0-5.39,5.806c-2.42,9.578-5.31,29.134-1.53,70.654h39.65c.28-4.16-.51-17.7.07-34.939a322.3,322.3,0,0,1,3.68-35.3Z" transform="translate(-164.52 -99.833)"/>
      <path id="Caminho_875" data-name="Caminho 875" class="cls-13" d="M261.26,163.27c-.82,5.571-1.83,13.151-2.53,21.154,0,0-3.62-8.344-4.28-15.478S259,161.272,261.26,163.27Z" transform="translate(-164.52 -98.447)"/>
      <g id="Grupo_22" data-name="Grupo 22" class="cls-8" transform="translate(67.487 54.505)">
        <path id="Caminho_876" data-name="Caminho 876" class="cls-5" d="M234.67,165.314a.4.4,0,0,1-.352-.342.48.48,0,0,1,.182-.492l12.36-7.533a.354.354,0,0,1,.5.188.488.488,0,0,1-.16.6l-12.36,7.51a.426.426,0,0,1-.17.071Z" transform="translate(-232.007 -153.891)"/>
        <path id="Caminho_877" data-name="Caminho 877" class="cls-5" d="M240.33,165.95a.309.309,0,0,1-.26-.129l-6.78-7.909a.519.519,0,0,1,0-.623.341.341,0,0,1,.53,0l6.77,7.921a.5.5,0,0,1,0,.623A.332.332,0,0,1,240.33,165.95Z" transform="translate(-232.007 -153.845)"/>
        <path id="Caminho_878" data-name="Caminho 878" class="cls-5" d="M249.26,154.622a125.732,125.732,0,0,0-16.84,0h-.28a5.423,5.423,0,0,0,.43,3.608c.94,1.763,2.91,2.75,5.87,2.938h1.11c8,0,11.09-5.712,11.22-5.958l.28-.529Z" transform="translate(-232.007 -154.34)"/>
      </g>
      <path id="Caminho_879" data-name="Caminho 879" class="cls-10" d="M233.22,157.821c4.9-1.363,5.76-4.924,5.43-8.838a27.229,27.229,0,0,0-.39-2.915l6.14-5.994,4.51-4.4c-1.25,6.381-2.66,18,1,22.259,0,0-3,5.876-11.43,5.359C231.41,162.839,233.22,157.821,233.22,157.821Z" transform="translate(-164.52 -103.105)"/>
      <path id="Caminho_880" data-name="Caminho 880" class="cls-12" d="M238.26,145.414a27.23,27.23,0,0,1,.39,2.915c2.29-.541,5.35-3.408,5.67-6.158a14.7,14.7,0,0,0,.08-2.75Z" transform="translate(-164.52 -102.449)"/>
      <path id="Caminho_881" data-name="Caminho 881" class="cls-11" d="M235,118.5c-3.33,2.35-2.8,8.227-3.7,12.434,2.12.247,5.46-4.184,5.46-4.184l2-6.734Z" transform="translate(-164.52 -106.115)"/>
      <path id="Caminho_882" data-name="Caminho 882" class="cls-10" d="M252.71,130.781c-2.13,8.3-3,13.268-7.52,16.735a8.393,8.393,0,0,1-9.911.534,11.721,11.721,0,0,1-5.009-10.065c0-7.909,3.46-20.155,11.18-21.847a8.866,8.866,0,0,1,9.224,3.5A12.924,12.924,0,0,1,252.71,130.781Z" transform="translate(-164.52 -106.573)"/>
      <path id="Caminho_883" data-name="Caminho 883" class="cls-11" d="M246.06,139.209c5-6.816-1.25-10.177,3.86-14.914-5.75.317-15.22-.165-16.91-4.795s3.51-10.906,7.84-11.494c5-.682,3.92,6.593,3.92,6.593s19.13-1.4,13.06,8.227c4.6-.329,3.33,8.415-4.67,15.795C251.15,139.409,246.06,139.209,246.06,139.209Z" transform="translate(-164.52 -107.962)"/>
      <path id="Caminho_884" data-name="Caminho 884" class="cls-11" d="M256.68,121.462s3.94-1.375,3.81-5.042C261.91,117.572,262.06,121.074,256.68,121.462Z" transform="translate(-164.52 -106.48)"/>
      <path id="Caminho_885" data-name="Caminho 885" class="cls-10" d="M253.88,136.771a7.823,7.823,0,0,1-4.55,3.255c-2.27.482-2.8-1.986-1.67-4.4,1-2.162,3.43-5.018,5.47-4.419S255.33,134.667,253.88,136.771Z" transform="translate(-164.52 -103.902)"/>
      <path id="Caminho_886" data-name="Caminho 886" class="cls-11" d="M241.32,128.592c-.14.682-.56,1.175-.95,1.069s-.58-.717-.44-1.4.56-1.175.94-1.081S241.46,127.9,241.32,128.592Z" transform="translate(-164.52 -104.596)"/>
      <path id="Caminho_887" data-name="Caminho 887" class="cls-11" d="M234.69,127.26c-.14.682-.56,1.175-.94,1.081s-.59-.717-.45-1.4.56-1.175.94-1.081S234.83,126.579,234.69,127.26Z" transform="translate(-164.52 -104.827)"/>
      <path id="Caminho_888" data-name="Caminho 888" class="cls-14" d="M236.73,127.76a25.141,25.141,0,0,1-4,5.194,3.183,3.183,0,0,0,2.68,1.281Z" transform="translate(-164.52 -104.493)"/>
      <path id="Caminho_889" data-name="Caminho 889" class="cls-11" d="M237.45,135.578a4.653,4.653,0,0,0,3.85-1.457.211.211,0,0,0,0-.282.161.161,0,0,0-.25,0,4.371,4.371,0,0,1-4.22,1.234.15.15,0,0,0-.13.033.207.207,0,0,0-.07.132.213.213,0,0,0,.14.247Z" transform="translate(-164.52 -103.438)"/>
      <path id="Caminho_890" data-name="Caminho 890" class="cls-11" d="M243.88,127.192a.232.232,0,0,0,.17,0,.38.38,0,0,0,.183-.228.464.464,0,0,0-.013-.313,3.534,3.534,0,0,0-2.47-2.35.374.374,0,0,0-.4.353.464.464,0,0,0,.073.305.34.34,0,0,0,.237.153,2.839,2.839,0,0,1,1.92,1.857A.36.36,0,0,0,243.88,127.192Z" transform="translate(-164.52 -105.099)"/>
      <path id="Caminho_891" data-name="Caminho 891" class="cls-11" d="M233.05,123.32a.284.284,0,0,0,.32-.071,2.576,2.576,0,0,1,2.52-.693.344.344,0,0,0,.445-.264.434.434,0,0,0-.225-.523h0a3.237,3.237,0,0,0-3.17.834.462.462,0,0,0-.06.576A.306.306,0,0,0,233.05,123.32Z" transform="translate(-164.52 -105.564)"/>
      <path id="Caminho_892" data-name="Caminho 892" class="cls-11" d="M262,158.574l.83,1.328.75,1.246c.5.834.95,1.669,1.42,2.5.91,1.681,1.77,3.385,2.6,5.1q2.5,5.145,4.52,10.577c.7,1.786,1.3,3.643,1.94,5.465s1.18,3.714,1.67,5.618q1.581,5.684,2.6,11.552l.08.447a7.044,7.044,0,0,1-.71,4.63,32.883,32.883,0,0,1-4.55,6.334,23.667,23.667,0,0,1-6,4.7,19.128,19.128,0,0,1-6.86,2.233,17.439,17.439,0,0,1-3.5.07,9.826,9.826,0,0,1-1.74-.235l-.88-.2-1-.294a.551.551,0,0,1-.34-.646l1.38-6.816c0-.059.26-.07.42-.118l.55-.129c.38-.094.75-.2,1.13-.317a14.4,14.4,0,0,0,2.17-.893,15.185,15.185,0,0,0,3.79-2.621,22.47,22.47,0,0,0,5.26-8.05l-.63,5.077c-.86-3.326-1.77-6.617-2.87-9.872s-2.3-6.452-3.61-9.6-2.71-6.264-4.22-9.3c-.74-1.516-1.52-3.009-2.3-4.489l-1.19-2.186-.59-1.058-.55-.94-.2-.353a8.513,8.513,0,0,1,1.585-10.63C255.89,154.291,259.94,155.125,262,158.574Z" transform="translate(-164.52 -99.662)"/>
      <path id="Caminho_893" data-name="Caminho 893" class="cls-10" d="M248.78,210.2l-2.15,4.137,9.33-.435s2.45-7.38-.89-8.544l-1.3.411a8.861,8.861,0,0,0-4.99,4.431Z" transform="translate(-164.52 -90.895)"/>
      <path id="Caminho_894" data-name="Caminho 894" class="cls-9" d="M252.62,204.624a6.926,6.926,0,0,0-1.7,2.01c2.54,1.622,6.08,7.145,6.08,7.145l.82-3.032a3.221,3.221,0,0,0-.27-2.35L256,205.458a2.427,2.427,0,0,0-1.537-1.271,2.1,2.1,0,0,0-1.843.436Z" transform="translate(-164.52 -91.111)"/>
      <path id="Caminho_895" data-name="Caminho 895" class="cls-10" d="M247.45,219.435l7.69-.8.82-6.005-9.33.435Z" transform="translate(-164.52 -89.622)"/>
    </g>
    <g id="freepik--Clock--inject-3" transform="translate(137.46 99.893)">
      <path id="Caminho_896" data-name="Caminho 896" class="cls-9" d="M153.06,96.89l-.51-1.011a33.616,33.616,0,0,1,4.57-2.679l.38,1.093a31.7,31.7,0,0,0-4.44,2.6Z" transform="translate(-137.46 -93.2)"/>
      <path id="Caminho_897" data-name="Caminho 897" class="cls-9" d="M138.46,116.926l-1-.4A40.95,40.95,0,0,1,149.77,97.3l.59.952a39.683,39.683,0,0,0-11.9,18.674Z" transform="translate(-137.46 -92.482)"/>
      <ellipse id="Elipse_10" data-name="Elipse 10" class="cls-9" cx="30.78" cy="36.173" rx="30.78" ry="36.173" transform="translate(1.96 1.657)"/>
      <path id="Caminho_898" data-name="Caminho 898" class="cls-15" d="M195.91,129.9c0,14.544-8.824,27.02-20.988,29.691s-24.222-5.222-28.694-18.783-.089-28.942,10.431-36.6,24.19-5.427,32.532,5.315a.052.052,0,0,1,.05,0,33.3,33.3,0,0,1,6.67,20.378Z" transform="translate(-137.46 -92.066)"/>
      <path id="Caminho_899" data-name="Caminho 899" class="cls-5" d="M195.91,129.631c0,12-6.044,22.865-15.4,27.678s-20.247,2.663-27.751-5.478c-9.329-11.947-8.97-30.419.813-41.853s25.5-11.754,35.617-.725a.052.052,0,0,1,.05,0,33.3,33.3,0,0,1,6.67,20.378Z" transform="translate(-137.46 -91.801)"/>
      <path id="Caminho_900" data-name="Caminho 900" class="cls-11" d="M170.2,129.62a1.388,1.388,0,0,1-1.06-.517L156.6,114.365a1.969,1.969,0,0,1-.431-1.726,1.653,1.653,0,0,1,1.082-1.272,1.362,1.362,0,0,1,1.469.506l11.48,13.492,6.63-7.792a1.345,1.345,0,0,1,2.083.043,1.991,1.991,0,0,1,.037,2.448l-7.69,9.037a1.406,1.406,0,0,1-1.06.517Z" transform="translate(-137.46 -90.026)"/>
    </g>
  </g>
</svg>
